<svg graphicVer="2" x="-999999" y="-999999" width="4400" height="3296" overflow="visible" preserveAspectRatio="xMidYMid" xml:space="default" xmlns="http://www.w3.org/2000/svg" xmlns:xlink="http://www.w3.org/1999/xlink" xmlns:xml="http://www.w3.org/XML/1998/namespace" version="1.1" >
<image x="0" y="0" width="4400" height="3296" xlink:href="20260328_031457403_0000000064_T0000_01_CAM.bmp" />
<!--Tool[0007].Output.Graphic.Region-->
<g class="EnableCustomAttribute" custom_stroke-width="2.000" stroke="#2a56af" stroke-width="2.000" >
<rect x="743.569" y="1559.125" width="2644.000" height="167.000" fill="none" transform="rotate(717.589 2065.569 1642.625)" />
<polygon points="2062.056,1559.199 2054.056,1554.399 2054.056,1563.999 " fill="#2a56af" fill-opacity="1.000" stroke="none" transform="rotate(717.589 2062.056 1559.199)" />
</g>
<!--Tool[0007].Output.Graphic.DimensionLine-->
<g class="EnableCustomAttribute" custom_stroke-width="2.000" stroke="#87bb0c" stroke-width="2.000" >
<path d="M747.756,1698.094 L3378.267,1587.372 " fill="none" />
</g>
<defs >
<svg id="Tool[0007].Output.Graphic.DimensionLine.Tips" overflow="visible" >
<g class="EnableCustomAttribute" custom_scale="1" >
<polygon points="0.000,0.000 -8.000,-4.800 -8.000,4.800 " fill="#87bb0c" fill-opacity="1.000" stroke="none" />
</g>
</svg>
</defs>
<g transform="translate(747.756 1698.094) " >
<use href="#Tool[0007].Output.Graphic.DimensionLine.Tips" transform="rotate(177.590)" />
</g>
<g transform="translate(3378.267 1587.372) " >
<use href="#Tool[0007].Output.Graphic.DimensionLine.Tips" transform="rotate(357.590)" />
</g>
<!--Tool[0007].Output.Graphic.PrimaryTarget-->
<defs >
<svg id="Tool[0007].Output.Graphic.PrimaryTarget.Edge2" overflow="visible" >
<g class="EnableCustomAttribute" custom_stroke-width="2.000" stroke="#87bb0c" stroke-width="2.000" >
<line x1="0.000" y1="-85.500" x2="0.000" y2="85.500" fill="#000000" fill-opacity="1.000" />
</g>
</svg>
</defs>
<defs >
<svg id="Tool[0007].Output.Graphic.PrimaryTarget.Edge1" overflow="visible" >
<g class="EnableCustomAttribute" custom_stroke-width="2.000" stroke="#87bb0c" stroke-width="2.000" >
<line x1="0.000" y1="-85.500" x2="0.000" y2="85.500" fill="#000000" fill-opacity="1.000" />
</g>
</svg>
</defs>
<g transform="translate(3378.267 1587.372) " >
<use href="#Tool[0007].Output.Graphic.PrimaryTarget.Edge2" transform="rotate(357.589)" />
</g>
<g transform="translate(747.756 1698.094) " >
<use href="#Tool[0007].Output.Graphic.PrimaryTarget.Edge1" transform="rotate(357.589)" />
</g>
<!--Tool[0006].Output.Graphic.Region-->
<g class="EnableCustomAttribute" custom_stroke-width="2.000" stroke="#2a56af" stroke-width="2.000" >
<rect x="1464.425" y="1490.575" width="880.000" height="659.000" fill="none" transform="rotate(448.505 1904.425 1820.075)" />
<polygon points="2233.813,1811.478 2225.813,1806.678 2225.813,1816.278 " fill="#2a56af" fill-opacity="1.000" stroke="none" transform="rotate(448.505 2233.813 1811.478)" />
</g>
<!--Tool[0006].Output.Graphic.DimensionLine-->
<g class="EnableCustomAttribute" custom_stroke-width="2.000" stroke="#87bb0c" stroke-width="2.000" >
<path d="M1896.496,1515.937 L1902.672,1752.839 " fill="none" />
</g>
<defs >
<svg id="Tool[0006].Output.Graphic.DimensionLine.Tips" overflow="visible" >
<g class="EnableCustomAttribute" custom_scale="1" >
<polygon points="0.000,0.000 -8.000,-4.800 -8.000,4.800 " fill="#87bb0c" fill-opacity="1.000" stroke="none" />
</g>
</svg>
</defs>
<g transform="translate(1896.496 1515.937) " >
<use href="#Tool[0006].Output.Graphic.DimensionLine.Tips" transform="rotate(268.507)" />
</g>
<g transform="translate(1902.672 1752.839) " >
<use href="#Tool[0006].Output.Graphic.DimensionLine.Tips" transform="rotate(88.507)" />
</g>
<!--Tool[0006].Output.Graphic.PrimaryTarget-->
<defs >
<svg id="Tool[0006].Output.Graphic.PrimaryTarget.Edge2" overflow="visible" >
<g class="EnableCustomAttribute" custom_stroke-width="2.000" stroke="#87bb0c" stroke-width="2.000" >
<line x1="0.000" y1="-331.500" x2="0.000" y2="331.500" fill="#000000" fill-opacity="1.000" />
</g>
</svg>
</defs>
<defs >
<svg id="Tool[0006].Output.Graphic.PrimaryTarget.Edge1" overflow="visible" >
<g class="EnableCustomAttribute" custom_stroke-width="2.000" stroke="#87bb0c" stroke-width="2.000" >
<line x1="0.000" y1="-331.500" x2="0.000" y2="331.500" fill="#000000" fill-opacity="1.000" />
</g>
</svg>
</defs>
<g transform="translate(1902.672 1752.839) " >
<use href="#Tool[0006].Output.Graphic.PrimaryTarget.Edge2" transform="rotate(88.505)" />
</g>
<g transform="translate(1896.496 1515.937) " >
<use href="#Tool[0006].Output.Graphic.PrimaryTarget.Edge1" transform="rotate(88.505)" />
</g>
<!--Tool[0005].Output.Graphic.Region-->
<g class="EnableCustomAttribute" custom_stroke-width="2.000" stroke="#2a56af" stroke-width="2.000" >
<path d="M1321.246,1598.496 A66.000,66.000 0 0 0 1321.246,1730.496 A66.000,66.000 0 0 0 1321.246,1598.496 Z M1321.246,1663.496 A1.000,1.000 0 0 1 1321.246,1665.496 A1.000,1.000 0 0 1 1321.246,1663.496 Z" fill="none" />
</g>
<!--Tool[0005].Output.Graphic.TrendEdge-->
<defs >
<svg id="Tool[0005].Output.Graphic.TrendEdge.Primary.Segment" overflow="visible" >
<g class="EnableCustomAttribute" custom_stroke-width="2.000" stroke="#87bb0c" stroke-width="2.000" >
<path d="M1.000,0.000 L66.000,0.000 A66.000,66.000 0 0 1 64.997,11.461 L0.985,0.174 A1.000,1.000 0 0 0 1.000,0.000 Z" fill="none" />
</g>
</svg>
</defs>
<g transform="translate(1321.246 1664.496) " >
<use href="#Tool[0005].Output.Graphic.TrendEdge.Primary.Segment" transform="rotate(597.809)" />
</g>
<defs >
<svg id="Tool[0005].Output.Graphic.TrendEdge.Array.Profile" overflow="visible" >
<g class="EnableCustomAttribute" custom_scale="1" >
<circle cx="0.000" cy="0.000" r="2.000" fill="#ddb60e" fill-opacity="1.000" stroke="#ddb60e" stroke-opacity="1.000" stroke-width="0.600" />
</g>
</svg>
</defs>
<g transform="translate(1344.687 1665.654) " >
<use href="#Tool[0005].Output.Graphic.TrendEdge.Array.Profile" transform="rotate(2.830)" />
</g>
<g transform="translate(1343.443 1669.239) " >
<use href="#Tool[0005].Output.Graphic.TrendEdge.Array.Profile" transform="rotate(12.060)" />
</g>
<g transform="translate(1341.824 1672.516) " >
<use href="#Tool[0005].Output.Graphic.TrendEdge.Array.Profile" transform="rotate(21.290)" />
</g>
<g transform="translate(1339.945 1675.519) " >
<use href="#Tool[0005].Output.Graphic.TrendEdge.Array.Profile" transform="rotate(30.520)" />
</g>
<g transform="translate(1337.362 1677.899) " >
<use href="#Tool[0005].Output.Graphic.TrendEdge.Array.Profile" transform="rotate(39.750)" />
</g>
<g transform="translate(1334.794 1680.070) " >
<use href="#Tool[0005].Output.Graphic.TrendEdge.Array.Profile" transform="rotate(48.980)" />
</g>
<g transform="translate(1332.096 1682.003) " >
<use href="#Tool[0005].Output.Graphic.TrendEdge.Array.Profile" transform="rotate(58.210)" />
</g>
<g transform="translate(1329.256 1683.779) " >
<use href="#Tool[0005].Output.Graphic.TrendEdge.Array.Profile" transform="rotate(67.440)" />
</g>
<g transform="translate(1326.159 1685.234) " >
<use href="#Tool[0005].Output.Graphic.TrendEdge.Array.Profile" transform="rotate(76.670)" />
</g>
<g transform="translate(1322.850 1686.886) " >
<use href="#Tool[0005].Output.Graphic.TrendEdge.Array.Profile" transform="rotate(85.900)" />
</g>
<g transform="translate(1319.173 1687.589) " >
<use href="#Tool[0005].Output.Graphic.TrendEdge.Array.Profile" transform="rotate(95.130)" />
</g>
<g transform="translate(1315.363 1687.478) " >
<use href="#Tool[0005].Output.Graphic.TrendEdge.Array.Profile" transform="rotate(104.360)" />
</g>
<g transform="translate(1311.387 1687.070) " >
<use href="#Tool[0005].Output.Graphic.TrendEdge.Array.Profile" transform="rotate(113.590)" />
</g>
<g transform="translate(1307.476 1685.850) " >
<use href="#Tool[0005].Output.Graphic.TrendEdge.Array.Profile" transform="rotate(122.820)" />
</g>
<g transform="translate(1304.476 1683.089) " >
<use href="#Tool[0005].Output.Graphic.TrendEdge.Array.Profile" transform="rotate(132.050)" />
</g>
<g transform="translate(1301.169 1680.592) " >
<use href="#Tool[0005].Output.Graphic.TrendEdge.Array.Profile" transform="rotate(141.280)" />
</g>
<g transform="translate(1296.841 1678.298) " >
<use href="#Tool[0005].Output.Graphic.TrendEdge.Array.Profile" transform="rotate(150.510)" />
</g>
<g transform="translate(1294.086 1674.521) " >
<use href="#Tool[0005].Output.Graphic.TrendEdge.Array.Profile" transform="rotate(159.740)" />
</g>
<g transform="translate(1290.274 1670.532) " >
<use href="#Tool[0005].Output.Graphic.TrendEdge.Array.Profile" transform="rotate(168.970)" />
</g>
<g transform="translate(1288.735 1665.517) " >
<use href="#Tool[0005].Output.Graphic.TrendEdge.Array.Profile" transform="rotate(178.200)" />
</g>
<g transform="translate(1287.446 1660.088) " >
<use href="#Tool[0005].Output.Graphic.TrendEdge.Array.Profile" transform="rotate(187.430)" />
</g>
<g transform="translate(1287.341 1654.353) " >
<use href="#Tool[0005].Output.Graphic.TrendEdge.Array.Profile" transform="rotate(196.660)" />
</g>
<g transform="translate(1288.025 1648.375) " >
<use href="#Tool[0005].Output.Graphic.TrendEdge.Array.Profile" transform="rotate(205.890)" />
</g>
<g transform="translate(1290.416 1642.813) " >
<use href="#Tool[0005].Output.Graphic.TrendEdge.Array.Profile" transform="rotate(215.120)" />
</g>
<g transform="translate(1294.081 1637.942) " >
<use href="#Tool[0005].Output.Graphic.TrendEdge.Array.Profile" transform="rotate(224.350)" />
</g>
<g transform="translate(1298.733 1633.982) " >
<use href="#Tool[0005].Output.Graphic.TrendEdge.Array.Profile" transform="rotate(233.580)" />
</g>
<g transform="translate(1309.444 1628.080) " >
<use href="#Tool[0005].Output.Graphic.TrendEdge.Array.Profile" transform="rotate(252.040)" />
</g>
<g transform="translate(1315.560 1627.457) " >
<use href="#Tool[0005].Output.Graphic.TrendEdge.Array.Profile" transform="rotate(261.270)" />
</g>
<g transform="translate(1321.564 1627.812) " >
<use href="#Tool[0005].Output.Graphic.TrendEdge.Array.Profile" transform="rotate(270.500)" />
</g>
<g transform="translate(1327.229 1629.595) " >
<use href="#Tool[0005].Output.Graphic.TrendEdge.Array.Profile" transform="rotate(279.730)" />
</g>
<g transform="translate(1332.158 1632.726) " >
<use href="#Tool[0005].Output.Graphic.TrendEdge.Array.Profile" transform="rotate(288.960)" />
</g>
<g transform="translate(1336.433 1636.160) " >
<use href="#Tool[0005].Output.Graphic.TrendEdge.Array.Profile" transform="rotate(298.190)" />
</g>
<g transform="translate(1340.091 1639.865) " >
<use href="#Tool[0005].Output.Graphic.TrendEdge.Array.Profile" transform="rotate(307.420)" />
</g>
<g transform="translate(1342.828 1644.124) " >
<use href="#Tool[0005].Output.Graphic.TrendEdge.Array.Profile" transform="rotate(316.650)" />
</g>
<g transform="translate(1344.504 1648.738) " >
<use href="#Tool[0005].Output.Graphic.TrendEdge.Array.Profile" transform="rotate(325.880)" />
</g>
<g transform="translate(1345.359 1653.310) " >
<use href="#Tool[0005].Output.Graphic.TrendEdge.Array.Profile" transform="rotate(335.110)" />
</g>
<g transform="translate(1345.451 1657.713) " >
<use href="#Tool[0005].Output.Graphic.TrendEdge.Array.Profile" transform="rotate(344.340)" />
</g>
<g transform="translate(1345.336 1661.781) " >
<use href="#Tool[0005].Output.Graphic.TrendEdge.Array.Profile" transform="rotate(353.570)" />
</g>
<g transform="translate(1344.685 1665.641) " >
<use href="#Tool[0005].Output.Graphic.TrendEdge.Array.Profile" transform="rotate(2.800)" />
</g>
<g class="EnableCustomAttribute" custom_stroke-width="2.000" stroke="#ddb60e" stroke-width="2.000" >
<path d="M1344.687,1665.654 L1343.443,1669.239 L1341.824,1672.516 L1339.945,1675.519 L1337.362,1677.899 L1334.794,1680.070 L1332.096,1682.003 L1329.256,1683.779 L1326.159,1685.234 L1322.850,1686.886 L1319.173,1687.589 L1315.363,1687.478 L1311.387,1687.070 L1307.476,1685.850 L1304.476,1683.089 L1301.169,1680.592 L1296.841,1678.298 L1294.086,1674.521 L1290.274,1670.532 L1288.735,1665.517 L1287.446,1660.088 L1287.341,1654.353 L1288.025,1648.375 L1290.416,1642.813 L1294.081,1637.942 L1298.733,1633.982 L1303.631,1630.204 L1309.444,1628.080 L1315.560,1627.457 L1321.564,1627.812 L1327.229,1629.595 L1332.158,1632.726 L1336.433,1636.160 L1340.091,1639.865 L1342.828,1644.124 L1344.504,1648.738 L1345.359,1653.310 L1345.451,1657.713 L1345.336,1661.781 L1344.685,1665.641 L1344.687,1665.654 " fill="none" />
</g>
<defs >
<svg id="Tool[0005].Output.Graphic.TrendEdge.Primary.Profile" overflow="visible" >
<g class="EnableCustomAttribute" custom_scale="1" >
<circle cx="0.000" cy="0.000" r="2.000" fill="#87bb0c" fill-opacity="1.000" stroke="#87bb0c" stroke-opacity="1.000" stroke-width="0.600" />
</g>
</svg>
</defs>
<g transform="translate(1303.631 1630.204) " >
<use href="#Tool[0005].Output.Graphic.TrendEdge.Primary.Profile" transform="rotate(242.810)" />
</g>
<defs >
<svg id="Tool[0005].Output.Graphic.TrendEdge.Primary.Target.Edge" overflow="visible" >
<g class="EnableCustomAttribute" custom_stroke-width="2.000" stroke="#87bb0c" stroke-width="2.000" >
<path d="M-21.665,-31.891 A38.553,38.553 0 0 1 -13.306,-36.184 M-13.306,-36.184 Z" fill="none" />
</g>
</svg>
</defs>
<g transform="translate(1321.246 1664.496) " >
<use href="#Tool[0005].Output.Graphic.TrendEdge.Primary.Target.Edge" transform="rotate(0.000)" />
</g>
<defs >
<svg id="Tool[0005].Output.Graphic.TrendEdge.Primary.Target.ArrowedLine" overflow="visible" >
<g class="EnableCustomAttribute" custom_stroke-width="2.000" stroke="#87bb0c" stroke-width="2.000" >
<line x1="8.808" y1="17.146" x2="-8.808" y2="-17.146" fill="#000000" fill-opacity="1.000" />
</g>
</svg>
</defs>
<g transform="translate(1312.438 1647.350) " >
<use href="#Tool[0005].Output.Graphic.TrendEdge.Primary.Target.ArrowedLine" transform="rotate(0.000)" />
</g>
<defs >
<svg id="Tool[0005].Output.Graphic.TrendEdge.Primary.Target.ArrowedLine.StartTip" overflow="visible" >
<g class="EnableCustomAttribute" custom_scale="1" >
<polygon points="0.000,0.000 0.000,0.000 0.000,0.000 " fill="none" stroke="none" />
</g>
</svg>
</defs>
<g transform="translate(1321.246 1664.496) " >
<use href="#Tool[0005].Output.Graphic.TrendEdge.Primary.Target.ArrowedLine.StartTip" transform="rotate(62.811)" />
</g>
<defs >
<svg id="Tool[0005].Output.Graphic.TrendEdge.Primary.Target.ArrowedLine.EndTip" overflow="visible" >
<g class="EnableCustomAttribute" custom_scale="1" >
<polygon points="0.000,0.000 -8.000,-4.800 -8.000,4.800 " fill="#87bb0c" fill-opacity="1.000" stroke="none" />
</g>
</svg>
</defs>
<g transform="translate(1303.631 1630.204) " >
<use href="#Tool[0005].Output.Graphic.TrendEdge.Primary.Target.ArrowedLine.EndTip" transform="rotate(-117.189)" />
</g>
<!--Tool[0005].Output.Graphic.DetectedShape-->
<defs >
<svg id="Tool[0005].Output.Graphic.DetectedShape" overflow="visible" >
<g class="EnableCustomAttribute" custom_stroke-width="2.000" stroke="#87bb0c" stroke-width="2.000" >
<circle cx="0.000" cy="0.000" r="29.396" fill="none" />
</g>
</svg>
</defs>
<g transform="translate(1316.480 1657.240) " >
<use href="#Tool[0005].Output.Graphic.DetectedShape" transform="rotate(0.000)" />
</g>
<defs >
<svg id="Tool[0005].Output.Graphic.DetectedShape.Point" overflow="visible" >
<g class="EnableCustomAttribute" custom_scale="1" >
<polygon points="-1.000,-10.000 -1.000,-1.000 -10.000,-1.000 -10.000,1.000 -1.000,1.000 -1.000,10.000 1.000,10.000 1.000,1.000 10.000,1.000 10.000,-1.000 
    1.000,-1.000 1.000,-10.000 " fill="#87bb0c" fill-opacity="1.000" stroke="none" paint-order="stroke" />
</g>
</svg>
</defs>
<g transform="translate(1316.480 1657.240) " >
<use href="#Tool[0005].Output.Graphic.DetectedShape.Point" transform="rotate(0.000)" />
</g>
<!--Tool[0004].Output.Graphic.Region-->
<g class="EnableCustomAttribute" custom_stroke-width="2.000" stroke="#2a56af" stroke-width="2.000" >
<path d="M2800.343,1557.921 A66.000,66.000 0 0 0 2800.343,1689.921 A66.000,66.000 0 0 0 2800.343,1557.921 Z M2800.343,1622.921 A1.000,1.000 0 0 1 2800.343,1624.921 A1.000,1.000 0 0 1 2800.343,1622.921 Z" fill="none" />
</g>
<!--Tool[0004].Output.Graphic.TrendEdge-->
<defs >
<svg id="Tool[0004].Output.Graphic.TrendEdge.Primary.Segment" overflow="visible" >
<g class="EnableCustomAttribute" custom_stroke-width="2.000" stroke="#87bb0c" stroke-width="2.000" >
<path d="M1.000,0.000 L66.000,0.000 A66.000,66.000 0 0 1 64.997,11.461 L0.985,0.174 A1.000,1.000 0 0 0 1.000,0.000 Z" fill="none" />
</g>
</svg>
</defs>
<g transform="translate(2800.343 1623.921) " >
<use href="#Tool[0004].Output.Graphic.TrendEdge.Primary.Segment" transform="rotate(625.499)" />
</g>
<defs >
<svg id="Tool[0004].Output.Graphic.TrendEdge.Array.Profile" overflow="visible" >
<g class="EnableCustomAttribute" custom_scale="1" >
<circle cx="0.000" cy="0.000" r="2.000" fill="#ddb60e" fill-opacity="1.000" stroke="#ddb60e" stroke-opacity="1.000" stroke-width="0.600" />
</g>
</svg>
</defs>
<g transform="translate(2831.419 1625.456) " >
<use href="#Tool[0004].Output.Graphic.TrendEdge.Array.Profile" transform="rotate(2.830)" />
</g>
<g transform="translate(2830.579 1630.381) " >
<use href="#Tool[0004].Output.Graphic.TrendEdge.Array.Profile" transform="rotate(12.060)" />
</g>
<g transform="translate(2828.671 1634.961) " >
<use href="#Tool[0004].Output.Graphic.TrendEdge.Array.Profile" transform="rotate(21.290)" />
</g>
<g transform="translate(2825.775 1638.913) " >
<use href="#Tool[0004].Output.Graphic.TrendEdge.Array.Profile" transform="rotate(30.520)" />
</g>
<g transform="translate(2821.821 1641.783) " >
<use href="#Tool[0004].Output.Graphic.TrendEdge.Array.Profile" transform="rotate(39.750)" />
</g>
<g transform="translate(2818.512 1644.808) " >
<use href="#Tool[0004].Output.Graphic.TrendEdge.Array.Profile" transform="rotate(48.980)" />
</g>
<g transform="translate(2815.012 1647.590) " >
<use href="#Tool[0004].Output.Graphic.TrendEdge.Array.Profile" transform="rotate(58.210)" />
</g>
<g transform="translate(2811.055 1649.708) " >
<use href="#Tool[0004].Output.Graphic.TrendEdge.Array.Profile" transform="rotate(67.440)" />
</g>
<g transform="translate(2806.735 1650.904) " >
<use href="#Tool[0004].Output.Graphic.TrendEdge.Array.Profile" transform="rotate(76.670)" />
</g>
<g transform="translate(2802.309 1651.367) " >
<use href="#Tool[0004].Output.Graphic.TrendEdge.Array.Profile" transform="rotate(85.900)" />
</g>
<g transform="translate(2797.919 1650.920) " >
<use href="#Tool[0004].Output.Graphic.TrendEdge.Array.Profile" transform="rotate(95.130)" />
</g>
<g transform="translate(2793.943 1648.922) " >
<use href="#Tool[0004].Output.Graphic.TrendEdge.Array.Profile" transform="rotate(104.360)" />
</g>
<g transform="translate(2790.224 1647.091) " >
<use href="#Tool[0004].Output.Graphic.TrendEdge.Array.Profile" transform="rotate(113.590)" />
</g>
<g transform="translate(2786.860 1644.829) " >
<use href="#Tool[0004].Output.Graphic.TrendEdge.Array.Profile" transform="rotate(122.820)" />
</g>
<g transform="translate(2783.284 1642.835) " >
<use href="#Tool[0004].Output.Graphic.TrendEdge.Array.Profile" transform="rotate(132.050)" />
</g>
<g transform="translate(2779.877 1640.328) " >
<use href="#Tool[0004].Output.Graphic.TrendEdge.Array.Profile" transform="rotate(141.280)" />
</g>
<g transform="translate(2776.638 1637.327) " >
<use href="#Tool[0004].Output.Graphic.TrendEdge.Array.Profile" transform="rotate(150.510)" />
</g>
<g transform="translate(2774.900 1633.312) " >
<use href="#Tool[0004].Output.Graphic.TrendEdge.Array.Profile" transform="rotate(159.740)" />
</g>
<g transform="translate(2773.651 1629.123) " >
<use href="#Tool[0004].Output.Graphic.TrendEdge.Array.Profile" transform="rotate(168.970)" />
</g>
<g transform="translate(2773.004 1624.779) " >
<use href="#Tool[0004].Output.Graphic.TrendEdge.Array.Profile" transform="rotate(178.200)" />
</g>
<g transform="translate(2772.321 1620.266) " >
<use href="#Tool[0004].Output.Graphic.TrendEdge.Array.Profile" transform="rotate(187.430)" />
</g>
<g transform="translate(2772.877 1615.704) " >
<use href="#Tool[0004].Output.Graphic.TrendEdge.Array.Profile" transform="rotate(196.660)" />
</g>
<g transform="translate(2773.431 1610.862) " >
<use href="#Tool[0004].Output.Graphic.TrendEdge.Array.Profile" transform="rotate(205.890)" />
</g>
<g transform="translate(2774.901 1606.028) " >
<use href="#Tool[0004].Output.Graphic.TrendEdge.Array.Profile" transform="rotate(215.120)" />
</g>
<g transform="translate(2777.791 1601.876) " >
<use href="#Tool[0004].Output.Graphic.TrendEdge.Array.Profile" transform="rotate(224.350)" />
</g>
<g transform="translate(2781.411 1598.261) " >
<use href="#Tool[0004].Output.Graphic.TrendEdge.Array.Profile" transform="rotate(233.580)" />
</g>
<g transform="translate(2785.153 1594.351) " >
<use href="#Tool[0004].Output.Graphic.TrendEdge.Array.Profile" transform="rotate(242.810)" />
</g>
<g transform="translate(2789.893 1591.676) " >
<use href="#Tool[0004].Output.Graphic.TrendEdge.Array.Profile" transform="rotate(252.040)" />
</g>
<g transform="translate(2795.151 1590.102) " >
<use href="#Tool[0004].Output.Graphic.TrendEdge.Array.Profile" transform="rotate(261.270)" />
</g>
<g transform="translate(2806.250 1589.456) " >
<use href="#Tool[0004].Output.Graphic.TrendEdge.Array.Profile" transform="rotate(279.730)" />
</g>
<g transform="translate(2811.641 1591.027) " >
<use href="#Tool[0004].Output.Graphic.TrendEdge.Array.Profile" transform="rotate(288.960)" />
</g>
<g transform="translate(2816.702 1593.396) " >
<use href="#Tool[0004].Output.Graphic.TrendEdge.Array.Profile" transform="rotate(298.190)" />
</g>
<g transform="translate(2821.090 1596.802) " >
<use href="#Tool[0004].Output.Graphic.TrendEdge.Array.Profile" transform="rotate(307.420)" />
</g>
<g transform="translate(2825.161 1600.495) " >
<use href="#Tool[0004].Output.Graphic.TrendEdge.Array.Profile" transform="rotate(316.650)" />
</g>
<g transform="translate(2828.453 1604.876) " >
<use href="#Tool[0004].Output.Graphic.TrendEdge.Array.Profile" transform="rotate(325.880)" />
</g>
<g transform="translate(2830.667 1609.853) " >
<use href="#Tool[0004].Output.Graphic.TrendEdge.Array.Profile" transform="rotate(335.110)" />
</g>
<g transform="translate(2831.054 1615.315) " >
<use href="#Tool[0004].Output.Graphic.TrendEdge.Array.Profile" transform="rotate(344.340)" />
</g>
<g transform="translate(2831.310 1620.431) " >
<use href="#Tool[0004].Output.Graphic.TrendEdge.Array.Profile" transform="rotate(353.570)" />
</g>
<g transform="translate(2831.443 1625.440) " >
<use href="#Tool[0004].Output.Graphic.TrendEdge.Array.Profile" transform="rotate(2.800)" />
</g>
<g class="EnableCustomAttribute" custom_stroke-width="2.000" stroke="#ddb60e" stroke-width="2.000" >
<path d="M2831.419,1625.456 L2830.579,1630.381 L2828.671,1634.961 L2825.775,1638.913 L2821.821,1641.783 L2818.512,1644.808 L2815.012,1647.590 L2811.055,1649.708 L2806.735,1650.904 L2802.309,1651.367 L2797.919,1650.920 L2793.943,1648.922 L2790.224,1647.091 L2786.860,1644.829 L2783.284,1642.835 L2779.877,1640.328 L2776.638,1637.327 L2774.900,1633.312 L2773.651,1629.123 L2773.004,1624.779 L2772.321,1620.266 L2772.877,1615.704 L2773.431,1610.862 L2774.901,1606.028 L2777.791,1601.876 L2781.411,1598.261 L2785.153,1594.351 L2789.893,1591.676 L2795.151,1590.102 L2800.646,1588.942 L2806.250,1589.456 L2811.641,1591.027 L2816.702,1593.396 L2821.090,1596.802 L2825.161,1600.495 L2828.453,1604.876 L2830.667,1609.853 L2831.054,1615.315 L2831.310,1620.431 L2831.443,1625.440 L2831.419,1625.456 " fill="none" />
</g>
<defs >
<svg id="Tool[0004].Output.Graphic.TrendEdge.Primary.Profile" overflow="visible" >
<g class="EnableCustomAttribute" custom_scale="1" >
<circle cx="0.000" cy="0.000" r="2.000" fill="#87bb0c" fill-opacity="1.000" stroke="#87bb0c" stroke-opacity="1.000" stroke-width="0.600" />
</g>
</svg>
</defs>
<g transform="translate(2800.646 1588.942) " >
<use href="#Tool[0004].Output.Graphic.TrendEdge.Primary.Profile" transform="rotate(270.500)" />
</g>
<defs >
<svg id="Tool[0004].Output.Graphic.TrendEdge.Primary.Target.Edge" overflow="visible" >
<g class="EnableCustomAttribute" custom_stroke-width="2.000" stroke="#87bb0c" stroke-width="2.000" >
<path d="M-3.960,-34.757 A34.982,34.982 0 0 1 4.566,-34.683 M4.566,-34.683 Z" fill="none" />
</g>
</svg>
</defs>
<g transform="translate(2800.343 1623.921) " >
<use href="#Tool[0004].Output.Graphic.TrendEdge.Primary.Target.Edge" transform="rotate(0.000)" />
</g>
<defs >
<svg id="Tool[0004].Output.Graphic.TrendEdge.Primary.Target.ArrowedLine" overflow="visible" >
<g class="EnableCustomAttribute" custom_stroke-width="2.000" stroke="#87bb0c" stroke-width="2.000" >
<line x1="-0.152" y1="17.490" x2="0.152" y2="-17.490" fill="#000000" fill-opacity="1.000" />
</g>
</svg>
</defs>
<g transform="translate(2800.494 1606.431) " >
<use href="#Tool[0004].Output.Graphic.TrendEdge.Primary.Target.ArrowedLine" transform="rotate(0.000)" />
</g>
<defs >
<svg id="Tool[0004].Output.Graphic.TrendEdge.Primary.Target.ArrowedLine.StartTip" overflow="visible" >
<g class="EnableCustomAttribute" custom_scale="1" >
<polygon points="0.000,0.000 0.000,0.000 0.000,0.000 " fill="none" stroke="none" />
</g>
</svg>
</defs>
<g transform="translate(2800.343 1623.921) " >
<use href="#Tool[0004].Output.Graphic.TrendEdge.Primary.Target.ArrowedLine.StartTip" transform="rotate(90.497)" />
</g>
<defs >
<svg id="Tool[0004].Output.Graphic.TrendEdge.Primary.Target.ArrowedLine.EndTip" overflow="visible" >
<g class="EnableCustomAttribute" custom_scale="1" >
<polygon points="0.000,0.000 -8.000,-4.800 -8.000,4.800 " fill="#87bb0c" fill-opacity="1.000" stroke="none" />
</g>
</svg>
</defs>
<g transform="translate(2800.646 1588.942) " >
<use href="#Tool[0004].Output.Graphic.TrendEdge.Primary.Target.ArrowedLine.EndTip" transform="rotate(-89.503)" />
</g>
<!--Tool[0004].Output.Graphic.DetectedShape-->
<defs >
<svg id="Tool[0004].Output.Graphic.DetectedShape" overflow="visible" >
<g class="EnableCustomAttribute" custom_stroke-width="2.000" stroke="#87bb0c" stroke-width="2.000" >
<circle cx="0.000" cy="0.000" r="30.251" fill="none" />
</g>
</svg>
</defs>
<g transform="translate(2802.165 1619.871) " >
<use href="#Tool[0004].Output.Graphic.DetectedShape" transform="rotate(0.000)" />
</g>
<defs >
<svg id="Tool[0004].Output.Graphic.DetectedShape.Point" overflow="visible" >
<g class="EnableCustomAttribute" custom_scale="1" >
<polygon points="-1.000,-10.000 -1.000,-1.000 -10.000,-1.000 -10.000,1.000 -1.000,1.000 -1.000,10.000 1.000,10.000 1.000,1.000 10.000,1.000 10.000,-1.000 
    1.000,-1.000 1.000,-10.000 " fill="#87bb0c" fill-opacity="1.000" stroke="none" paint-order="stroke" />
</g>
</svg>
</defs>
<g transform="translate(2802.165 1619.871) " >
<use href="#Tool[0004].Output.Graphic.DetectedShape.Point" transform="rotate(0.000)" />
</g>
<!--Tool[0002].Output.Graphic.Region-->
<g class="EnableCustomAttribute" custom_stroke-width="2.000" stroke="#2a56af" stroke-width="2.000" >
<rect x="-10.000" y="1215.000" width="3894.000" height="1007.000" fill="none" />
<polygon points="1937.000,1215.000 1929.000,1210.200 1929.000,1219.800 " fill="#2a56af" fill-opacity="1.000" stroke="none" />
</g>
<!--Tool[0002].Output.Graphic.ArrayTarget-->
<defs >
<svg id="Tool[0002].Output.Graphic.ArrayTarget.OtherGraphics" overflow="visible" >
<g class="EnableCustomAttribute" custom_stroke-width="1.000" stroke="#ddb60e" stroke-width="1.000" >
<g class="EnableCustomAttribute" custom_stroke-width="2.000" stroke="#ddb60e" stroke-width="2.000" >
<path stroke-linecap="square" d="M-154.465,-38.280 L-430.465,-41.280 M117.535,-35.280 L-134.465,-38.280 M-430.465,34.720 L-186.465,33.720 M17.535,38.720 L229.535,38.720 M-122.465,34.720 L13.535,37.720 M301.535,-34.280 L209.535,-36.280 M417.535,-33.280 L333.535,-33.280 M349.535,40.720 L417.535,40.720 M-131.134,27.415 A29.000,29.000 0 0 1 -165.002,18.970 M205.535,-33.280 L173.535,-37.280 M261.535,38.720 L293.535,41.720 M-150.881,-28.105 A24.000,24.000 0 0 1 -123.568,-18.701 M-167.336,17.496 A30.000,30.000 0 0 1 -170.281,-10.518 M319.535,25.720 L325.535,0.720 M302.105,31.815 A45.000,45.000 0 0 1 283.962,14.897 M300.842,-24.471 A37.000,37.000 0 0 1 324.755,-21.535 M257.558,38.464 A49.000,49.000 0 0 1 233.029,37.822 M144.539,-32.588 A55.000,55.000 0 0 1 169.190,-34.745 M141.535,-38.280 L121.535,-35.280 M-182.465,35.720 L-162.465,38.720 M325.535,40.720 L345.535,40.720 M-154.465,-27.280 L-169.465,-14.280 M-119.465,19.720 L-113.465,0.720 M282.535,-7.280 L282.535,11.720 M297.535,-23.280 L285.535,-11.280 M312.495,-35.726 A45.000,45.000 0 0 1 328.891,-35.297 M305.535,32.720 L321.535,33.720 M-119.871,-17.713 A17.000,17.000 0 0 1 -114.558,-3.503 M424.030,28.607 A17.000,17.000 0 0 1 422.404,40.962 M421.534,-34.005 A14.000,14.000 0 0 1 426.535,-23.280 M-110.560,24.512 A9.000,9.000 0 0 1 -120.269,25.877 M281.535,28.720 L273.535,27.720 M421.535,84.720 L419.535,76.720 M-127.465,23.720 L-122.465,20.720 M324.535,-6.280 L322.535,-12.280 M-173.465,-25.280 L-170.465,-27.280 M140.535,-29.280 L137.535,-28.280 " fill="none" />
</g>
<g class="EnableCustomAttribute" custom_stroke-width="1.000" stroke="#ddb60e" stroke-width="1.000" >
<rect x="-435.500" y="-90.500" width="871.000" height="181.000" fill="none" transform="rotate(0.300 0.000 0.000)" />
<polygon points="0.474,-90.499 -3.526,-92.899 -3.526,-88.099 " fill="#ddb60e" fill-opacity="1.000" stroke="none" transform="rotate(0.300 0.474 -90.499)" />
</g>
</g>
</svg>
</defs>
<defs >
<svg id="Tool[0002].Output.Graphic.ArrayTarget" overflow="visible" >
<g class="EnableCustomAttribute" custom_scale="1" >
<polygon points="-0.500,-0.500 -0.500,4.000 -2.400,4.000 0.000,8.000 2.400,4.000 0.500,4.000 0.500,0.500 4.000,0.500 4.000,2.400 8.000,0.000 
    4.000,-2.400 4.000,-0.500 " fill="#ddb60e" fill-opacity="1.000" stroke="#000000" stroke-opacity="1.000" stroke-width="2.000" paint-order="stroke" />
</g>
</svg>
</defs>
<defs >
<path id="Tool[0002].Output.Graphic.ArrayTarget0" class="EnableCustomAttribute" custom_scale="1" custom_offset_x="2.500" custom_offset_y="-2.500" d="M 2.500 -2.500 h 1000" />
</defs>
<g class="EnableCustomAttribute" custom_fontsize="12" font-size="12" font-weight="bold" custom_stroke-width="2" stroke-width="2" fill="#ddb60e" stroke="#000000" paint-order="stroke" >
</g>
<!--Tool[0002].Output.Graphic.PrimaryTarget-->
<defs >
<svg id="Tool[0002].Output.Graphic.PrimaryTarget.OtherGraphics" overflow="visible" >
<g class="EnableCustomAttribute" custom_stroke-width="2.000" stroke="#87bb0c" stroke-width="2.000" >
<g class="EnableCustomAttribute" custom_stroke-width="2.000" stroke="#87bb0c" stroke-width="2.000" >
<path stroke-linecap="square" d="M-154.465,-38.280 L-430.465,-41.280 M117.535,-35.280 L-134.465,-38.280 M-430.465,34.720 L-186.465,33.720 M17.535,38.720 L229.535,38.720 M-122.465,34.720 L13.535,37.720 M301.535,-34.280 L209.535,-36.280 M417.535,-33.280 L333.535,-33.280 M349.535,40.720 L417.535,40.720 M-131.134,27.415 A29.000,29.000 0 0 1 -165.002,18.970 M205.535,-33.280 L173.535,-37.280 M261.535,38.720 L293.535,41.720 M-150.881,-28.105 A24.000,24.000 0 0 1 -123.568,-18.701 M-167.336,17.496 A30.000,30.000 0 0 1 -170.281,-10.518 M319.535,25.720 L325.535,0.720 M302.105,31.815 A45.000,45.000 0 0 1 283.962,14.897 M300.842,-24.471 A37.000,37.000 0 0 1 324.755,-21.535 M257.558,38.464 A49.000,49.000 0 0 1 233.029,37.822 M144.539,-32.588 A55.000,55.000 0 0 1 169.190,-34.745 M141.535,-38.280 L121.535,-35.280 M-182.465,35.720 L-162.465,38.720 M325.535,40.720 L345.535,40.720 M-154.465,-27.280 L-169.465,-14.280 M-119.465,19.720 L-113.465,0.720 M282.535,-7.280 L282.535,11.720 M297.535,-23.280 L285.535,-11.280 M312.495,-35.726 A45.000,45.000 0 0 1 328.891,-35.297 M305.535,32.720 L321.535,33.720 M-119.871,-17.713 A17.000,17.000 0 0 1 -114.558,-3.503 M424.030,28.607 A17.000,17.000 0 0 1 422.404,40.962 M421.534,-34.005 A14.000,14.000 0 0 1 426.535,-23.280 M-110.560,24.512 A9.000,9.000 0 0 1 -120.269,25.877 M281.535,28.720 L273.535,27.720 M421.535,84.720 L419.535,76.720 M-127.465,23.720 L-122.465,20.720 M324.535,-6.280 L322.535,-12.280 M-173.465,-25.280 L-170.465,-27.280 M140.535,-29.280 L137.535,-28.280 " fill="none" />
</g>
<g class="EnableCustomAttribute" custom_stroke-width="2.000" stroke="#87bb0c" stroke-width="2.000" >
<rect x="-435.500" y="-90.500" width="871.000" height="181.000" fill="none" transform="rotate(0.300 0.000 0.000)" />
<polygon points="0.474,-90.499 -7.526,-95.299 -7.526,-85.699 " fill="#87bb0c" fill-opacity="1.000" stroke="none" transform="rotate(0.300 0.474 -90.499)" />
</g>
</g>
</svg>
</defs>
<defs >
<svg id="Tool[0002].Output.Graphic.PrimaryTarget" overflow="visible" >
<g class="EnableCustomAttribute" custom_scale="1" >
<polygon points="-1.000,-1.000 -1.000,4.000 -2.400,4.000 0.000,8.000 2.400,4.000 1.000,4.000 1.000,1.000 4.000,1.000 4.000,2.400 8.000,0.000 
    4.000,-2.400 4.000,-1.000 " fill="#87bb0c" fill-opacity="1.000" stroke="#000000" stroke-opacity="1.000" stroke-width="2.000" paint-order="stroke" />
</g>
</svg>
</defs>
<defs >
<path id="Tool[0002].Output.Graphic.PrimaryTarget0" class="EnableCustomAttribute" custom_scale="1" custom_offset_x="3.000" custom_offset_y="-3.000" d="M 3.000 -3.000 h 1000" />
</defs>
<g transform="translate(2944.491 1616.375) " >
<use href="#Tool[0002].Output.Graphic.PrimaryTarget.OtherGraphics" transform="rotate(-2.171)" />
</g>
<g transform="translate(2944.491 1616.375) " >
<use href="#Tool[0002].Output.Graphic.PrimaryTarget" transform="rotate(-2.171)" />
</g>
<g class="EnableCustomAttribute" custom_fontsize="12" font-size="12" font-weight="bold" custom_stroke-width="2" stroke-width="2" fill="#87bb0c" stroke="#000000" paint-order="stroke" >
<g transform="translate(2944.491 1616.375) " >
<text style="white-space:pre" >
<textPath href="#Tool[0002].Output.Graphic.PrimaryTarget0" >93.3</textPath>
</text>
</g>
</g>
<!--Tool[0001].Output.Graphic.Region-->
<g class="EnableCustomAttribute" custom_stroke-width="2.000" stroke="#2a56af" stroke-width="2.000" >
<rect x="371.000" y="661.000" width="3309.000" height="1913.000" fill="none" />
<polygon points="2025.500,661.000 2017.500,656.200 2017.500,665.800 " fill="#2a56af" fill-opacity="1.000" stroke="none" />
</g>
<!--Tool[0001].Output.Graphic.Result-->
<defs >
<path id="Tool[0001].Output.Graphic.ResultSymbol00" class="EnableCustomAttribute" custom_scale="1" custom_offset_x="3.000" custom_offset_y="-3.000" d="M 3.000 -3.000 h 1000" />
</defs>
<g class="EnableCustomAttribute" custom_fontsize="40" font-size="40" font-weight="bold" custom_stroke-width="2" stroke-width="2" fill="#1da57b" stroke="#000000" paint-order="stroke" >
<g transform="translate(371.000 2574.000) " >
<text style="white-space:pre" >
<textPath href="#Tool[0001].Output.Graphic.ResultSymbol00" >■</textPath>
</text>
</g>
</g>
<defs >
<path id="Tool[0001].Output.Graphic.ResultSymbol00" class="EnableCustomAttribute" custom_scale="1" custom_offset_x="3.000" custom_offset_y="-3.000" d="M 3.000 -3.000 h 1000" />
</defs>
<g class="EnableCustomAttribute" custom_fontsize="40" font-size="40" font-weight="bold" custom_stroke-width="2" stroke-width="2" fill="#ffffff" stroke="#000000" paint-order="stroke" >
<g transform="translate(371.000 2574.000) " >
<text style="white-space:pre" >
<textPath href="#Tool[0001].Output.Graphic.ResultSymbol00" >　Front  97%</textPath>
</text>
</g>
</g>
</svg>
