<svg graphicVer="2" x="-999999" y="-999999" width="4400" height="3296" overflow="visible" preserveAspectRatio="xMidYMid" xml:space="default" xmlns="http://www.w3.org/2000/svg" xmlns:xlink="http://www.w3.org/1999/xlink" xmlns:xml="http://www.w3.org/XML/1998/namespace" version="1.1" >
<image x="0" y="0" width="4400" height="3296" xlink:href="20260423_084504955_0000000019_T0000_01_CAM.bmp" />
<!--Tool[0007].Output.Graphic.Region-->
<g class="EnableCustomAttribute" custom_stroke-width="2.000" stroke="#2a56af" stroke-width="2.000" >
<rect x="427.014" y="1691.569" width="3916.000" height="167.000" fill="none" transform="rotate(717.344 2385.014 1775.069)" />
<polygon points="2381.145,1691.659 2373.145,1686.859 2373.145,1696.459 " fill="#2a56af" fill-opacity="1.000" stroke="none" transform="rotate(717.344 2381.145 1691.659)" />
</g>
<!--Tool[0007].Output.Graphic.DimensionLine-->
<g class="EnableCustomAttribute" custom_stroke-width="2.000" stroke="#87bb0c" stroke-width="2.000" >
<path d="M468.038,1863.855 L4196.209,1691.182 " fill="none" />
</g>
<defs >
<svg id="Tool[0007].Output.Graphic.DimensionLine.Tips" overflow="visible" >
<g class="EnableCustomAttribute" custom_scale="1" >
<polygon points="0.000,0.000 -8.000,-4.800 -8.000,4.800 " fill="#87bb0c" fill-opacity="1.000" stroke="none" />
</g>
</svg>
</defs>
<g transform="translate(468.038 1863.855) " >
<use href="#Tool[0007].Output.Graphic.DimensionLine.Tips" transform="rotate(177.348)" />
</g>
<g transform="translate(4196.209 1691.182) " >
<use href="#Tool[0007].Output.Graphic.DimensionLine.Tips" transform="rotate(357.348)" />
</g>
<!--Tool[0007].Output.Graphic.PrimaryTarget-->
<defs >
<svg id="Tool[0007].Output.Graphic.PrimaryTarget.Edge2" overflow="visible" >
<g class="EnableCustomAttribute" custom_stroke-width="2.000" stroke="#87bb0c" stroke-width="2.000" >
<line x1="0.000" y1="-85.500" x2="0.000" y2="85.500" fill="#000000" fill-opacity="1.000" />
</g>
</svg>
</defs>
<defs >
<svg id="Tool[0007].Output.Graphic.PrimaryTarget.Edge1" overflow="visible" >
<g class="EnableCustomAttribute" custom_stroke-width="2.000" stroke="#87bb0c" stroke-width="2.000" >
<line x1="0.000" y1="-85.500" x2="0.000" y2="85.500" fill="#000000" fill-opacity="1.000" />
</g>
</svg>
</defs>
<g transform="translate(4196.209 1691.182) " >
<use href="#Tool[0007].Output.Graphic.PrimaryTarget.Edge2" transform="rotate(357.344)" />
</g>
<g transform="translate(468.038 1863.855) " >
<use href="#Tool[0007].Output.Graphic.PrimaryTarget.Edge1" transform="rotate(357.344)" />
</g>
<!--Tool[0006].Output.Graphic.Region-->
<g class="EnableCustomAttribute" custom_stroke-width="2.000" stroke="#2a56af" stroke-width="2.000" >
<rect x="1945.956" y="924.892" width="603.000" height="1601.000" fill="none" transform="rotate(447.154 2247.456 1725.392)" />
<polygon points="3046.969,1685.642 3038.969,1680.842 3038.969,1690.442 " fill="#2a56af" fill-opacity="1.000" stroke="none" transform="rotate(447.154 3046.969 1685.642)" />
</g>
<!--Tool[0006].Output.Graphic.DimensionLine-->
<g class="EnableCustomAttribute" custom_stroke-width="2.000" stroke="#87bb0c" stroke-width="2.000" >
<path d="M2242.325,1622.111 L2259.342,1964.624 " fill="none" />
</g>
<defs >
<svg id="Tool[0006].Output.Graphic.DimensionLine.Tips" overflow="visible" >
<g class="EnableCustomAttribute" custom_scale="1" >
<polygon points="0.000,0.000 -8.000,-4.800 -8.000,4.800 " fill="#87bb0c" fill-opacity="1.000" stroke="none" />
</g>
</svg>
</defs>
<g transform="translate(2242.325 1622.111) " >
<use href="#Tool[0006].Output.Graphic.DimensionLine.Tips" transform="rotate(267.156)" />
</g>
<g transform="translate(2259.342 1964.624) " >
<use href="#Tool[0006].Output.Graphic.DimensionLine.Tips" transform="rotate(87.156)" />
</g>
<!--Tool[0006].Output.Graphic.PrimaryTarget-->
<defs >
<svg id="Tool[0006].Output.Graphic.PrimaryTarget.Edge2" overflow="visible" >
<g class="EnableCustomAttribute" custom_stroke-width="2.000" stroke="#87bb0c" stroke-width="2.000" >
<line x1="0.000" y1="-802.500" x2="0.000" y2="802.500" fill="#000000" fill-opacity="1.000" />
</g>
</svg>
</defs>
<defs >
<svg id="Tool[0006].Output.Graphic.PrimaryTarget.Edge1" overflow="visible" >
<g class="EnableCustomAttribute" custom_stroke-width="2.000" stroke="#87bb0c" stroke-width="2.000" >
<line x1="0.000" y1="-802.500" x2="0.000" y2="802.500" fill="#000000" fill-opacity="1.000" />
</g>
</svg>
</defs>
<g transform="translate(2259.342 1964.624) " >
<use href="#Tool[0006].Output.Graphic.PrimaryTarget.Edge2" transform="rotate(87.154)" />
</g>
<g transform="translate(2242.325 1622.111) " >
<use href="#Tool[0006].Output.Graphic.PrimaryTarget.Edge1" transform="rotate(87.154)" />
</g>
<!--Tool[0005].Output.Graphic.Region-->
<g class="EnableCustomAttribute" custom_stroke-width="2.000" stroke="#2a56af" stroke-width="2.000" >
<path d="M652.349,1781.422 A66.000,66.000 0 0 0 652.349,1913.422 A66.000,66.000 0 0 0 652.349,1781.422 Z M652.349,1846.422 A1.000,1.000 0 0 1 652.349,1848.422 A1.000,1.000 0 0 1 652.349,1846.422 Z" fill="none" />
</g>
<!--Tool[0005].Output.Graphic.TrendEdge-->
<defs >
<svg id="Tool[0005].Output.Graphic.TrendEdge.Primary.Segment" overflow="visible" >
<g class="EnableCustomAttribute" custom_stroke-width="2.000" stroke="#87bb0c" stroke-width="2.000" >
<path d="M1.000,0.000 L66.000,0.000 A66.000,66.000 0 0 1 64.997,11.461 L0.985,0.174 A1.000,1.000 0 0 0 1.000,0.000 Z" fill="none" />
</g>
</svg>
</defs>
<g transform="translate(652.349 1847.422) " >
<use href="#Tool[0005].Output.Graphic.TrendEdge.Primary.Segment" transform="rotate(479.724)" />
</g>
<defs >
<svg id="Tool[0005].Output.Graphic.TrendEdge.Array.Profile" overflow="visible" >
<g class="EnableCustomAttribute" custom_scale="1" >
<circle cx="0.000" cy="0.000" r="2.000" fill="#ddb60e" fill-opacity="1.000" stroke="#ddb60e" stroke-opacity="1.000" stroke-width="0.600" />
</g>
</svg>
</defs>
<g transform="translate(697.052 1851.118) " >
<use href="#Tool[0005].Output.Graphic.TrendEdge.Array.Profile" transform="rotate(4.730)" />
</g>
<g transform="translate(696.234 1858.330) " >
<use href="#Tool[0005].Output.Graphic.TrendEdge.Array.Profile" transform="rotate(13.960)" />
</g>
<g transform="translate(694.145 1865.326) " >
<use href="#Tool[0005].Output.Graphic.TrendEdge.Array.Profile" transform="rotate(23.190)" />
</g>
<g transform="translate(690.387 1871.579) " >
<use href="#Tool[0005].Output.Graphic.TrendEdge.Array.Profile" transform="rotate(32.420)" />
</g>
<g transform="translate(685.565 1876.965) " >
<use href="#Tool[0005].Output.Graphic.TrendEdge.Array.Profile" transform="rotate(41.650)" />
</g>
<g transform="translate(680.087 1881.531) " >
<use href="#Tool[0005].Output.Graphic.TrendEdge.Array.Profile" transform="rotate(50.880)" />
</g>
<g transform="translate(674.037 1885.159) " >
<use href="#Tool[0005].Output.Graphic.TrendEdge.Array.Profile" transform="rotate(60.110)" />
</g>
<g transform="translate(667.738 1888.239) " >
<use href="#Tool[0005].Output.Graphic.TrendEdge.Array.Profile" transform="rotate(69.340)" />
</g>
<g transform="translate(660.915 1889.788) " >
<use href="#Tool[0005].Output.Graphic.TrendEdge.Array.Profile" transform="rotate(78.570)" />
</g>
<g transform="translate(654.029 1891.144) " >
<use href="#Tool[0005].Output.Graphic.TrendEdge.Array.Profile" transform="rotate(87.800)" />
</g>
<g transform="translate(647.066 1890.291) " >
<use href="#Tool[0005].Output.Graphic.TrendEdge.Array.Profile" transform="rotate(97.030)" />
</g>
<g transform="translate(640.260 1888.875) " >
<use href="#Tool[0005].Output.Graphic.TrendEdge.Array.Profile" transform="rotate(106.260)" />
</g>
<g transform="translate(627.359 1899.845) " >
<use href="#Tool[0005].Output.Graphic.TrendEdge.Array.Profile" transform="rotate(115.490)" />
</g>
<g transform="translate(636.493 1863.869) " >
<use href="#Tool[0005].Output.Graphic.TrendEdge.Array.Profile" transform="rotate(133.950)" />
</g>
<g transform="translate(634.884 1860.496) " >
<use href="#Tool[0005].Output.Graphic.TrendEdge.Array.Profile" transform="rotate(143.180)" />
</g>
<g transform="translate(633.876 1857.076) " >
<use href="#Tool[0005].Output.Graphic.TrendEdge.Array.Profile" transform="rotate(152.410)" />
</g>
<g transform="translate(632.673 1853.953) " >
<use href="#Tool[0005].Output.Graphic.TrendEdge.Array.Profile" transform="rotate(161.640)" />
</g>
<g transform="translate(631.388 1850.790) " >
<use href="#Tool[0005].Output.Graphic.TrendEdge.Array.Profile" transform="rotate(170.870)" />
</g>
<g transform="translate(632.154 1847.388) " >
<use href="#Tool[0005].Output.Graphic.TrendEdge.Array.Profile" transform="rotate(180.100)" />
</g>
<g transform="translate(633.174 1844.272) " >
<use href="#Tool[0005].Output.Graphic.TrendEdge.Array.Profile" transform="rotate(189.330)" />
</g>
<g transform="translate(635.189 1841.661) " >
<use href="#Tool[0005].Output.Graphic.TrendEdge.Array.Profile" transform="rotate(198.560)" />
</g>
<g transform="translate(636.789 1839.222) " >
<use href="#Tool[0005].Output.Graphic.TrendEdge.Array.Profile" transform="rotate(207.790)" />
</g>
<g transform="translate(637.235 1836.024) " >
<use href="#Tool[0005].Output.Graphic.TrendEdge.Array.Profile" transform="rotate(217.020)" />
</g>
<g transform="translate(632.382 1826.567) " >
<use href="#Tool[0005].Output.Graphic.TrendEdge.Array.Profile" transform="rotate(226.250)" />
</g>
<g transform="translate(620.284 1800.805) " >
<use href="#Tool[0005].Output.Graphic.TrendEdge.Array.Profile" transform="rotate(235.480)" />
</g>
<g transform="translate(634.092 1808.783) " >
<use href="#Tool[0005].Output.Graphic.TrendEdge.Array.Profile" transform="rotate(244.710)" />
</g>
<g transform="translate(640.447 1806.076) " >
<use href="#Tool[0005].Output.Graphic.TrendEdge.Array.Profile" transform="rotate(253.940)" />
</g>
<g transform="translate(647.048 1803.158) " >
<use href="#Tool[0005].Output.Graphic.TrendEdge.Array.Profile" transform="rotate(263.170)" />
</g>
<g transform="translate(654.229 1802.567) " >
<use href="#Tool[0005].Output.Graphic.TrendEdge.Array.Profile" transform="rotate(272.400)" />
</g>
<g transform="translate(661.246 1804.197) " >
<use href="#Tool[0005].Output.Graphic.TrendEdge.Array.Profile" transform="rotate(281.630)" />
</g>
<g transform="translate(668.398 1805.304) " >
<use href="#Tool[0005].Output.Graphic.TrendEdge.Array.Profile" transform="rotate(290.860)" />
</g>
<g transform="translate(674.183 1809.740) " >
<use href="#Tool[0005].Output.Graphic.TrendEdge.Array.Profile" transform="rotate(300.090)" />
</g>
<g transform="translate(680.126 1813.506) " >
<use href="#Tool[0005].Output.Graphic.TrendEdge.Array.Profile" transform="rotate(309.320)" />
</g>
<g transform="translate(686.037 1817.670) " >
<use href="#Tool[0005].Output.Graphic.TrendEdge.Array.Profile" transform="rotate(318.550)" />
</g>
<g transform="translate(690.552 1823.347) " >
<use href="#Tool[0005].Output.Graphic.TrendEdge.Array.Profile" transform="rotate(327.780)" />
</g>
<g transform="translate(693.743 1829.860) " >
<use href="#Tool[0005].Output.Graphic.TrendEdge.Array.Profile" transform="rotate(337.010)" />
</g>
<g transform="translate(695.809 1836.783) " >
<use href="#Tool[0005].Output.Graphic.TrendEdge.Array.Profile" transform="rotate(346.240)" />
</g>
<g transform="translate(697.131 1843.877) " >
<use href="#Tool[0005].Output.Graphic.TrendEdge.Array.Profile" transform="rotate(355.470)" />
</g>
<g transform="translate(697.090 1851.099) " >
<use href="#Tool[0005].Output.Graphic.TrendEdge.Array.Profile" transform="rotate(4.700)" />
</g>
<g class="EnableCustomAttribute" custom_stroke-width="2.000" stroke="#ddb60e" stroke-width="2.000" >
<path d="M697.052,1851.118 L696.234,1858.330 L694.145,1865.326 L690.387,1871.579 L685.565,1876.965 L680.087,1881.531 L674.037,1885.159 L667.738,1888.239 L660.915,1889.788 L654.029,1891.144 L647.066,1890.291 L640.260,1888.875 L627.359,1899.845 L617.093,1898.302 L636.493,1863.869 L634.884,1860.496 L633.876,1857.076 L632.673,1853.953 L631.388,1850.790 L632.154,1847.388 L633.174,1844.272 L635.189,1841.661 L636.789,1839.222 L637.235,1836.024 L632.382,1826.567 L620.284,1800.805 L634.092,1808.783 L640.447,1806.076 L647.048,1803.158 L654.229,1802.567 L661.246,1804.197 L668.398,1805.304 L674.183,1809.740 L680.126,1813.506 L686.037,1817.670 L690.552,1823.347 L693.743,1829.860 L695.809,1836.783 L697.131,1843.877 L697.090,1851.099 L697.052,1851.118 " fill="none" />
</g>
<defs >
<svg id="Tool[0005].Output.Graphic.TrendEdge.Primary.Profile" overflow="visible" >
<g class="EnableCustomAttribute" custom_scale="1" >
<circle cx="0.000" cy="0.000" r="2.000" fill="#87bb0c" fill-opacity="1.000" stroke="#87bb0c" stroke-opacity="1.000" stroke-width="0.600" />
</g>
</svg>
</defs>
<g transform="translate(617.093 1898.302) " >
<use href="#Tool[0005].Output.Graphic.TrendEdge.Primary.Profile" transform="rotate(124.720)" />
</g>
<defs >
<svg id="Tool[0005].Output.Graphic.TrendEdge.Primary.Target.Edge" overflow="visible" >
<g class="EnableCustomAttribute" custom_stroke-width="2.000" stroke="#87bb0c" stroke-width="2.000" >
<path d="M-28.795,54.800 A61.905,61.905 0 0 1 -41.197,46.206 M-41.197,46.206 Z" fill="none" />
</g>
</svg>
</defs>
<g transform="translate(652.349 1847.422) " >
<use href="#Tool[0005].Output.Graphic.TrendEdge.Primary.Target.Edge" transform="rotate(0.000)" />
</g>
<defs >
<svg id="Tool[0005].Output.Graphic.TrendEdge.Primary.Target.ArrowedLine" overflow="visible" >
<g class="EnableCustomAttribute" custom_stroke-width="2.000" stroke="#87bb0c" stroke-width="2.000" >
<line x1="17.628" y1="-25.440" x2="-17.628" y2="25.440" fill="#000000" fill-opacity="1.000" />
</g>
</svg>
</defs>
<g transform="translate(634.721 1872.862) " >
<use href="#Tool[0005].Output.Graphic.TrendEdge.Primary.Target.ArrowedLine" transform="rotate(0.000)" />
</g>
<defs >
<svg id="Tool[0005].Output.Graphic.TrendEdge.Primary.Target.ArrowedLine.StartTip" overflow="visible" >
<g class="EnableCustomAttribute" custom_scale="1" >
<polygon points="0.000,0.000 0.000,0.000 0.000,0.000 " fill="none" stroke="none" />
</g>
</svg>
</defs>
<g transform="translate(652.349 1847.422) " >
<use href="#Tool[0005].Output.Graphic.TrendEdge.Primary.Target.ArrowedLine.StartTip" transform="rotate(-55.281)" />
</g>
<defs >
<svg id="Tool[0005].Output.Graphic.TrendEdge.Primary.Target.ArrowedLine.EndTip" overflow="visible" >
<g class="EnableCustomAttribute" custom_scale="1" >
<polygon points="0.000,0.000 -8.000,-4.800 -8.000,4.800 " fill="#87bb0c" fill-opacity="1.000" stroke="none" />
</g>
</svg>
</defs>
<g transform="translate(617.093 1898.302) " >
<use href="#Tool[0005].Output.Graphic.TrendEdge.Primary.Target.ArrowedLine.EndTip" transform="rotate(124.719)" />
</g>
<!--Tool[0005].Output.Graphic.DetectedShape-->
<defs >
<svg id="Tool[0005].Output.Graphic.DetectedShape" overflow="visible" >
<g class="EnableCustomAttribute" custom_stroke-width="2.000" stroke="#87bb0c" stroke-width="2.000" >
<circle cx="0.000" cy="0.000" r="43.640" fill="none" />
</g>
</svg>
</defs>
<g transform="translate(653.702 1847.128) " >
<use href="#Tool[0005].Output.Graphic.DetectedShape" transform="rotate(0.000)" />
</g>
<defs >
<svg id="Tool[0005].Output.Graphic.DetectedShape.Point" overflow="visible" >
<g class="EnableCustomAttribute" custom_scale="1" >
<polygon points="-1.000,-10.000 -1.000,-1.000 -10.000,-1.000 -10.000,1.000 -1.000,1.000 -1.000,10.000 1.000,10.000 1.000,1.000 10.000,1.000 10.000,-1.000 
    1.000,-1.000 1.000,-10.000 " fill="#87bb0c" fill-opacity="1.000" stroke="none" paint-order="stroke" />
</g>
</svg>
</defs>
<g transform="translate(653.702 1847.128) " >
<use href="#Tool[0005].Output.Graphic.DetectedShape.Point" transform="rotate(0.000)" />
</g>
<!--Tool[0004].Output.Graphic.Region-->
<g class="EnableCustomAttribute" custom_stroke-width="2.000" stroke="#2a56af" stroke-width="2.000" >
<path d="M1298.513,1747.064 A66.000,66.000 0 0 0 1298.513,1879.064 A66.000,66.000 0 0 0 1298.513,1747.064 Z M1298.513,1812.064 A1.000,1.000 0 0 1 1298.513,1814.064 A1.000,1.000 0 0 1 1298.513,1812.064 Z" fill="none" />
</g>
<!--Tool[0004].Output.Graphic.TrendEdge-->
<defs >
<svg id="Tool[0004].Output.Graphic.TrendEdge.Primary.Segment" overflow="visible" >
<g class="EnableCustomAttribute" custom_stroke-width="2.000" stroke="#87bb0c" stroke-width="2.000" >
<path d="M1.000,0.000 L66.000,0.000 A66.000,66.000 0 0 1 64.997,11.461 L0.985,0.174 A1.000,1.000 0 0 0 1.000,0.000 Z" fill="none" />
</g>
</svg>
</defs>
<g transform="translate(1298.513 1813.064) " >
<use href="#Tool[0004].Output.Graphic.TrendEdge.Primary.Segment" transform="rotate(461.264)" />
</g>
<defs >
<svg id="Tool[0004].Output.Graphic.TrendEdge.Array.Profile" overflow="visible" >
<g class="EnableCustomAttribute" custom_scale="1" >
<circle cx="0.000" cy="0.000" r="2.000" fill="#ddb60e" fill-opacity="1.000" stroke="#ddb60e" stroke-opacity="1.000" stroke-width="0.600" />
</g>
</svg>
</defs>
<g transform="translate(1338.805 1816.395) " >
<use href="#Tool[0004].Output.Graphic.TrendEdge.Array.Profile" transform="rotate(4.730)" />
</g>
<g transform="translate(1338.460 1822.993) " >
<use href="#Tool[0004].Output.Graphic.TrendEdge.Array.Profile" transform="rotate(13.960)" />
</g>
<g transform="translate(1336.735 1829.436) " >
<use href="#Tool[0004].Output.Graphic.TrendEdge.Array.Profile" transform="rotate(23.190)" />
</g>
<g transform="translate(1334.444 1835.882) " >
<use href="#Tool[0004].Output.Graphic.TrendEdge.Array.Profile" transform="rotate(32.420)" />
</g>
<g transform="translate(1330.295 1841.330) " >
<use href="#Tool[0004].Output.Graphic.TrendEdge.Array.Profile" transform="rotate(41.650)" />
</g>
<g transform="translate(1325.583 1846.350) " >
<use href="#Tool[0004].Output.Graphic.TrendEdge.Array.Profile" transform="rotate(50.880)" />
</g>
<g transform="translate(1320.392 1851.131) " >
<use href="#Tool[0004].Output.Graphic.TrendEdge.Array.Profile" transform="rotate(60.110)" />
</g>
<g transform="translate(1314.237 1854.767) " >
<use href="#Tool[0004].Output.Graphic.TrendEdge.Array.Profile" transform="rotate(69.340)" />
</g>
<g transform="translate(1307.410 1857.067) " >
<use href="#Tool[0004].Output.Graphic.TrendEdge.Array.Profile" transform="rotate(78.570)" />
</g>
<g transform="translate(1300.263 1858.613) " >
<use href="#Tool[0004].Output.Graphic.TrendEdge.Array.Profile" transform="rotate(87.800)" />
</g>
<g transform="translate(1292.899 1858.622) " >
<use href="#Tool[0004].Output.Graphic.TrendEdge.Array.Profile" transform="rotate(97.030)" />
</g>
<g transform="translate(1279.062 1853.868) " >
<use href="#Tool[0004].Output.Graphic.TrendEdge.Array.Profile" transform="rotate(115.490)" />
</g>
<g transform="translate(1273.077 1849.771) " >
<use href="#Tool[0004].Output.Graphic.TrendEdge.Array.Profile" transform="rotate(124.720)" />
</g>
<g transform="translate(1267.402 1845.335) " >
<use href="#Tool[0004].Output.Graphic.TrendEdge.Array.Profile" transform="rotate(133.950)" />
</g>
<g transform="translate(1263.002 1839.645) " >
<use href="#Tool[0004].Output.Graphic.TrendEdge.Array.Profile" transform="rotate(143.180)" />
</g>
<g transform="translate(1259.510 1833.446) " >
<use href="#Tool[0004].Output.Graphic.TrendEdge.Array.Profile" transform="rotate(152.410)" />
</g>
<g transform="translate(1256.581 1826.981) " >
<use href="#Tool[0004].Output.Graphic.TrendEdge.Array.Profile" transform="rotate(161.640)" />
</g>
<g transform="translate(1254.712 1820.101) " >
<use href="#Tool[0004].Output.Graphic.TrendEdge.Array.Profile" transform="rotate(170.870)" />
</g>
<g transform="translate(1254.254 1812.988) " >
<use href="#Tool[0004].Output.Graphic.TrendEdge.Array.Profile" transform="rotate(180.100)" />
</g>
<g transform="translate(1255.571 1806.009) " >
<use href="#Tool[0004].Output.Graphic.TrendEdge.Array.Profile" transform="rotate(189.330)" />
</g>
<g transform="translate(1257.828 1799.403) " >
<use href="#Tool[0004].Output.Graphic.TrendEdge.Array.Profile" transform="rotate(198.560)" />
</g>
<g transform="translate(1260.620 1793.092) " >
<use href="#Tool[0004].Output.Graphic.TrendEdge.Array.Profile" transform="rotate(207.790)" />
</g>
<g transform="translate(1264.477 1787.395) " >
<use href="#Tool[0004].Output.Graphic.TrendEdge.Array.Profile" transform="rotate(217.020)" />
</g>
<g transform="translate(1269.216 1782.464) " >
<use href="#Tool[0004].Output.Graphic.TrendEdge.Array.Profile" transform="rotate(226.250)" />
</g>
<g transform="translate(1274.696 1778.437) " >
<use href="#Tool[0004].Output.Graphic.TrendEdge.Array.Profile" transform="rotate(235.480)" />
</g>
<g transform="translate(1280.472 1774.880) " >
<use href="#Tool[0004].Output.Graphic.TrendEdge.Array.Profile" transform="rotate(244.710)" />
</g>
<g transform="translate(1286.833 1772.488) " >
<use href="#Tool[0004].Output.Graphic.TrendEdge.Array.Profile" transform="rotate(253.940)" />
</g>
<g transform="translate(1293.510 1771.280) " >
<use href="#Tool[0004].Output.Graphic.TrendEdge.Array.Profile" transform="rotate(263.170)" />
</g>
<g transform="translate(1300.265 1771.263) " >
<use href="#Tool[0004].Output.Graphic.TrendEdge.Array.Profile" transform="rotate(272.400)" />
</g>
<g transform="translate(1306.693 1773.322) " >
<use href="#Tool[0004].Output.Graphic.TrendEdge.Array.Profile" transform="rotate(281.630)" />
</g>
<g transform="translate(1312.895 1775.322) " >
<use href="#Tool[0004].Output.Graphic.TrendEdge.Array.Profile" transform="rotate(290.860)" />
</g>
<g transform="translate(1318.581 1778.430) " >
<use href="#Tool[0004].Output.Graphic.TrendEdge.Array.Profile" transform="rotate(300.090)" />
</g>
<g transform="translate(1323.798 1782.192) " >
<use href="#Tool[0004].Output.Graphic.TrendEdge.Array.Profile" transform="rotate(309.320)" />
</g>
<g transform="translate(1328.576 1786.514) " >
<use href="#Tool[0004].Output.Graphic.TrendEdge.Array.Profile" transform="rotate(318.550)" />
</g>
<g transform="translate(1332.587 1791.591) " >
<use href="#Tool[0004].Output.Graphic.TrendEdge.Array.Profile" transform="rotate(327.780)" />
</g>
<g transform="translate(1335.317 1797.448) " >
<use href="#Tool[0004].Output.Graphic.TrendEdge.Array.Profile" transform="rotate(337.010)" />
</g>
<g transform="translate(1337.000 1803.642) " >
<use href="#Tool[0004].Output.Graphic.TrendEdge.Array.Profile" transform="rotate(346.240)" />
</g>
<g transform="translate(1338.917 1809.865) " >
<use href="#Tool[0004].Output.Graphic.TrendEdge.Array.Profile" transform="rotate(355.470)" />
</g>
<g transform="translate(1338.833 1816.377) " >
<use href="#Tool[0004].Output.Graphic.TrendEdge.Array.Profile" transform="rotate(4.700)" />
</g>
<g class="EnableCustomAttribute" custom_stroke-width="2.000" stroke="#ddb60e" stroke-width="2.000" >
<path d="M1338.805,1816.395 L1338.460,1822.993 L1336.735,1829.436 L1334.444,1835.882 L1330.295,1841.330 L1325.583,1846.350 L1320.392,1851.131 L1314.237,1854.767 L1307.410,1857.067 L1300.263,1858.613 L1292.899,1858.622 L1285.655,1857.156 L1279.062,1853.868 L1273.077,1849.771 L1267.402,1845.335 L1263.002,1839.645 L1259.510,1833.446 L1256.581,1826.981 L1254.712,1820.101 L1254.254,1812.988 L1255.571,1806.009 L1257.828,1799.403 L1260.620,1793.092 L1264.477,1787.395 L1269.216,1782.464 L1274.696,1778.437 L1280.472,1774.880 L1286.833,1772.488 L1293.510,1771.280 L1300.265,1771.263 L1306.693,1773.322 L1312.895,1775.322 L1318.581,1778.430 L1323.798,1782.192 L1328.576,1786.514 L1332.587,1791.591 L1335.317,1797.448 L1337.000,1803.642 L1338.917,1809.865 L1338.833,1816.377 L1338.805,1816.395 " fill="none" />
</g>
<defs >
<svg id="Tool[0004].Output.Graphic.TrendEdge.Primary.Profile" overflow="visible" >
<g class="EnableCustomAttribute" custom_scale="1" >
<circle cx="0.000" cy="0.000" r="2.000" fill="#87bb0c" fill-opacity="1.000" stroke="#87bb0c" stroke-opacity="1.000" stroke-width="0.600" />
</g>
</svg>
</defs>
<g transform="translate(1285.655 1857.156) " >
<use href="#Tool[0004].Output.Graphic.TrendEdge.Primary.Profile" transform="rotate(106.260)" />
</g>
<defs >
<svg id="Tool[0004].Output.Graphic.TrendEdge.Primary.Target.Edge" overflow="visible" >
<g class="EnableCustomAttribute" custom_stroke-width="2.000" stroke="#87bb0c" stroke-width="2.000" >
<path d="M-7.391,45.330 A45.929,45.929 0 0 1 -18.137,42.196 M-18.137,42.196 Z" fill="none" />
</g>
</svg>
</defs>
<g transform="translate(1298.513 1813.064) " >
<use href="#Tool[0004].Output.Graphic.TrendEdge.Primary.Target.Edge" transform="rotate(0.000)" />
</g>
<defs >
<svg id="Tool[0004].Output.Graphic.TrendEdge.Primary.Target.ArrowedLine" overflow="visible" >
<g class="EnableCustomAttribute" custom_stroke-width="2.000" stroke="#87bb0c" stroke-width="2.000" >
<line x1="6.429" y1="-22.046" x2="-6.429" y2="22.046" fill="#000000" fill-opacity="1.000" />
</g>
</svg>
</defs>
<g transform="translate(1292.084 1835.110) " >
<use href="#Tool[0004].Output.Graphic.TrendEdge.Primary.Target.ArrowedLine" transform="rotate(0.000)" />
</g>
<defs >
<svg id="Tool[0004].Output.Graphic.TrendEdge.Primary.Target.ArrowedLine.StartTip" overflow="visible" >
<g class="EnableCustomAttribute" custom_scale="1" >
<polygon points="0.000,0.000 0.000,0.000 0.000,0.000 " fill="none" stroke="none" />
</g>
</svg>
</defs>
<g transform="translate(1298.513 1813.064) " >
<use href="#Tool[0004].Output.Graphic.TrendEdge.Primary.Target.ArrowedLine.StartTip" transform="rotate(-73.742)" />
</g>
<defs >
<svg id="Tool[0004].Output.Graphic.TrendEdge.Primary.Target.ArrowedLine.EndTip" overflow="visible" >
<g class="EnableCustomAttribute" custom_scale="1" >
<polygon points="0.000,0.000 -8.000,-4.800 -8.000,4.800 " fill="#87bb0c" fill-opacity="1.000" stroke="none" />
</g>
</svg>
</defs>
<g transform="translate(1285.655 1857.156) " >
<use href="#Tool[0004].Output.Graphic.TrendEdge.Primary.Target.ArrowedLine.EndTip" transform="rotate(106.258)" />
</g>
<!--Tool[0004].Output.Graphic.DetectedShape-->
<defs >
<svg id="Tool[0004].Output.Graphic.DetectedShape" overflow="visible" >
<g class="EnableCustomAttribute" custom_stroke-width="2.000" stroke="#87bb0c" stroke-width="2.000" >
<circle cx="0.000" cy="0.000" r="42.502" fill="none" />
</g>
</svg>
</defs>
<g transform="translate(1296.877 1814.868) " >
<use href="#Tool[0004].Output.Graphic.DetectedShape" transform="rotate(0.000)" />
</g>
<defs >
<svg id="Tool[0004].Output.Graphic.DetectedShape.Point" overflow="visible" >
<g class="EnableCustomAttribute" custom_scale="1" >
<polygon points="-1.000,-10.000 -1.000,-1.000 -10.000,-1.000 -10.000,1.000 -1.000,1.000 -1.000,10.000 1.000,10.000 1.000,1.000 10.000,1.000 10.000,-1.000 
    1.000,-1.000 1.000,-10.000 " fill="#87bb0c" fill-opacity="1.000" stroke="none" paint-order="stroke" />
</g>
</svg>
</defs>
<g transform="translate(1296.877 1814.868) " >
<use href="#Tool[0004].Output.Graphic.DetectedShape.Point" transform="rotate(0.000)" />
</g>
<!--Tool[0002].Output.Graphic.Region-->
<g class="EnableCustomAttribute" custom_stroke-width="2.000" stroke="#2a56af" stroke-width="2.000" >
<rect x="47.000" y="415.000" width="4301.000" height="2249.000" fill="none" />
<polygon points="2197.500,415.000 2189.500,410.200 2189.500,419.800 " fill="#2a56af" fill-opacity="1.000" stroke="none" />
</g>
<!--Tool[0002].Output.Graphic.ArrayTarget-->
<defs >
<svg id="Tool[0002].Output.Graphic.ArrayTarget.OtherGraphics" overflow="visible" >
<g class="EnableCustomAttribute" custom_stroke-width="1.000" stroke="#ddb60e" stroke-width="1.000" >
<g class="EnableCustomAttribute" custom_stroke-width="2.000" stroke="#ddb60e" stroke-width="2.000" >
<path stroke-linecap="square" d="M-649.635,-145.865 L911.365,-214.865 M-395.635,172.135 L-1334.635,216.135 M1703.365,66.135 L764.365,108.135 M-1747.635,218.135 L-1068.635,185.135 M-1062.635,185.135 L-399.635,155.135 M758.365,107.135 L164.365,136.135 M-1079.635,-124.865 L-655.635,-144.865 M1443.365,-238.865 L1866.365,-254.865 M-1339.635,216.135 L-1736.635,235.135 M-1464.635,-106.865 L-1164.635,-119.865 M1086.365,-221.865 L1363.365,-235.865 M-129.635,158.135 L-389.635,174.135 M-242.635,-147.865 L-479.635,-137.865 M-938.635,61.135 L-712.635,52.135 M-638.635,49.135 L-412.635,39.135 M-259.635,30.135 L-83.635,25.135 M916.365,-216.865 L1081.365,-223.865 M113.365,137.135 L-50.635,143.135 M255.365,8.135 L402.365,7.135 M-1645.635,-98.865 L-1504.635,-103.865 M-1775.635,63.135 L-1782.635,-67.865 M-27.635,21.135 L102.365,17.135 M-1770.635,187.135 L-1777.635,68.135 M-112.635,-153.865 L-225.635,-147.865 M11.365,-161.865 L-95.635,-153.865 M-497.635,-136.865 L-598.635,-130.865 M-1761.635,7.135 L-1759.635,91.135 M1875.365,-231.865 L1881.365,-157.865 M-1158.635,-122.865 L-1085.635,-124.865 M1369.365,-232.865 L1437.365,-238.865 M-73.635,157.135 L-123.635,160.135 M-690.099,52.910 A118.000,118.000 0 0 1 -645.404,47.422 M1114.967,-39.578 A40.000,40.000 0 0 1 1071.422,-41.099 M-78.635,22.135 L-33.635,21.135 M-1764.635,-88.865 L-1719.635,-87.865 M-1009.503,36.912 A64.000,64.000 0 0 1 -1008.384,-5.801 M-1755.635,96.135 L-1755.635,136.135 M159.365,137.135 L119.365,135.135 M176.923,13.562 A73.000,73.000 0 0 1 142.945,16.236 M-331.765,32.731 A110.000,110.000 0 0 1 -366.133,34.532 M181.365,13.135 L215.365,11.135 M-406.635,38.135 L-372.635,34.135 M-33.635,151.135 L-67.635,154.135 M-939.634,-9.102 A49.000,49.000 0 0 1 -933.112,22.954 M-1747.902,246.361 A46.000,46.000 0 0 1 -1778.611,246.629 M-952.635,54.135 L-934.635,29.135 M-1713.635,-87.865 L-1685.635,-92.865 M221.365,14.135 L249.365,9.135 M1068.996,-43.918 A39.000,39.000 0 0 1 1053.217,-67.756 M-1679.635,-95.865 L-1651.635,-99.865 M-1498.635,-101.865 L-1470.635,-104.865 M-293.635,33.135 L-265.635,30.135 M107.365,15.135 L136.365,16.135 M-327.635,33.135 L-299.635,34.135 M-1770.635,221.135 L-1770.635,193.135 M-983.635,59.135 L-955.635,56.135 M1906.700,84.478 A40.000,40.000 0 0 1 1879.342,84.956 M-1781.416,-76.940 A10.000,10.000 0 0 1 -1790.621,-92.883 M-989.135,56.302 A51.000,51.000 0 0 1 -1005.916,40.654 M-984.282,-26.509 A35.000,35.000 0 0 1 -962.092,-25.540 M-990.635,-24.865 L-1005.635,-10.865 M-1741.764,233.660 A16.000,16.000 0 0 1 -1759.054,226.849 M1117.365,-41.865 L1130.365,-56.865 M1883.688,-134.127 A72.000,72.000 0 0 1 1882.464,-151.633 M-942.635,-11.865 L-954.635,-23.865 M-1786.635,-95.865 L-1770.635,-94.865 M1889.474,69.957 A18.000,18.000 0 0 1 1905.256,69.957 M1873.365,-257.865 L1888.365,-257.865 M1131.365,-61.865 L1132.365,-72.865 M-1779.635,233.135 L-1770.635,230.135 M1890.365,-254.865 L1893.365,-248.865 M1907.365,74.135 L1907.365,80.135 M1879.365,-239.865 L1875.365,-235.865 M-706.635,52.135 L-700.635,53.135 M1890.365,-242.865 L1885.365,-240.865 M-1762.635,-3.865 L-1762.635,1.135 M-1780.635,243.135 L-1780.635,238.135 " fill="none" />
</g>
<g class="EnableCustomAttribute" custom_stroke-width="1.000" stroke="#ddb60e" stroke-width="1.000" >
<rect x="-2034.500" y="-314.500" width="4069.000" height="629.000" fill="none" transform="rotate(358.300 0.000 0.000)" />
<polygon points="-9.330,-314.362 -13.330,-316.762 -13.330,-311.962 " fill="#ddb60e" fill-opacity="1.000" stroke="none" transform="rotate(358.300 -9.330 -314.362)" />
</g>
</g>
</svg>
</defs>
<defs >
<svg id="Tool[0002].Output.Graphic.ArrayTarget" overflow="visible" >
<g class="EnableCustomAttribute" custom_scale="1" >
<polygon points="-0.500,-0.500 -0.500,4.000 -2.400,4.000 0.000,8.000 2.400,4.000 0.500,4.000 0.500,0.500 4.000,0.500 4.000,2.400 8.000,0.000 
    4.000,-2.400 4.000,-0.500 " fill="#ddb60e" fill-opacity="1.000" stroke="#000000" stroke-opacity="1.000" stroke-width="2.000" paint-order="stroke" />
</g>
</svg>
</defs>
<defs >
<path id="Tool[0002].Output.Graphic.ArrayTarget0" class="EnableCustomAttribute" custom_scale="1" custom_offset_x="2.500" custom_offset_y="-2.500" d="M 2.500 -2.500 h 1000" />
</defs>
<g class="EnableCustomAttribute" custom_fontsize="12" font-size="12" font-weight="bold" custom_stroke-width="2" stroke-width="2" fill="#ddb60e" stroke="#000000" paint-order="stroke" >
</g>
<!--Tool[0002].Output.Graphic.PrimaryTarget-->
<defs >
<svg id="Tool[0002].Output.Graphic.PrimaryTarget.OtherGraphics" overflow="visible" >
<g class="EnableCustomAttribute" custom_stroke-width="2.000" stroke="#87bb0c" stroke-width="2.000" >
<g class="EnableCustomAttribute" custom_stroke-width="2.000" stroke="#87bb0c" stroke-width="2.000" >
<path stroke-linecap="square" d="M-649.635,-145.865 L911.365,-214.865 M-395.635,172.135 L-1334.635,216.135 M1703.365,66.135 L764.365,108.135 M-1747.635,218.135 L-1068.635,185.135 M-1062.635,185.135 L-399.635,155.135 M758.365,107.135 L164.365,136.135 M-1079.635,-124.865 L-655.635,-144.865 M1443.365,-238.865 L1866.365,-254.865 M-1339.635,216.135 L-1736.635,235.135 M-1464.635,-106.865 L-1164.635,-119.865 M1086.365,-221.865 L1363.365,-235.865 M-129.635,158.135 L-389.635,174.135 M-242.635,-147.865 L-479.635,-137.865 M-938.635,61.135 L-712.635,52.135 M-638.635,49.135 L-412.635,39.135 M-259.635,30.135 L-83.635,25.135 M916.365,-216.865 L1081.365,-223.865 M113.365,137.135 L-50.635,143.135 M255.365,8.135 L402.365,7.135 M-1645.635,-98.865 L-1504.635,-103.865 M-1775.635,63.135 L-1782.635,-67.865 M-27.635,21.135 L102.365,17.135 M-1770.635,187.135 L-1777.635,68.135 M-112.635,-153.865 L-225.635,-147.865 M11.365,-161.865 L-95.635,-153.865 M-497.635,-136.865 L-598.635,-130.865 M-1761.635,7.135 L-1759.635,91.135 M1875.365,-231.865 L1881.365,-157.865 M-1158.635,-122.865 L-1085.635,-124.865 M1369.365,-232.865 L1437.365,-238.865 M-73.635,157.135 L-123.635,160.135 M-690.099,52.910 A118.000,118.000 0 0 1 -645.404,47.422 M1114.967,-39.578 A40.000,40.000 0 0 1 1071.422,-41.099 M-78.635,22.135 L-33.635,21.135 M-1764.635,-88.865 L-1719.635,-87.865 M-1009.503,36.912 A64.000,64.000 0 0 1 -1008.384,-5.801 M-1755.635,96.135 L-1755.635,136.135 M159.365,137.135 L119.365,135.135 M176.923,13.562 A73.000,73.000 0 0 1 142.945,16.236 M-331.765,32.731 A110.000,110.000 0 0 1 -366.133,34.532 M181.365,13.135 L215.365,11.135 M-406.635,38.135 L-372.635,34.135 M-33.635,151.135 L-67.635,154.135 M-939.634,-9.102 A49.000,49.000 0 0 1 -933.112,22.954 M-1747.902,246.361 A46.000,46.000 0 0 1 -1778.611,246.629 M-952.635,54.135 L-934.635,29.135 M-1713.635,-87.865 L-1685.635,-92.865 M221.365,14.135 L249.365,9.135 M1068.996,-43.918 A39.000,39.000 0 0 1 1053.217,-67.756 M-1679.635,-95.865 L-1651.635,-99.865 M-1498.635,-101.865 L-1470.635,-104.865 M-293.635,33.135 L-265.635,30.135 M107.365,15.135 L136.365,16.135 M-327.635,33.135 L-299.635,34.135 M-1770.635,221.135 L-1770.635,193.135 M-983.635,59.135 L-955.635,56.135 M1906.700,84.478 A40.000,40.000 0 0 1 1879.342,84.956 M-1781.416,-76.940 A10.000,10.000 0 0 1 -1790.621,-92.883 M-989.135,56.302 A51.000,51.000 0 0 1 -1005.916,40.654 M-984.282,-26.509 A35.000,35.000 0 0 1 -962.092,-25.540 M-990.635,-24.865 L-1005.635,-10.865 M-1741.764,233.660 A16.000,16.000 0 0 1 -1759.054,226.849 M1117.365,-41.865 L1130.365,-56.865 M1883.688,-134.127 A72.000,72.000 0 0 1 1882.464,-151.633 M-942.635,-11.865 L-954.635,-23.865 M-1786.635,-95.865 L-1770.635,-94.865 M1889.474,69.957 A18.000,18.000 0 0 1 1905.256,69.957 M1873.365,-257.865 L1888.365,-257.865 M1131.365,-61.865 L1132.365,-72.865 M-1779.635,233.135 L-1770.635,230.135 M1890.365,-254.865 L1893.365,-248.865 M1907.365,74.135 L1907.365,80.135 M1879.365,-239.865 L1875.365,-235.865 M-706.635,52.135 L-700.635,53.135 M1890.365,-242.865 L1885.365,-240.865 M-1762.635,-3.865 L-1762.635,1.135 M-1780.635,243.135 L-1780.635,238.135 " fill="none" />
</g>
<g class="EnableCustomAttribute" custom_stroke-width="2.000" stroke="#87bb0c" stroke-width="2.000" >
<rect x="-2034.500" y="-314.500" width="4069.000" height="629.000" fill="none" transform="rotate(358.300 0.000 0.000)" />
<polygon points="-9.330,-314.362 -17.330,-319.162 -17.330,-309.562 " fill="#87bb0c" fill-opacity="1.000" stroke="none" transform="rotate(358.300 -9.330 -314.362)" />
</g>
</g>
</svg>
</defs>
<defs >
<svg id="Tool[0002].Output.Graphic.PrimaryTarget" overflow="visible" >
<g class="EnableCustomAttribute" custom_scale="1" >
<polygon points="-1.000,-1.000 -1.000,4.000 -2.400,4.000 0.000,8.000 2.400,4.000 1.000,4.000 1.000,1.000 4.000,1.000 4.000,2.400 8.000,0.000 
    4.000,-2.400 4.000,-1.000 " fill="#87bb0c" fill-opacity="1.000" stroke="#000000" stroke-opacity="1.000" stroke-width="2.000" paint-order="stroke" />
</g>
</svg>
</defs>
<defs >
<path id="Tool[0002].Output.Graphic.PrimaryTarget0" class="EnableCustomAttribute" custom_scale="1" custom_offset_x="3.000" custom_offset_y="-3.000" d="M 3.000 -3.000 h 1000" />
</defs>
<g transform="translate(2250.400 1796.251) " >
<use href="#Tool[0002].Output.Graphic.PrimaryTarget.OtherGraphics" transform="rotate(-0.266)" />
</g>
<g transform="translate(2250.400 1796.251) " >
<use href="#Tool[0002].Output.Graphic.PrimaryTarget" transform="rotate(-0.266)" />
</g>
<g class="EnableCustomAttribute" custom_fontsize="12" font-size="12" font-weight="bold" custom_stroke-width="2" stroke-width="2" fill="#87bb0c" stroke="#000000" paint-order="stroke" >
<g transform="translate(2250.400 1796.251) " >
<text style="white-space:pre" >
<textPath href="#Tool[0002].Output.Graphic.PrimaryTarget0" >72.0</textPath>
</text>
</g>
</g>
<!--Tool[0001].Output.Graphic.Region-->
<g class="EnableCustomAttribute" custom_stroke-width="2.000" stroke="#2a56af" stroke-width="2.000" >
<rect x="92.000" y="19.000" width="4251.000" height="2660.000" fill="none" />
<polygon points="2217.500,19.000 2209.500,14.200 2209.500,23.800 " fill="#2a56af" fill-opacity="1.000" stroke="none" />
</g>
<!--Tool[0001].Output.Graphic.Result-->
<defs >
<path id="Tool[0001].Output.Graphic.ResultSymbol00" class="EnableCustomAttribute" custom_scale="1" custom_offset_x="3.000" custom_offset_y="-3.000" d="M 3.000 -3.000 h 1000" />
</defs>
<g class="EnableCustomAttribute" custom_fontsize="40" font-size="40" font-weight="bold" custom_stroke-width="2" stroke-width="2" fill="#1da57b" stroke="#000000" paint-order="stroke" >
<g transform="translate(92.000 2679.000) " >
<text style="white-space:pre" >
<textPath href="#Tool[0001].Output.Graphic.ResultSymbol00" >■</textPath>
</text>
</g>
</g>
<defs >
<path id="Tool[0001].Output.Graphic.ResultSymbol00" class="EnableCustomAttribute" custom_scale="1" custom_offset_x="3.000" custom_offset_y="-3.000" d="M 3.000 -3.000 h 1000" />
</defs>
<g class="EnableCustomAttribute" custom_fontsize="40" font-size="40" font-weight="bold" custom_stroke-width="2" stroke-width="2" fill="#ffffff" stroke="#000000" paint-order="stroke" >
<g transform="translate(92.000 2679.000) " >
<text style="white-space:pre" >
<textPath href="#Tool[0001].Output.Graphic.ResultSymbol00" >　Front  61%</textPath>
</text>
</g>
</g>
</svg>
