<svg graphicVer="2" x="-999999" y="-999999" width="4400" height="3296" overflow="visible" preserveAspectRatio="xMidYMid" xml:space="default" xmlns="http://www.w3.org/2000/svg" xmlns:xlink="http://www.w3.org/1999/xlink" xmlns:xml="http://www.w3.org/XML/1998/namespace" version="1.1" >
<image x="0" y="0" width="4400" height="3296" xlink:href="20260423_085551852_0000000025_T0000_01_CAM.bmp" />
<!--Tool[0007].Output.Graphic.Region-->
<g class="EnableCustomAttribute" custom_stroke-width="2.000" stroke="#2a56af" stroke-width="2.000" >
<rect x="424.578" y="1689.340" width="3916.000" height="167.000" fill="none" transform="rotate(717.217 2382.578 1772.840)" />
<polygon points="2378.525,1689.439 2370.525,1684.639 2370.525,1694.239 " fill="#2a56af" fill-opacity="1.000" stroke="none" transform="rotate(717.217 2378.525 1689.439)" />
</g>
<!--Tool[0007].Output.Graphic.DimensionLine-->
<g class="EnableCustomAttribute" custom_stroke-width="2.000" stroke="#87bb0c" stroke-width="2.000" >
<path d="M468.232,1865.838 L4197.972,1684.650 " fill="none" />
</g>
<defs >
<svg id="Tool[0007].Output.Graphic.DimensionLine.Tips" overflow="visible" >
<g class="EnableCustomAttribute" custom_scale="1" >
<polygon points="0.000,0.000 -8.000,-4.800 -8.000,4.800 " fill="#87bb0c" fill-opacity="1.000" stroke="none" />
</g>
</svg>
</defs>
<g transform="translate(468.232 1865.838) " >
<use href="#Tool[0007].Output.Graphic.DimensionLine.Tips" transform="rotate(177.219)" />
</g>
<g transform="translate(4197.972 1684.650) " >
<use href="#Tool[0007].Output.Graphic.DimensionLine.Tips" transform="rotate(357.219)" />
</g>
<!--Tool[0007].Output.Graphic.PrimaryTarget-->
<defs >
<svg id="Tool[0007].Output.Graphic.PrimaryTarget.Edge2" overflow="visible" >
<g class="EnableCustomAttribute" custom_stroke-width="2.000" stroke="#87bb0c" stroke-width="2.000" >
<line x1="0.000" y1="-85.500" x2="0.000" y2="85.500" fill="#000000" fill-opacity="1.000" />
</g>
</svg>
</defs>
<defs >
<svg id="Tool[0007].Output.Graphic.PrimaryTarget.Edge1" overflow="visible" >
<g class="EnableCustomAttribute" custom_stroke-width="2.000" stroke="#87bb0c" stroke-width="2.000" >
<line x1="0.000" y1="-85.500" x2="0.000" y2="85.500" fill="#000000" fill-opacity="1.000" />
</g>
</svg>
</defs>
<g transform="translate(4197.972 1684.650) " >
<use href="#Tool[0007].Output.Graphic.PrimaryTarget.Edge2" transform="rotate(357.217)" />
</g>
<g transform="translate(468.232 1865.838) " >
<use href="#Tool[0007].Output.Graphic.PrimaryTarget.Edge1" transform="rotate(357.217)" />
</g>
<!--Tool[0006].Output.Graphic.Region-->
<g class="EnableCustomAttribute" custom_stroke-width="2.000" stroke="#2a56af" stroke-width="2.000" >
<rect x="1943.411" y="922.966" width="603.000" height="1601.000" fill="none" transform="rotate(447.027 2244.911 1723.466)" />
<polygon points="3044.334,1681.954 3036.334,1677.154 3036.334,1686.754 " fill="#2a56af" fill-opacity="1.000" stroke="none" transform="rotate(447.027 3044.334 1681.954)" />
</g>
<!--Tool[0006].Output.Graphic.DimensionLine-->
<g class="EnableCustomAttribute" custom_stroke-width="2.000" stroke="#87bb0c" stroke-width="2.000" >
<path d="M2239.630,1621.693 L2257.410,1964.360 " fill="none" />
</g>
<defs >
<svg id="Tool[0006].Output.Graphic.DimensionLine.Tips" overflow="visible" >
<g class="EnableCustomAttribute" custom_scale="1" >
<polygon points="0.000,0.000 -8.000,-4.800 -8.000,4.800 " fill="#87bb0c" fill-opacity="1.000" stroke="none" />
</g>
</svg>
</defs>
<g transform="translate(2239.630 1621.693) " >
<use href="#Tool[0006].Output.Graphic.DimensionLine.Tips" transform="rotate(267.030)" />
</g>
<g transform="translate(2257.410 1964.360) " >
<use href="#Tool[0006].Output.Graphic.DimensionLine.Tips" transform="rotate(87.030)" />
</g>
<!--Tool[0006].Output.Graphic.PrimaryTarget-->
<defs >
<svg id="Tool[0006].Output.Graphic.PrimaryTarget.Edge2" overflow="visible" >
<g class="EnableCustomAttribute" custom_stroke-width="2.000" stroke="#87bb0c" stroke-width="2.000" >
<line x1="0.000" y1="-802.500" x2="0.000" y2="802.500" fill="#000000" fill-opacity="1.000" />
</g>
</svg>
</defs>
<defs >
<svg id="Tool[0006].Output.Graphic.PrimaryTarget.Edge1" overflow="visible" >
<g class="EnableCustomAttribute" custom_stroke-width="2.000" stroke="#87bb0c" stroke-width="2.000" >
<line x1="0.000" y1="-802.500" x2="0.000" y2="802.500" fill="#000000" fill-opacity="1.000" />
</g>
</svg>
</defs>
<g transform="translate(2257.410 1964.360) " >
<use href="#Tool[0006].Output.Graphic.PrimaryTarget.Edge2" transform="rotate(87.027)" />
</g>
<g transform="translate(2239.630 1621.693) " >
<use href="#Tool[0006].Output.Graphic.PrimaryTarget.Edge1" transform="rotate(87.027)" />
</g>
<!--Tool[0005].Output.Graphic.Region-->
<g class="EnableCustomAttribute" custom_stroke-width="2.000" stroke="#2a56af" stroke-width="2.000" >
<path d="M650.077,1783.015 A66.000,66.000 0 0 0 650.077,1915.015 A66.000,66.000 0 0 0 650.077,1783.015 Z M650.077,1848.015 A1.000,1.000 0 0 1 650.077,1850.015 A1.000,1.000 0 0 1 650.077,1848.015 Z" fill="none" />
</g>
<!--Tool[0005].Output.Graphic.TrendEdge-->
<defs >
<svg id="Tool[0005].Output.Graphic.TrendEdge.Primary.Segment" overflow="visible" >
<g class="EnableCustomAttribute" custom_stroke-width="2.000" stroke="#87bb0c" stroke-width="2.000" >
<path d="M1.000,0.000 L66.000,0.000 A66.000,66.000 0 0 1 64.997,11.461 L0.985,0.174 A1.000,1.000 0 0 0 1.000,0.000 Z" fill="none" />
</g>
</svg>
</defs>
<g transform="translate(650.077 1849.015) " >
<use href="#Tool[0005].Output.Graphic.TrendEdge.Primary.Segment" transform="rotate(479.597)" />
</g>
<defs >
<svg id="Tool[0005].Output.Graphic.TrendEdge.Array.Profile" overflow="visible" >
<g class="EnableCustomAttribute" custom_scale="1" >
<circle cx="0.000" cy="0.000" r="2.000" fill="#ddb60e" fill-opacity="1.000" stroke="#ddb60e" stroke-opacity="1.000" stroke-width="0.600" />
</g>
</svg>
</defs>
<g transform="translate(697.015 1852.800) " >
<use href="#Tool[0005].Output.Graphic.TrendEdge.Array.Profile" transform="rotate(4.610)" />
</g>
<g transform="translate(695.976 1860.323) " >
<use href="#Tool[0005].Output.Graphic.TrendEdge.Array.Profile" transform="rotate(13.840)" />
</g>
<g transform="translate(693.277 1867.411) " >
<use href="#Tool[0005].Output.Graphic.TrendEdge.Array.Profile" transform="rotate(23.070)" />
</g>
<g transform="translate(688.904 1873.558) " >
<use href="#Tool[0005].Output.Graphic.TrendEdge.Array.Profile" transform="rotate(32.300)" />
</g>
<g transform="translate(683.694 1878.787) " >
<use href="#Tool[0005].Output.Graphic.TrendEdge.Array.Profile" transform="rotate(41.530)" />
</g>
<g transform="translate(677.968 1883.164) " >
<use href="#Tool[0005].Output.Graphic.TrendEdge.Array.Profile" transform="rotate(50.760)" />
</g>
<g transform="translate(671.616 1886.309) " >
<use href="#Tool[0005].Output.Graphic.TrendEdge.Array.Profile" transform="rotate(59.990)" />
</g>
<g transform="translate(665.231 1888.955) " >
<use href="#Tool[0005].Output.Graphic.TrendEdge.Array.Profile" transform="rotate(69.220)" />
</g>
<g transform="translate(658.465 1890.067) " >
<use href="#Tool[0005].Output.Graphic.TrendEdge.Array.Profile" transform="rotate(78.450)" />
</g>
<g transform="translate(651.757 1890.561) " >
<use href="#Tool[0005].Output.Graphic.TrendEdge.Array.Profile" transform="rotate(87.680)" />
</g>
<g transform="translate(645.118 1889.953) " >
<use href="#Tool[0005].Output.Graphic.TrendEdge.Array.Profile" transform="rotate(96.910)" />
</g>
<g transform="translate(638.692 1888.358) " >
<use href="#Tool[0005].Output.Graphic.TrendEdge.Array.Profile" transform="rotate(106.140)" />
</g>
<g transform="translate(626.176 1899.426) " >
<use href="#Tool[0005].Output.Graphic.TrendEdge.Array.Profile" transform="rotate(115.370)" />
</g>
<g transform="translate(636.281 1863.386) " >
<use href="#Tool[0005].Output.Graphic.TrendEdge.Array.Profile" transform="rotate(133.830)" />
</g>
<g transform="translate(634.903 1860.424) " >
<use href="#Tool[0005].Output.Graphic.TrendEdge.Array.Profile" transform="rotate(143.060)" />
</g>
<g transform="translate(633.694 1857.619) " >
<use href="#Tool[0005].Output.Graphic.TrendEdge.Array.Profile" transform="rotate(152.290)" />
</g>
<g transform="translate(633.103 1854.686) " >
<use href="#Tool[0005].Output.Graphic.TrendEdge.Array.Profile" transform="rotate(161.520)" />
</g>
<g transform="translate(632.013 1851.957) " >
<use href="#Tool[0005].Output.Graphic.TrendEdge.Array.Profile" transform="rotate(170.750)" />
</g>
<g transform="translate(631.753 1849.022) " >
<use href="#Tool[0005].Output.Graphic.TrendEdge.Array.Profile" transform="rotate(179.980)" />
</g>
<g transform="translate(632.543 1846.174) " >
<use href="#Tool[0005].Output.Graphic.TrendEdge.Array.Profile" transform="rotate(189.210)" />
</g>
<g transform="translate(633.587 1843.518) " >
<use href="#Tool[0005].Output.Graphic.TrendEdge.Array.Profile" transform="rotate(198.440)" />
</g>
<g transform="translate(635.661 1841.457) " >
<use href="#Tool[0005].Output.Graphic.TrendEdge.Array.Profile" transform="rotate(207.670)" />
</g>
<g transform="translate(637.353 1839.462) " >
<use href="#Tool[0005].Output.Graphic.TrendEdge.Array.Profile" transform="rotate(216.900)" />
</g>
<g transform="translate(631.854 1830.059) " >
<use href="#Tool[0005].Output.Graphic.TrendEdge.Array.Profile" transform="rotate(226.130)" />
</g>
<g transform="translate(615.660 1799.193) " >
<use href="#Tool[0005].Output.Graphic.TrendEdge.Array.Profile" transform="rotate(235.360)" />
</g>
<g transform="translate(626.720 1799.840) " >
<use href="#Tool[0005].Output.Graphic.TrendEdge.Array.Profile" transform="rotate(244.590)" />
</g>
<g transform="translate(637.932 1807.155) " >
<use href="#Tool[0005].Output.Graphic.TrendEdge.Array.Profile" transform="rotate(253.820)" />
</g>
<g transform="translate(644.647 1804.462) " >
<use href="#Tool[0005].Output.Graphic.TrendEdge.Array.Profile" transform="rotate(263.050)" />
</g>
<g transform="translate(651.924 1802.569) " >
<use href="#Tool[0005].Output.Graphic.TrendEdge.Array.Profile" transform="rotate(272.280)" />
</g>
<g transform="translate(659.291 1803.764) " >
<use href="#Tool[0005].Output.Graphic.TrendEdge.Array.Profile" transform="rotate(281.510)" />
</g>
<g transform="translate(666.778 1804.909) " >
<use href="#Tool[0005].Output.Graphic.TrendEdge.Array.Profile" transform="rotate(290.740)" />
</g>
<g transform="translate(673.300 1808.741) " >
<use href="#Tool[0005].Output.Graphic.TrendEdge.Array.Profile" transform="rotate(299.970)" />
</g>
<g transform="translate(679.359 1813.113) " >
<use href="#Tool[0005].Output.Graphic.TrendEdge.Array.Profile" transform="rotate(309.200)" />
</g>
<g transform="translate(685.794 1817.339) " >
<use href="#Tool[0005].Output.Graphic.TrendEdge.Array.Profile" transform="rotate(318.430)" />
</g>
<g transform="translate(690.758 1823.258) " >
<use href="#Tool[0005].Output.Graphic.TrendEdge.Array.Profile" transform="rotate(327.660)" />
</g>
<g transform="translate(693.902 1830.312) " >
<use href="#Tool[0005].Output.Graphic.TrendEdge.Array.Profile" transform="rotate(336.890)" />
</g>
<g transform="translate(696.174 1837.625) " >
<use href="#Tool[0005].Output.Graphic.TrendEdge.Array.Profile" transform="rotate(346.120)" />
</g>
<g transform="translate(696.775 1845.218) " >
<use href="#Tool[0005].Output.Graphic.TrendEdge.Array.Profile" transform="rotate(355.350)" />
</g>
<g transform="translate(697.012 1852.774) " >
<use href="#Tool[0005].Output.Graphic.TrendEdge.Array.Profile" transform="rotate(4.580)" />
</g>
<g class="EnableCustomAttribute" custom_stroke-width="2.000" stroke="#ddb60e" stroke-width="2.000" >
<path d="M697.015,1852.800 L695.976,1860.323 L693.277,1867.411 L688.904,1873.558 L683.694,1878.787 L677.968,1883.164 L671.616,1886.309 L665.231,1888.955 L658.465,1890.067 L651.757,1890.561 L645.118,1889.953 L638.692,1888.358 L626.176,1899.426 L615.477,1899.172 L636.281,1863.386 L634.903,1860.424 L633.694,1857.619 L633.103,1854.686 L632.013,1851.957 L631.753,1849.022 L632.543,1846.174 L633.587,1843.518 L635.661,1841.457 L637.353,1839.462 L631.854,1830.059 L615.660,1799.193 L626.720,1799.840 L637.932,1807.155 L644.647,1804.462 L651.924,1802.569 L659.291,1803.764 L666.778,1804.909 L673.300,1808.741 L679.359,1813.113 L685.794,1817.339 L690.758,1823.258 L693.902,1830.312 L696.174,1837.625 L696.775,1845.218 L697.012,1852.774 L697.015,1852.800 " fill="none" />
</g>
<defs >
<svg id="Tool[0005].Output.Graphic.TrendEdge.Primary.Profile" overflow="visible" >
<g class="EnableCustomAttribute" custom_scale="1" >
<circle cx="0.000" cy="0.000" r="2.000" fill="#87bb0c" fill-opacity="1.000" stroke="#87bb0c" stroke-opacity="1.000" stroke-width="0.600" />
</g>
</svg>
</defs>
<g transform="translate(615.477 1899.172) " >
<use href="#Tool[0005].Output.Graphic.TrendEdge.Primary.Profile" transform="rotate(124.600)" />
</g>
<defs >
<svg id="Tool[0005].Output.Graphic.TrendEdge.Primary.Target.Edge" overflow="visible" >
<g class="EnableCustomAttribute" custom_stroke-width="2.000" stroke="#87bb0c" stroke-width="2.000" >
<path d="M-28.231,54.000 A60.935,60.935 0 0 1 -40.456,45.567 M-40.456,45.567 Z" fill="none" />
</g>
</svg>
</defs>
<g transform="translate(650.077 1849.015) " >
<use href="#Tool[0005].Output.Graphic.TrendEdge.Primary.Target.Edge" transform="rotate(0.000)" />
</g>
<defs >
<svg id="Tool[0005].Output.Graphic.TrendEdge.Primary.Target.ArrowedLine" overflow="visible" >
<g class="EnableCustomAttribute" custom_stroke-width="2.000" stroke="#87bb0c" stroke-width="2.000" >
<line x1="17.300" y1="-25.078" x2="-17.300" y2="25.078" fill="#000000" fill-opacity="1.000" />
</g>
</svg>
</defs>
<g transform="translate(632.777 1874.093) " >
<use href="#Tool[0005].Output.Graphic.TrendEdge.Primary.Target.ArrowedLine" transform="rotate(0.000)" />
</g>
<defs >
<svg id="Tool[0005].Output.Graphic.TrendEdge.Primary.Target.ArrowedLine.StartTip" overflow="visible" >
<g class="EnableCustomAttribute" custom_scale="1" >
<polygon points="0.000,0.000 0.000,0.000 0.000,0.000 " fill="none" stroke="none" />
</g>
</svg>
</defs>
<g transform="translate(650.077 1849.015) " >
<use href="#Tool[0005].Output.Graphic.TrendEdge.Primary.Target.ArrowedLine.StartTip" transform="rotate(-55.401)" />
</g>
<defs >
<svg id="Tool[0005].Output.Graphic.TrendEdge.Primary.Target.ArrowedLine.EndTip" overflow="visible" >
<g class="EnableCustomAttribute" custom_scale="1" >
<polygon points="0.000,0.000 -8.000,-4.800 -8.000,4.800 " fill="#87bb0c" fill-opacity="1.000" stroke="none" />
</g>
</svg>
</defs>
<g transform="translate(615.477 1899.172) " >
<use href="#Tool[0005].Output.Graphic.TrendEdge.Primary.Target.ArrowedLine.EndTip" transform="rotate(124.599)" />
</g>
<!--Tool[0005].Output.Graphic.DetectedShape-->
<defs >
<svg id="Tool[0005].Output.Graphic.DetectedShape" overflow="visible" >
<g class="EnableCustomAttribute" custom_stroke-width="2.000" stroke="#87bb0c" stroke-width="2.000" >
<circle cx="0.000" cy="0.000" r="43.617" fill="none" />
</g>
</svg>
</defs>
<g transform="translate(653.766 1847.078) " >
<use href="#Tool[0005].Output.Graphic.DetectedShape" transform="rotate(0.000)" />
</g>
<defs >
<svg id="Tool[0005].Output.Graphic.DetectedShape.Point" overflow="visible" >
<g class="EnableCustomAttribute" custom_scale="1" >
<polygon points="-1.000,-10.000 -1.000,-1.000 -10.000,-1.000 -10.000,1.000 -1.000,1.000 -1.000,10.000 1.000,10.000 1.000,1.000 10.000,1.000 10.000,-1.000 
    1.000,-1.000 1.000,-10.000 " fill="#87bb0c" fill-opacity="1.000" stroke="none" paint-order="stroke" />
</g>
</svg>
</defs>
<g transform="translate(653.766 1847.078) " >
<use href="#Tool[0005].Output.Graphic.DetectedShape.Point" transform="rotate(0.000)" />
</g>
<!--Tool[0004].Output.Graphic.Region-->
<g class="EnableCustomAttribute" custom_stroke-width="2.000" stroke="#2a56af" stroke-width="2.000" >
<path d="M1296.164,1747.231 A66.000,66.000 0 0 0 1296.164,1879.231 A66.000,66.000 0 0 0 1296.164,1747.231 Z M1296.164,1812.231 A1.000,1.000 0 0 1 1296.164,1814.231 A1.000,1.000 0 0 1 1296.164,1812.231 Z" fill="none" />
</g>
<!--Tool[0004].Output.Graphic.TrendEdge-->
<defs >
<svg id="Tool[0004].Output.Graphic.TrendEdge.Primary.Segment" overflow="visible" >
<g class="EnableCustomAttribute" custom_stroke-width="2.000" stroke="#87bb0c" stroke-width="2.000" >
<path d="M1.000,0.000 L66.000,0.000 A66.000,66.000 0 0 1 64.997,11.461 L0.985,0.174 A1.000,1.000 0 0 0 1.000,0.000 Z" fill="none" />
</g>
</svg>
</defs>
<g transform="translate(1296.164 1813.231) " >
<use href="#Tool[0004].Output.Graphic.TrendEdge.Primary.Segment" transform="rotate(442.677)" />
</g>
<defs >
<svg id="Tool[0004].Output.Graphic.TrendEdge.Array.Profile" overflow="visible" >
<g class="EnableCustomAttribute" custom_scale="1" >
<circle cx="0.000" cy="0.000" r="2.000" fill="#ddb60e" fill-opacity="1.000" stroke="#ddb60e" stroke-opacity="1.000" stroke-width="0.600" />
</g>
</svg>
</defs>
<g transform="translate(1338.725 1816.664) " >
<use href="#Tool[0004].Output.Graphic.TrendEdge.Array.Profile" transform="rotate(4.610)" />
</g>
<g transform="translate(1338.527 1823.668) " >
<use href="#Tool[0004].Output.Graphic.TrendEdge.Array.Profile" transform="rotate(13.840)" />
</g>
<g transform="translate(1336.437 1830.381) " >
<use href="#Tool[0004].Output.Graphic.TrendEdge.Array.Profile" transform="rotate(23.070)" />
</g>
<g transform="translate(1333.876 1837.069) " >
<use href="#Tool[0004].Output.Graphic.TrendEdge.Array.Profile" transform="rotate(32.300)" />
</g>
<g transform="translate(1329.253 1842.536) " >
<use href="#Tool[0004].Output.Graphic.TrendEdge.Array.Profile" transform="rotate(41.530)" />
</g>
<g transform="translate(1324.277 1847.651) " >
<use href="#Tool[0004].Output.Graphic.TrendEdge.Array.Profile" transform="rotate(50.760)" />
</g>
<g transform="translate(1318.647 1852.159) " >
<use href="#Tool[0004].Output.Graphic.TrendEdge.Array.Profile" transform="rotate(59.990)" />
</g>
<g transform="translate(1312.226 1855.566) " >
<use href="#Tool[0004].Output.Graphic.TrendEdge.Array.Profile" transform="rotate(69.220)" />
</g>
<g transform="translate(1305.228 1857.591) " >
<use href="#Tool[0004].Output.Graphic.TrendEdge.Array.Profile" transform="rotate(78.450)" />
</g>
<g transform="translate(1290.708 1858.274) " >
<use href="#Tool[0004].Output.Graphic.TrendEdge.Array.Profile" transform="rotate(96.910)" />
</g>
<g transform="translate(1283.576 1856.732) " >
<use href="#Tool[0004].Output.Graphic.TrendEdge.Array.Profile" transform="rotate(106.140)" />
</g>
<g transform="translate(1277.423 1852.757) " >
<use href="#Tool[0004].Output.Graphic.TrendEdge.Array.Profile" transform="rotate(115.370)" />
</g>
<g transform="translate(1271.672 1848.736) " >
<use href="#Tool[0004].Output.Graphic.TrendEdge.Array.Profile" transform="rotate(124.600)" />
</g>
<g transform="translate(1266.400 1844.236) " >
<use href="#Tool[0004].Output.Graphic.TrendEdge.Array.Profile" transform="rotate(133.830)" />
</g>
<g transform="translate(1262.509 1838.536) " >
<use href="#Tool[0004].Output.Graphic.TrendEdge.Array.Profile" transform="rotate(143.060)" />
</g>
<g transform="translate(1259.090 1832.702) " >
<use href="#Tool[0004].Output.Graphic.TrendEdge.Array.Profile" transform="rotate(152.290)" />
</g>
<g transform="translate(1256.502 1826.483) " >
<use href="#Tool[0004].Output.Graphic.TrendEdge.Array.Profile" transform="rotate(161.520)" />
</g>
<g transform="translate(1254.760 1819.975) " >
<use href="#Tool[0004].Output.Graphic.TrendEdge.Array.Profile" transform="rotate(170.750)" />
</g>
<g transform="translate(1254.882 1813.246) " >
<use href="#Tool[0004].Output.Graphic.TrendEdge.Array.Profile" transform="rotate(179.980)" />
</g>
<g transform="translate(1255.578 1806.654) " >
<use href="#Tool[0004].Output.Graphic.TrendEdge.Array.Profile" transform="rotate(189.210)" />
</g>
<g transform="translate(1257.547 1800.357) " >
<use href="#Tool[0004].Output.Graphic.TrendEdge.Array.Profile" transform="rotate(198.440)" />
</g>
<g transform="translate(1260.273 1794.413) " >
<use href="#Tool[0004].Output.Graphic.TrendEdge.Array.Profile" transform="rotate(207.670)" />
</g>
<g transform="translate(1263.484 1788.696) " >
<use href="#Tool[0004].Output.Graphic.TrendEdge.Array.Profile" transform="rotate(216.900)" />
</g>
<g transform="translate(1267.901 1783.831) " >
<use href="#Tool[0004].Output.Graphic.TrendEdge.Array.Profile" transform="rotate(226.130)" />
</g>
<g transform="translate(1273.047 1779.768) " >
<use href="#Tool[0004].Output.Graphic.TrendEdge.Array.Profile" transform="rotate(235.360)" />
</g>
<g transform="translate(1278.515 1776.073) " >
<use href="#Tool[0004].Output.Graphic.TrendEdge.Array.Profile" transform="rotate(244.590)" />
</g>
<g transform="translate(1284.563 1773.245) " >
<use href="#Tool[0004].Output.Graphic.TrendEdge.Array.Profile" transform="rotate(253.820)" />
</g>
<g transform="translate(1291.075 1771.473) " >
<use href="#Tool[0004].Output.Graphic.TrendEdge.Array.Profile" transform="rotate(263.050)" />
</g>
<g transform="translate(1297.839 1771.089) " >
<use href="#Tool[0004].Output.Graphic.TrendEdge.Array.Profile" transform="rotate(272.280)" />
</g>
<g transform="translate(1304.489 1772.346) " >
<use href="#Tool[0004].Output.Graphic.TrendEdge.Array.Profile" transform="rotate(281.510)" />
</g>
<g transform="translate(1310.691 1774.866) " >
<use href="#Tool[0004].Output.Graphic.TrendEdge.Array.Profile" transform="rotate(290.740)" />
</g>
<g transform="translate(1316.980 1777.132) " >
<use href="#Tool[0004].Output.Graphic.TrendEdge.Array.Profile" transform="rotate(299.970)" />
</g>
<g transform="translate(1322.456 1780.995) " >
<use href="#Tool[0004].Output.Graphic.TrendEdge.Array.Profile" transform="rotate(309.200)" />
</g>
<g transform="translate(1327.588 1785.363) " >
<use href="#Tool[0004].Output.Graphic.TrendEdge.Array.Profile" transform="rotate(318.430)" />
</g>
<g transform="translate(1332.064 1790.501) " >
<use href="#Tool[0004].Output.Graphic.TrendEdge.Array.Profile" transform="rotate(327.660)" />
</g>
<g transform="translate(1335.119 1796.606) " >
<use href="#Tool[0004].Output.Graphic.TrendEdge.Array.Profile" transform="rotate(336.890)" />
</g>
<g transform="translate(1336.975 1803.147) " >
<use href="#Tool[0004].Output.Graphic.TrendEdge.Array.Profile" transform="rotate(346.120)" />
</g>
<g transform="translate(1338.785 1809.765) " >
<use href="#Tool[0004].Output.Graphic.TrendEdge.Array.Profile" transform="rotate(355.350)" />
</g>
<g transform="translate(1338.758 1816.643) " >
<use href="#Tool[0004].Output.Graphic.TrendEdge.Array.Profile" transform="rotate(4.580)" />
</g>
<g class="EnableCustomAttribute" custom_stroke-width="2.000" stroke="#ddb60e" stroke-width="2.000" >
<path d="M1338.725,1816.664 L1338.527,1823.668 L1336.437,1830.381 L1333.876,1837.069 L1329.253,1842.536 L1324.277,1847.651 L1318.647,1852.159 L1312.226,1855.566 L1305.228,1857.591 L1298.014,1858.984 L1290.708,1858.274 L1283.576,1856.732 L1277.423,1852.757 L1271.672,1848.736 L1266.400,1844.236 L1262.509,1838.536 L1259.090,1832.702 L1256.502,1826.483 L1254.760,1819.975 L1254.882,1813.246 L1255.578,1806.654 L1257.547,1800.357 L1260.273,1794.413 L1263.484,1788.696 L1267.901,1783.831 L1273.047,1779.768 L1278.515,1776.073 L1284.563,1773.245 L1291.075,1771.473 L1297.839,1771.089 L1304.489,1772.346 L1310.691,1774.866 L1316.980,1777.132 L1322.456,1780.995 L1327.588,1785.363 L1332.064,1790.501 L1335.119,1796.606 L1336.975,1803.147 L1338.785,1809.765 L1338.758,1816.643 L1338.725,1816.664 " fill="none" />
</g>
<defs >
<svg id="Tool[0004].Output.Graphic.TrendEdge.Primary.Profile" overflow="visible" >
<g class="EnableCustomAttribute" custom_scale="1" >
<circle cx="0.000" cy="0.000" r="2.000" fill="#87bb0c" fill-opacity="1.000" stroke="#87bb0c" stroke-opacity="1.000" stroke-width="0.600" />
</g>
</svg>
</defs>
<g transform="translate(1298.014 1858.984) " >
<use href="#Tool[0004].Output.Graphic.TrendEdge.Primary.Profile" transform="rotate(87.680)" />
</g>
<defs >
<svg id="Tool[0004].Output.Graphic.TrendEdge.Primary.Target.Edge" overflow="visible" >
<g class="EnableCustomAttribute" custom_stroke-width="2.000" stroke="#87bb0c" stroke-width="2.000" >
<path d="M7.415,45.184 A45.789,45.789 0 0 1 -3.736,45.636 M-3.736,45.636 Z" fill="none" />
</g>
</svg>
</defs>
<g transform="translate(1296.164 1813.231) " >
<use href="#Tool[0004].Output.Graphic.TrendEdge.Primary.Target.Edge" transform="rotate(0.000)" />
</g>
<defs >
<svg id="Tool[0004].Output.Graphic.TrendEdge.Primary.Target.ArrowedLine" overflow="visible" >
<g class="EnableCustomAttribute" custom_stroke-width="2.000" stroke="#87bb0c" stroke-width="2.000" >
<line x1="-0.925" y1="-22.876" x2="0.925" y2="22.876" fill="#000000" fill-opacity="1.000" />
</g>
</svg>
</defs>
<g transform="translate(1297.089 1836.108) " >
<use href="#Tool[0004].Output.Graphic.TrendEdge.Primary.Target.ArrowedLine" transform="rotate(0.000)" />
</g>
<defs >
<svg id="Tool[0004].Output.Graphic.TrendEdge.Primary.Target.ArrowedLine.StartTip" overflow="visible" >
<g class="EnableCustomAttribute" custom_scale="1" >
<polygon points="0.000,0.000 0.000,0.000 0.000,0.000 " fill="none" stroke="none" />
</g>
</svg>
</defs>
<g transform="translate(1296.164 1813.231) " >
<use href="#Tool[0004].Output.Graphic.TrendEdge.Primary.Target.ArrowedLine.StartTip" transform="rotate(-92.316)" />
</g>
<defs >
<svg id="Tool[0004].Output.Graphic.TrendEdge.Primary.Target.ArrowedLine.EndTip" overflow="visible" >
<g class="EnableCustomAttribute" custom_scale="1" >
<polygon points="0.000,0.000 -8.000,-4.800 -8.000,4.800 " fill="#87bb0c" fill-opacity="1.000" stroke="none" />
</g>
</svg>
</defs>
<g transform="translate(1298.014 1858.984) " >
<use href="#Tool[0004].Output.Graphic.TrendEdge.Primary.Target.ArrowedLine.EndTip" transform="rotate(87.684)" />
</g>
<!--Tool[0004].Output.Graphic.DetectedShape-->
<defs >
<svg id="Tool[0004].Output.Graphic.DetectedShape" overflow="visible" >
<g class="EnableCustomAttribute" custom_stroke-width="2.000" stroke="#87bb0c" stroke-width="2.000" >
<circle cx="0.000" cy="0.000" r="42.434" fill="none" />
</g>
</svg>
</defs>
<g transform="translate(1297.092 1814.892) " >
<use href="#Tool[0004].Output.Graphic.DetectedShape" transform="rotate(0.000)" />
</g>
<defs >
<svg id="Tool[0004].Output.Graphic.DetectedShape.Point" overflow="visible" >
<g class="EnableCustomAttribute" custom_scale="1" >
<polygon points="-1.000,-10.000 -1.000,-1.000 -10.000,-1.000 -10.000,1.000 -1.000,1.000 -1.000,10.000 1.000,10.000 1.000,1.000 10.000,1.000 10.000,-1.000 
    1.000,-1.000 1.000,-10.000 " fill="#87bb0c" fill-opacity="1.000" stroke="none" paint-order="stroke" />
</g>
</svg>
</defs>
<g transform="translate(1297.092 1814.892) " >
<use href="#Tool[0004].Output.Graphic.DetectedShape.Point" transform="rotate(0.000)" />
</g>
<!--Tool[0002].Output.Graphic.Region-->
<g class="EnableCustomAttribute" custom_stroke-width="2.000" stroke="#2a56af" stroke-width="2.000" >
<rect x="47.000" y="415.000" width="4301.000" height="2249.000" fill="none" />
<polygon points="2197.500,415.000 2189.500,410.200 2189.500,419.800 " fill="#2a56af" fill-opacity="1.000" stroke="none" />
</g>
<!--Tool[0002].Output.Graphic.ArrayTarget-->
<defs >
<svg id="Tool[0002].Output.Graphic.ArrayTarget.OtherGraphics" overflow="visible" >
<g class="EnableCustomAttribute" custom_stroke-width="1.000" stroke="#ddb60e" stroke-width="1.000" >
<g class="EnableCustomAttribute" custom_stroke-width="2.000" stroke="#ddb60e" stroke-width="2.000" >
<path stroke-linecap="square" d="M-649.635,-145.865 L911.365,-214.865 M-395.635,172.135 L-1334.635,216.135 M1703.365,66.135 L764.365,108.135 M-1747.635,218.135 L-1068.635,185.135 M-1062.635,185.135 L-399.635,155.135 M758.365,107.135 L164.365,136.135 M-1079.635,-124.865 L-655.635,-144.865 M1443.365,-238.865 L1866.365,-254.865 M-1339.635,216.135 L-1736.635,235.135 M-1464.635,-106.865 L-1164.635,-119.865 M1086.365,-221.865 L1363.365,-235.865 M-129.635,158.135 L-389.635,174.135 M-242.635,-147.865 L-479.635,-137.865 M-938.635,61.135 L-712.635,52.135 M-638.635,49.135 L-412.635,39.135 M-259.635,30.135 L-83.635,25.135 M916.365,-216.865 L1081.365,-223.865 M113.365,137.135 L-50.635,143.135 M255.365,8.135 L402.365,7.135 M-1645.635,-98.865 L-1504.635,-103.865 M-1775.635,63.135 L-1782.635,-67.865 M-27.635,21.135 L102.365,17.135 M-1770.635,187.135 L-1777.635,68.135 M-112.635,-153.865 L-225.635,-147.865 M11.365,-161.865 L-95.635,-153.865 M-497.635,-136.865 L-598.635,-130.865 M-1761.635,7.135 L-1759.635,91.135 M1875.365,-231.865 L1881.365,-157.865 M-1158.635,-122.865 L-1085.635,-124.865 M1369.365,-232.865 L1437.365,-238.865 M-73.635,157.135 L-123.635,160.135 M-690.099,52.910 A118.000,118.000 0 0 1 -645.404,47.422 M1114.967,-39.578 A40.000,40.000 0 0 1 1071.422,-41.099 M-78.635,22.135 L-33.635,21.135 M-1764.635,-88.865 L-1719.635,-87.865 M-1009.503,36.912 A64.000,64.000 0 0 1 -1008.384,-5.801 M-1755.635,96.135 L-1755.635,136.135 M159.365,137.135 L119.365,135.135 M176.923,13.562 A73.000,73.000 0 0 1 142.945,16.236 M-331.765,32.731 A110.000,110.000 0 0 1 -366.133,34.532 M181.365,13.135 L215.365,11.135 M-406.635,38.135 L-372.635,34.135 M-33.635,151.135 L-67.635,154.135 M-939.634,-9.102 A49.000,49.000 0 0 1 -933.112,22.954 M-1747.902,246.361 A46.000,46.000 0 0 1 -1778.611,246.629 M-952.635,54.135 L-934.635,29.135 M-1713.635,-87.865 L-1685.635,-92.865 M221.365,14.135 L249.365,9.135 M1068.996,-43.918 A39.000,39.000 0 0 1 1053.217,-67.756 M-1679.635,-95.865 L-1651.635,-99.865 M-1498.635,-101.865 L-1470.635,-104.865 M-293.635,33.135 L-265.635,30.135 M107.365,15.135 L136.365,16.135 M-327.635,33.135 L-299.635,34.135 M-1770.635,221.135 L-1770.635,193.135 M-983.635,59.135 L-955.635,56.135 M1906.700,84.478 A40.000,40.000 0 0 1 1879.342,84.956 M-1781.416,-76.940 A10.000,10.000 0 0 1 -1790.621,-92.883 M-989.135,56.302 A51.000,51.000 0 0 1 -1005.916,40.654 M-984.282,-26.509 A35.000,35.000 0 0 1 -962.092,-25.540 M-990.635,-24.865 L-1005.635,-10.865 M-1741.764,233.660 A16.000,16.000 0 0 1 -1759.054,226.849 M1117.365,-41.865 L1130.365,-56.865 M1883.688,-134.127 A72.000,72.000 0 0 1 1882.464,-151.633 M-942.635,-11.865 L-954.635,-23.865 M-1786.635,-95.865 L-1770.635,-94.865 M1889.474,69.957 A18.000,18.000 0 0 1 1905.256,69.957 M1873.365,-257.865 L1888.365,-257.865 M1131.365,-61.865 L1132.365,-72.865 M-1779.635,233.135 L-1770.635,230.135 M1890.365,-254.865 L1893.365,-248.865 M1907.365,74.135 L1907.365,80.135 M1879.365,-239.865 L1875.365,-235.865 M-706.635,52.135 L-700.635,53.135 M1890.365,-242.865 L1885.365,-240.865 M-1762.635,-3.865 L-1762.635,1.135 M-1780.635,243.135 L-1780.635,238.135 " fill="none" />
</g>
<g class="EnableCustomAttribute" custom_stroke-width="1.000" stroke="#ddb60e" stroke-width="1.000" >
<rect x="-2034.500" y="-314.500" width="4069.000" height="629.000" fill="none" transform="rotate(358.300 0.000 0.000)" />
<polygon points="-9.330,-314.362 -13.330,-316.762 -13.330,-311.962 " fill="#ddb60e" fill-opacity="1.000" stroke="none" transform="rotate(358.300 -9.330 -314.362)" />
</g>
</g>
</svg>
</defs>
<defs >
<svg id="Tool[0002].Output.Graphic.ArrayTarget" overflow="visible" >
<g class="EnableCustomAttribute" custom_scale="1" >
<polygon points="-0.500,-0.500 -0.500,4.000 -2.400,4.000 0.000,8.000 2.400,4.000 0.500,4.000 0.500,0.500 4.000,0.500 4.000,2.400 8.000,0.000 
    4.000,-2.400 4.000,-0.500 " fill="#ddb60e" fill-opacity="1.000" stroke="#000000" stroke-opacity="1.000" stroke-width="2.000" paint-order="stroke" />
</g>
</svg>
</defs>
<defs >
<path id="Tool[0002].Output.Graphic.ArrayTarget0" class="EnableCustomAttribute" custom_scale="1" custom_offset_x="2.500" custom_offset_y="-2.500" d="M 2.500 -2.500 h 1000" />
</defs>
<g class="EnableCustomAttribute" custom_fontsize="12" font-size="12" font-weight="bold" custom_stroke-width="2" stroke-width="2" fill="#ddb60e" stroke="#000000" paint-order="stroke" >
</g>
<!--Tool[0002].Output.Graphic.PrimaryTarget-->
<defs >
<svg id="Tool[0002].Output.Graphic.PrimaryTarget.OtherGraphics" overflow="visible" >
<g class="EnableCustomAttribute" custom_stroke-width="2.000" stroke="#87bb0c" stroke-width="2.000" >
<g class="EnableCustomAttribute" custom_stroke-width="2.000" stroke="#87bb0c" stroke-width="2.000" >
<path stroke-linecap="square" d="M-649.635,-145.865 L911.365,-214.865 M-395.635,172.135 L-1334.635,216.135 M1703.365,66.135 L764.365,108.135 M-1747.635,218.135 L-1068.635,185.135 M-1062.635,185.135 L-399.635,155.135 M758.365,107.135 L164.365,136.135 M-1079.635,-124.865 L-655.635,-144.865 M1443.365,-238.865 L1866.365,-254.865 M-1339.635,216.135 L-1736.635,235.135 M-1464.635,-106.865 L-1164.635,-119.865 M1086.365,-221.865 L1363.365,-235.865 M-129.635,158.135 L-389.635,174.135 M-242.635,-147.865 L-479.635,-137.865 M-938.635,61.135 L-712.635,52.135 M-638.635,49.135 L-412.635,39.135 M-259.635,30.135 L-83.635,25.135 M916.365,-216.865 L1081.365,-223.865 M113.365,137.135 L-50.635,143.135 M255.365,8.135 L402.365,7.135 M-1645.635,-98.865 L-1504.635,-103.865 M-1775.635,63.135 L-1782.635,-67.865 M-27.635,21.135 L102.365,17.135 M-1770.635,187.135 L-1777.635,68.135 M-112.635,-153.865 L-225.635,-147.865 M11.365,-161.865 L-95.635,-153.865 M-497.635,-136.865 L-598.635,-130.865 M-1761.635,7.135 L-1759.635,91.135 M1875.365,-231.865 L1881.365,-157.865 M-1158.635,-122.865 L-1085.635,-124.865 M1369.365,-232.865 L1437.365,-238.865 M-73.635,157.135 L-123.635,160.135 M-690.099,52.910 A118.000,118.000 0 0 1 -645.404,47.422 M1114.967,-39.578 A40.000,40.000 0 0 1 1071.422,-41.099 M-78.635,22.135 L-33.635,21.135 M-1764.635,-88.865 L-1719.635,-87.865 M-1009.503,36.912 A64.000,64.000 0 0 1 -1008.384,-5.801 M-1755.635,96.135 L-1755.635,136.135 M159.365,137.135 L119.365,135.135 M176.923,13.562 A73.000,73.000 0 0 1 142.945,16.236 M-331.765,32.731 A110.000,110.000 0 0 1 -366.133,34.532 M181.365,13.135 L215.365,11.135 M-406.635,38.135 L-372.635,34.135 M-33.635,151.135 L-67.635,154.135 M-939.634,-9.102 A49.000,49.000 0 0 1 -933.112,22.954 M-1747.902,246.361 A46.000,46.000 0 0 1 -1778.611,246.629 M-952.635,54.135 L-934.635,29.135 M-1713.635,-87.865 L-1685.635,-92.865 M221.365,14.135 L249.365,9.135 M1068.996,-43.918 A39.000,39.000 0 0 1 1053.217,-67.756 M-1679.635,-95.865 L-1651.635,-99.865 M-1498.635,-101.865 L-1470.635,-104.865 M-293.635,33.135 L-265.635,30.135 M107.365,15.135 L136.365,16.135 M-327.635,33.135 L-299.635,34.135 M-1770.635,221.135 L-1770.635,193.135 M-983.635,59.135 L-955.635,56.135 M1906.700,84.478 A40.000,40.000 0 0 1 1879.342,84.956 M-1781.416,-76.940 A10.000,10.000 0 0 1 -1790.621,-92.883 M-989.135,56.302 A51.000,51.000 0 0 1 -1005.916,40.654 M-984.282,-26.509 A35.000,35.000 0 0 1 -962.092,-25.540 M-990.635,-24.865 L-1005.635,-10.865 M-1741.764,233.660 A16.000,16.000 0 0 1 -1759.054,226.849 M1117.365,-41.865 L1130.365,-56.865 M1883.688,-134.127 A72.000,72.000 0 0 1 1882.464,-151.633 M-942.635,-11.865 L-954.635,-23.865 M-1786.635,-95.865 L-1770.635,-94.865 M1889.474,69.957 A18.000,18.000 0 0 1 1905.256,69.957 M1873.365,-257.865 L1888.365,-257.865 M1131.365,-61.865 L1132.365,-72.865 M-1779.635,233.135 L-1770.635,230.135 M1890.365,-254.865 L1893.365,-248.865 M1907.365,74.135 L1907.365,80.135 M1879.365,-239.865 L1875.365,-235.865 M-706.635,52.135 L-700.635,53.135 M1890.365,-242.865 L1885.365,-240.865 M-1762.635,-3.865 L-1762.635,1.135 M-1780.635,243.135 L-1780.635,238.135 " fill="none" />
</g>
<g class="EnableCustomAttribute" custom_stroke-width="2.000" stroke="#87bb0c" stroke-width="2.000" >
<rect x="-2034.500" y="-314.500" width="4069.000" height="629.000" fill="none" transform="rotate(358.300 0.000 0.000)" />
<polygon points="-9.330,-314.362 -17.330,-319.162 -17.330,-309.562 " fill="#87bb0c" fill-opacity="1.000" stroke="none" transform="rotate(358.300 -9.330 -314.362)" />
</g>
</g>
</svg>
</defs>
<defs >
<svg id="Tool[0002].Output.Graphic.PrimaryTarget" overflow="visible" >
<g class="EnableCustomAttribute" custom_scale="1" >
<polygon points="-1.000,-1.000 -1.000,4.000 -2.400,4.000 0.000,8.000 2.400,4.000 1.000,4.000 1.000,1.000 4.000,1.000 4.000,2.400 8.000,0.000 
    4.000,-2.400 4.000,-1.000 " fill="#87bb0c" fill-opacity="1.000" stroke="#000000" stroke-opacity="1.000" stroke-width="2.000" paint-order="stroke" />
</g>
</svg>
</defs>
<defs >
<path id="Tool[0002].Output.Graphic.PrimaryTarget0" class="EnableCustomAttribute" custom_scale="1" custom_offset_x="3.000" custom_offset_y="-3.000" d="M 3.000 -3.000 h 1000" />
</defs>
<g transform="translate(2248.011 1794.319) " >
<use href="#Tool[0002].Output.Graphic.PrimaryTarget.OtherGraphics" transform="rotate(-0.393)" />
</g>
<g transform="translate(2248.011 1794.319) " >
<use href="#Tool[0002].Output.Graphic.PrimaryTarget" transform="rotate(-0.393)" />
</g>
<g class="EnableCustomAttribute" custom_fontsize="12" font-size="12" font-weight="bold" custom_stroke-width="2" stroke-width="2" fill="#87bb0c" stroke="#000000" paint-order="stroke" >
<g transform="translate(2248.011 1794.319) " >
<text style="white-space:pre" >
<textPath href="#Tool[0002].Output.Graphic.PrimaryTarget0" >81.9</textPath>
</text>
</g>
</g>
<!--Tool[0001].Output.Graphic.Region-->
<g class="EnableCustomAttribute" custom_stroke-width="2.000" stroke="#2a56af" stroke-width="2.000" >
<rect x="92.000" y="19.000" width="4251.000" height="2660.000" fill="none" />
<polygon points="2217.500,19.000 2209.500,14.200 2209.500,23.800 " fill="#2a56af" fill-opacity="1.000" stroke="none" />
</g>
<!--Tool[0001].Output.Graphic.Result-->
<defs >
<path id="Tool[0001].Output.Graphic.ResultSymbol00" class="EnableCustomAttribute" custom_scale="1" custom_offset_x="3.000" custom_offset_y="-3.000" d="M 3.000 -3.000 h 1000" />
</defs>
<g class="EnableCustomAttribute" custom_fontsize="40" font-size="40" font-weight="bold" custom_stroke-width="2" stroke-width="2" fill="#1da57b" stroke="#000000" paint-order="stroke" >
<g transform="translate(92.000 2679.000) " >
<text style="white-space:pre" >
<textPath href="#Tool[0001].Output.Graphic.ResultSymbol00" >■</textPath>
</text>
</g>
</g>
<defs >
<path id="Tool[0001].Output.Graphic.ResultSymbol00" class="EnableCustomAttribute" custom_scale="1" custom_offset_x="3.000" custom_offset_y="-3.000" d="M 3.000 -3.000 h 1000" />
</defs>
<g class="EnableCustomAttribute" custom_fontsize="40" font-size="40" font-weight="bold" custom_stroke-width="2" stroke-width="2" fill="#ffffff" stroke="#000000" paint-order="stroke" >
<g transform="translate(92.000 2679.000) " >
<text style="white-space:pre" >
<textPath href="#Tool[0001].Output.Graphic.ResultSymbol00" >　Front  88%</textPath>
</text>
</g>
</g>
</svg>
