<svg viewBox="0 0 4400 3296" width="4400" height="3296" overflow="visible" preserveAspectRatio="xMidYMid" xmlns="http://www.w3.org/2000/svg" xmlns:xlink="http://www.w3.org/1999/xlink" version="1.1">


<g class="EnableCustomAttribute" custom_stroke-width="10.000" stroke="#22c55e" stroke-width="10.000" >
<path d="M468.044,1866.230 L4198.134,1685.253 " fill="none" />
</g>
<defs >
<svg id="Tool[0007].Output.Graphic.DimensionLine.Tips" overflow="visible" >
<g class="EnableCustomAttribute" custom_scale="1" >
<polygon points="0.000,0.000 -16.000,-9.600 -16.000,9.600 " fill="#22c55e" fill-opacity="1.000" stroke="none" />
</g>
<text x="1646.913" y="1614.729" font-family="Arial, sans-serif" font-size="45" fill="#22c55e" stroke="#000000" stroke-width="3" paint-order="stroke" opacity="0.8">Radio Ciculo Izquierdo</text>
<text x="1646.913" y="1724.729" font-family="Arial, sans-serif" font-size="90" font-weight="bold" fill="#22c55e" stroke="#000000" stroke-width="5" paint-order="stroke">11.725 mm</text>
<text x="-196.08799999999997" y="1647.094" font-family="Arial, sans-serif" font-size="45" fill="#22c55e" stroke="#000000" stroke-width="3" paint-order="stroke" opacity="0.8">Radio Circulo Derecho</text>
<text x="-196.08799999999997" y="1757.094" font-family="Arial, sans-serif" font-size="90" font-weight="bold" fill="#22c55e" stroke="#000000" stroke-width="5" paint-order="stroke">12.016 mm</text>
</svg>
</defs>
<g transform="translate(468.044 1866.230) " >
<use href="#Tool[0007].Output.Graphic.DimensionLine.Tips" transform="rotate(177.222)" />
</g>
<g transform="translate(4198.134 1685.253) " >
<use href="#Tool[0007].Output.Graphic.DimensionLine.Tips" transform="rotate(357.222)" />
</g>

<defs >
<svg id="Tool[0007].Output.Graphic.PrimaryTarget.Edge2" overflow="visible" >
<g class="EnableCustomAttribute" custom_stroke-width="10.000" stroke="#22c55e" stroke-width="10.000" >
<line x1="0.000" y1="-85.500" x2="0.000" y2="85.500" fill="#000000" fill-opacity="1.000" />
</g>
</svg>
</defs>
<defs >
<svg id="Tool[0007].Output.Graphic.PrimaryTarget.Edge1" overflow="visible" >
<g class="EnableCustomAttribute" custom_stroke-width="10.000" stroke="#22c55e" stroke-width="10.000" >
<line x1="0.000" y1="-85.500" x2="0.000" y2="85.500" fill="#000000" fill-opacity="1.000" />
</g>
</svg>
</defs>
<g transform="translate(4198.134 1685.253) " >
<use href="#Tool[0007].Output.Graphic.PrimaryTarget.Edge2" transform="rotate(357.219)" />
</g>
<g transform="translate(468.044 1866.230) " >
<use href="#Tool[0007].Output.Graphic.PrimaryTarget.Edge1" transform="rotate(357.219)" />
</g>

<g class="EnableCustomAttribute" custom_stroke-width="10.000" stroke="#22c55e" stroke-width="10.000" >
<path d="M2241.912,1621.136 L2259.712,1964.183 " fill="none" />
</g>
<defs >
<svg id="Tool[0006].Output.Graphic.DimensionLine.Tips" overflow="visible" >
<g class="EnableCustomAttribute" custom_scale="1" >
<polygon points="0.000,0.000 -16.000,-9.600 -16.000,9.600 " fill="#22c55e" fill-opacity="1.000" stroke="none" />
</g>
</svg>
</defs>
<g transform="translate(2241.912 1621.136) " >
<use href="#Tool[0006].Output.Graphic.DimensionLine.Tips" transform="rotate(267.030)" />
</g>
<g transform="translate(2259.712 1964.183) " >
<use href="#Tool[0006].Output.Graphic.DimensionLine.Tips" transform="rotate(87.030)" />
</g>

<defs >
<svg id="Tool[0006].Output.Graphic.PrimaryTarget.Edge2" overflow="visible" >
<g class="EnableCustomAttribute" custom_stroke-width="10.000" stroke="#22c55e" stroke-width="10.000" >
<line x1="0.000" y1="-802.500" x2="0.000" y2="802.500" fill="#000000" fill-opacity="1.000" />
</g>
</svg>
</defs>
<defs >
<svg id="Tool[0006].Output.Graphic.PrimaryTarget.Edge1" overflow="visible" >
<g class="EnableCustomAttribute" custom_stroke-width="10.000" stroke="#22c55e" stroke-width="10.000" >
<line x1="0.000" y1="-802.500" x2="0.000" y2="802.500" fill="#000000" fill-opacity="1.000" />
</g>
</svg>
</defs>
<g transform="translate(2259.712 1964.183) " >
<use href="#Tool[0006].Output.Graphic.PrimaryTarget.Edge2" transform="rotate(87.029)" />
</g>
<g transform="translate(2241.912 1621.136) " >
<use href="#Tool[0006].Output.Graphic.PrimaryTarget.Edge1" transform="rotate(87.029)" />
</g>

<defs >
<svg id="Tool[0005].Output.Graphic.TrendEdge.Primary.Segment" overflow="visible" >
<g class="EnableCustomAttribute" custom_stroke-width="10.000" stroke="#22c55e" stroke-width="10.000" >
<path d="M1.000,0.000 L66.000,0.000 A66.000,66.000 0 0 1 64.997,11.461 L0.985,0.174 A2.000,2.000 0 0 0 1.000,0.000 Z" fill="none" />
</g>
</svg>
</defs>
<g transform="translate(652.403 1849.350) " >
<use href="#Tool[0005].Output.Graphic.TrendEdge.Primary.Segment" transform="rotate(479.599)" />
</g>
<defs >
<svg id="Tool[0005].Output.Graphic.TrendEdge.Array.Profile" overflow="visible" >
<g class="EnableCustomAttribute" custom_scale="1" >
<circle cx="0.000" cy="0.000" r="8.000" fill="#22c55e" fill-opacity="1.000" stroke="#22c55e" stroke-opacity="1.000" stroke-width="3.000" />
</g>
</svg>
</defs>
<g transform="translate(697.053 1852.951) " >
<use href="#Tool[0005].Output.Graphic.TrendEdge.Array.Profile" transform="rotate(4.610)" />
</g>
<g transform="translate(695.799 1860.041) " >
<use href="#Tool[0005].Output.Graphic.TrendEdge.Array.Profile" transform="rotate(13.840)" />
</g>
<g transform="translate(693.387 1866.803) " >
<use href="#Tool[0005].Output.Graphic.TrendEdge.Array.Profile" transform="rotate(23.070)" />
</g>
<g transform="translate(689.337 1872.696) " >
<use href="#Tool[0005].Output.Graphic.TrendEdge.Array.Profile" transform="rotate(32.300)" />
</g>
<g transform="translate(684.557 1877.826) " >
<use href="#Tool[0005].Output.Graphic.TrendEdge.Array.Profile" transform="rotate(41.530)" />
</g>
<g transform="translate(679.191 1882.147) " >
<use href="#Tool[0005].Output.Graphic.TrendEdge.Array.Profile" transform="rotate(50.760)" />
</g>
<g transform="translate(673.289 1885.512) " >
<use href="#Tool[0005].Output.Graphic.TrendEdge.Array.Profile" transform="rotate(59.990)" />
</g>
<g transform="translate(667.187 1888.314) " >
<use href="#Tool[0005].Output.Graphic.TrendEdge.Array.Profile" transform="rotate(69.220)" />
</g>
<g transform="translate(660.648 1889.698) " >
<use href="#Tool[0005].Output.Graphic.TrendEdge.Array.Profile" transform="rotate(78.450)" />
</g>
<g transform="translate(654.082 1890.875) " >
<use href="#Tool[0005].Output.Graphic.TrendEdge.Array.Profile" transform="rotate(87.680)" />
</g>
<g transform="translate(647.448 1890.262) " >
<use href="#Tool[0005].Output.Graphic.TrendEdge.Array.Profile" transform="rotate(96.910)" />
</g>
<g transform="translate(640.958 1888.905) " >
<use href="#Tool[0005].Output.Graphic.TrendEdge.Array.Profile" transform="rotate(106.140)" />
</g>
<g transform="translate(627.952 1900.922) " >
<use href="#Tool[0005].Output.Graphic.TrendEdge.Array.Profile" transform="rotate(115.370)" />
</g>
<g transform="translate(624.210 1878.719) " >
<use href="#Tool[0005].Output.Graphic.TrendEdge.Array.Profile" transform="rotate(133.830)" />
</g>
<g transform="translate(635.490 1862.067) " >
<use href="#Tool[0005].Output.Graphic.TrendEdge.Array.Profile" transform="rotate(143.060)" />
</g>
<g transform="translate(634.349 1858.832) " >
<use href="#Tool[0005].Output.Graphic.TrendEdge.Array.Profile" transform="rotate(152.290)" />
</g>
<g transform="translate(633.175 1855.775) " >
<use href="#Tool[0005].Output.Graphic.TrendEdge.Array.Profile" transform="rotate(161.520)" />
</g>
<g transform="translate(631.845 1852.699) " >
<use href="#Tool[0005].Output.Graphic.TrendEdge.Array.Profile" transform="rotate(170.750)" />
</g>
<g transform="translate(631.646 1849.358) " >
<use href="#Tool[0005].Output.Graphic.TrendEdge.Array.Profile" transform="rotate(179.980)" />
</g>
<g transform="translate(632.234 1846.082) " >
<use href="#Tool[0005].Output.Graphic.TrendEdge.Array.Profile" transform="rotate(189.210)" />
</g>
<g transform="translate(633.680 1843.108) " >
<use href="#Tool[0005].Output.Graphic.TrendEdge.Array.Profile" transform="rotate(198.440)" />
</g>
<g transform="translate(635.878 1840.686) " >
<use href="#Tool[0005].Output.Graphic.TrendEdge.Array.Profile" transform="rotate(207.670)" />
</g>
<g transform="translate(637.387 1838.076) " >
<use href="#Tool[0005].Output.Graphic.TrendEdge.Array.Profile" transform="rotate(216.900)" />
</g>
<g transform="translate(632.131 1828.262) " >
<use href="#Tool[0005].Output.Graphic.TrendEdge.Array.Profile" transform="rotate(226.130)" />
</g>
<g transform="translate(618.554 1800.350) " >
<use href="#Tool[0005].Output.Graphic.TrendEdge.Array.Profile" transform="rotate(235.360)" />
</g>
<g transform="translate(633.648 1809.864) " >
<use href="#Tool[0005].Output.Graphic.TrendEdge.Array.Profile" transform="rotate(244.590)" />
</g>
<g transform="translate(639.943 1806.402) " >
<use href="#Tool[0005].Output.Graphic.TrendEdge.Array.Profile" transform="rotate(253.820)" />
</g>
<g transform="translate(646.766 1803.094) " >
<use href="#Tool[0005].Output.Graphic.TrendEdge.Array.Profile" transform="rotate(263.050)" />
</g>
<g transform="translate(654.259 1802.680) " >
<use href="#Tool[0005].Output.Graphic.TrendEdge.Array.Profile" transform="rotate(272.280)" />
</g>
<g transform="translate(661.596 1804.206) " >
<use href="#Tool[0005].Output.Graphic.TrendEdge.Array.Profile" transform="rotate(281.510)" />
</g>
<g transform="translate(668.979 1805.576) " >
<use href="#Tool[0005].Output.Graphic.TrendEdge.Array.Profile" transform="rotate(290.740)" />
</g>
<g transform="translate(674.909 1810.320) " >
<use href="#Tool[0005].Output.Graphic.TrendEdge.Array.Profile" transform="rotate(299.970)" />
</g>
<g transform="translate(681.179 1814.069) " >
<use href="#Tool[0005].Output.Graphic.TrendEdge.Array.Profile" transform="rotate(309.200)" />
</g>
<g transform="translate(687.032 1818.640) " >
<use href="#Tool[0005].Output.Graphic.TrendEdge.Array.Profile" transform="rotate(318.430)" />
</g>
<g transform="translate(691.294 1824.727) " >
<use href="#Tool[0005].Output.Graphic.TrendEdge.Array.Profile" transform="rotate(327.660)" />
</g>
<g transform="translate(694.266 1831.484) " >
<use href="#Tool[0005].Output.Graphic.TrendEdge.Array.Profile" transform="rotate(336.890)" />
</g>
<g transform="translate(696.241 1838.518) " >
<use href="#Tool[0005].Output.Graphic.TrendEdge.Array.Profile" transform="rotate(346.120)" />
</g>
<g transform="translate(697.081 1845.717) " >
<use href="#Tool[0005].Output.Graphic.TrendEdge.Array.Profile" transform="rotate(355.350)" />
</g>
<g transform="translate(697.032 1852.925) " >
<use href="#Tool[0005].Output.Graphic.TrendEdge.Array.Profile" transform="rotate(4.580)" />
</g>
<g class="EnableCustomAttribute" custom_stroke-width="10.000" stroke="#22c55e" stroke-width="10.000" >
<path d="M697.053,1852.951 L695.799,1860.041 L693.387,1866.803 L689.337,1872.696 L684.557,1877.826 L679.191,1882.147 L673.289,1885.512 L667.187,1888.314 L660.648,1889.698 L654.082,1890.875 L647.448,1890.262 L640.958,1888.905 L627.952,1900.922 L617.750,1899.585 L624.210,1878.719 L635.490,1862.067 L634.349,1858.832 L633.175,1855.775 L631.845,1852.699 L631.646,1849.358 L632.234,1846.082 L633.680,1843.108 L635.878,1840.686 L637.387,1838.076 L632.131,1828.262 L618.554,1800.350 L633.648,1809.864 L639.943,1806.402 L646.766,1803.094 L654.259,1802.680 L661.596,1804.206 L668.979,1805.576 L674.909,1810.320 L681.179,1814.069 L687.032,1818.640 L691.294,1824.727 L694.266,1831.484 L696.241,1838.518 L697.081,1845.717 L697.032,1852.925 L697.053,1852.951 " fill="none" />
</g>
<defs >
<svg id="Tool[0005].Output.Graphic.TrendEdge.Primary.Profile" overflow="visible" >
<g class="EnableCustomAttribute" custom_scale="1" >
<circle cx="0.000" cy="0.000" r="8.000" fill="#22c55e" fill-opacity="1.000" stroke="#22c55e" stroke-opacity="1.000" stroke-width="3.000" />
</g>
</svg>
</defs>
<g transform="translate(617.750 1899.585) " >
<use href="#Tool[0005].Output.Graphic.TrendEdge.Primary.Profile" transform="rotate(124.600)" />
</g>
<defs >
<svg id="Tool[0005].Output.Graphic.TrendEdge.Primary.Target.Edge" overflow="visible" >
<g class="EnableCustomAttribute" custom_stroke-width="10.000" stroke="#22c55e" stroke-width="10.000" >
<path d="M-28.275,54.085 A61.030,61.030 0 0 1 -40.519,45.638 M-40.519,45.638 Z" fill="none" />
</g>
</svg>
</defs>
<g transform="translate(652.403 1849.350) " >
<use href="#Tool[0005].Output.Graphic.TrendEdge.Primary.Target.Edge" transform="rotate(0.000)" />
</g>
<defs >
<svg id="Tool[0005].Output.Graphic.TrendEdge.Primary.Target.ArrowedLine" overflow="visible" >
<g class="EnableCustomAttribute" custom_stroke-width="10.000" stroke="#22c55e" stroke-width="10.000" >
<line x1="17.327" y1="-25.117" x2="-17.327" y2="25.117" fill="#000000" fill-opacity="1.000" />
</g>
</svg>
</defs>
<g transform="translate(635.077 1874.468) " >
<use href="#Tool[0005].Output.Graphic.TrendEdge.Primary.Target.ArrowedLine" transform="rotate(0.000)" />
</g>
<defs >
<svg id="Tool[0005].Output.Graphic.TrendEdge.Primary.Target.ArrowedLine.StartTip" overflow="visible" >
<g class="EnableCustomAttribute" custom_scale="1" >
<polygon points="0.000,0.000 0.000,0.000 0.000,0.000 " fill="none" stroke="none" />
</g>
</svg>
</defs>
<g transform="translate(652.403 1849.350) " >
<use href="#Tool[0005].Output.Graphic.TrendEdge.Primary.Target.ArrowedLine.StartTip" transform="rotate(-55.401)" />
</g>
<defs >
<svg id="Tool[0005].Output.Graphic.TrendEdge.Primary.Target.ArrowedLine.EndTip" overflow="visible" >
<g class="EnableCustomAttribute" custom_scale="1" >
<polygon points="0.000,0.000 -16.000,-9.600 -16.000,9.600 " fill="#22c55e" fill-opacity="1.000" stroke="none" />
</g>
</svg>
</defs>
<g transform="translate(617.750 1899.585) " >
<use href="#Tool[0005].Output.Graphic.TrendEdge.Primary.Target.ArrowedLine.EndTip" transform="rotate(124.599)" />
</g>

<defs >
<svg id="Tool[0005].Output.Graphic.DetectedShape" overflow="visible" >
<g class="EnableCustomAttribute" custom_stroke-width="10.000" stroke="#22c55e" stroke-width="10.000" >
<circle cx="0.000" cy="0.000" r="43.469" fill="none" />
</g>
</svg>
</defs>
<g transform="translate(653.912 1847.094) " >
<use href="#Tool[0005].Output.Graphic.DetectedShape" transform="rotate(0.000)" />
</g>
<defs >
<svg id="Tool[0005].Output.Graphic.DetectedShape.Point" overflow="visible" >
<g class="EnableCustomAttribute" custom_scale="1" >
<polygon points="-2.000,-20.000 -2.000,-2.000 -20.000,-2.000 -20.000,2.000 -2.000,2.000 -2.000,20.000 2.000,20.000 2.000,2.000 20.000,2.000 20.000,-2.000 
    2.000,-2.000 2.000,-20.000 " fill="#22c55e" fill-opacity="1.000" stroke="none" paint-order="stroke" />
</g>
</svg>
</defs>
<g transform="translate(653.912 1847.094) " >
<use href="#Tool[0005].Output.Graphic.DetectedShape.Point" transform="rotate(0.000)" />
</g>

<defs >
<svg id="Tool[0004].Output.Graphic.TrendEdge.Primary.Segment" overflow="visible" >
<g class="EnableCustomAttribute" custom_stroke-width="10.000" stroke="#22c55e" stroke-width="10.000" >
<path d="M1.000,0.000 L66.000,0.000 A66.000,66.000 0 0 1 64.997,11.461 L0.985,0.174 A2.000,2.000 0 0 0 1.000,0.000 Z" fill="none" />
</g>
</svg>
</defs>
<g transform="translate(1298.491 1813.586) " >
<use href="#Tool[0004].Output.Graphic.TrendEdge.Primary.Segment" transform="rotate(461.139)" />
</g>
<defs >
<svg id="Tool[0004].Output.Graphic.TrendEdge.Array.Profile" overflow="visible" >
<g class="EnableCustomAttribute" custom_scale="1" >
<circle cx="0.000" cy="0.000" r="8.000" fill="#22c55e" fill-opacity="1.000" stroke="#22c55e" stroke-opacity="1.000" stroke-width="3.000" />
</g>
</svg>
</defs>
<g transform="translate(1338.989 1816.852) " >
<use href="#Tool[0004].Output.Graphic.TrendEdge.Array.Profile" transform="rotate(4.610)" />
</g>
<g transform="translate(1338.375 1823.411) " >
<use href="#Tool[0004].Output.Graphic.TrendEdge.Array.Profile" transform="rotate(13.840)" />
</g>
<g transform="translate(1336.494 1829.768) " >
<use href="#Tool[0004].Output.Graphic.TrendEdge.Array.Profile" transform="rotate(23.070)" />
</g>
<g transform="translate(1334.193 1836.153) " >
<use href="#Tool[0004].Output.Graphic.TrendEdge.Array.Profile" transform="rotate(32.300)" />
</g>
<g transform="translate(1330.044 1841.529) " >
<use href="#Tool[0004].Output.Graphic.TrendEdge.Array.Profile" transform="rotate(41.530)" />
</g>
<g transform="translate(1325.305 1846.415) " >
<use href="#Tool[0004].Output.Graphic.TrendEdge.Array.Profile" transform="rotate(50.760)" />
</g>
<g transform="translate(1320.187 1851.149) " >
<use href="#Tool[0004].Output.Graphic.TrendEdge.Array.Profile" transform="rotate(59.990)" />
</g>
<g transform="translate(1314.096 1854.712) " >
<use href="#Tool[0004].Output.Graphic.TrendEdge.Array.Profile" transform="rotate(69.220)" />
</g>
<g transform="translate(1307.380 1857.084) " >
<use href="#Tool[0004].Output.Graphic.TrendEdge.Array.Profile" transform="rotate(78.450)" />
</g>
<g transform="translate(1300.309 1858.543) " >
<use href="#Tool[0004].Output.Graphic.TrendEdge.Array.Profile" transform="rotate(87.680)" />
</g>
<g transform="translate(1293.046 1858.541) " >
<use href="#Tool[0004].Output.Graphic.TrendEdge.Array.Profile" transform="rotate(96.910)" />
</g>
<g transform="translate(1279.277 1854.112) " >
<use href="#Tool[0004].Output.Graphic.TrendEdge.Array.Profile" transform="rotate(115.370)" />
</g>
<g transform="translate(1273.358 1850.020) " >
<use href="#Tool[0004].Output.Graphic.TrendEdge.Array.Profile" transform="rotate(124.600)" />
</g>
<g transform="translate(1267.729 1845.631) " >
<use href="#Tool[0004].Output.Graphic.TrendEdge.Array.Profile" transform="rotate(133.830)" />
</g>
<g transform="translate(1263.250 1840.084) " >
<use href="#Tool[0004].Output.Graphic.TrendEdge.Array.Profile" transform="rotate(143.060)" />
</g>
<g transform="translate(1259.741 1833.937) " >
<use href="#Tool[0004].Output.Graphic.TrendEdge.Array.Profile" transform="rotate(152.290)" />
</g>
<g transform="translate(1256.790 1827.519) " >
<use href="#Tool[0004].Output.Graphic.TrendEdge.Array.Profile" transform="rotate(161.520)" />
</g>
<g transform="translate(1254.915 1820.684) " >
<use href="#Tool[0004].Output.Graphic.TrendEdge.Array.Profile" transform="rotate(170.750)" />
</g>
<g transform="translate(1254.461 1813.602) " >
<use href="#Tool[0004].Output.Graphic.TrendEdge.Array.Profile" transform="rotate(179.980)" />
</g>
<g transform="translate(1255.418 1806.605) " >
<use href="#Tool[0004].Output.Graphic.TrendEdge.Array.Profile" transform="rotate(189.210)" />
</g>
<g transform="translate(1257.618 1799.959) " >
<use href="#Tool[0004].Output.Graphic.TrendEdge.Array.Profile" transform="rotate(198.440)" />
</g>
<g transform="translate(1260.374 1793.600) " >
<use href="#Tool[0004].Output.Graphic.TrendEdge.Array.Profile" transform="rotate(207.670)" />
</g>
<g transform="translate(1264.034 1787.715) " >
<use href="#Tool[0004].Output.Graphic.TrendEdge.Array.Profile" transform="rotate(216.900)" />
</g>
<g transform="translate(1268.845 1782.747) " >
<use href="#Tool[0004].Output.Graphic.TrendEdge.Array.Profile" transform="rotate(226.130)" />
</g>
<g transform="translate(1274.344 1778.630) " >
<use href="#Tool[0004].Output.Graphic.TrendEdge.Array.Profile" transform="rotate(235.360)" />
</g>
<g transform="translate(1280.111 1774.887) " >
<use href="#Tool[0004].Output.Graphic.TrendEdge.Array.Profile" transform="rotate(244.590)" />
</g>
<g transform="translate(1286.573 1772.506) " >
<use href="#Tool[0004].Output.Graphic.TrendEdge.Array.Profile" transform="rotate(253.820)" />
</g>
<g transform="translate(1293.304 1771.019) " >
<use href="#Tool[0004].Output.Graphic.TrendEdge.Array.Profile" transform="rotate(263.050)" />
</g>
<g transform="translate(1300.193 1770.786) " >
<use href="#Tool[0004].Output.Graphic.TrendEdge.Array.Profile" transform="rotate(272.280)" />
</g>
<g transform="translate(1306.680 1773.372) " >
<use href="#Tool[0004].Output.Graphic.TrendEdge.Array.Profile" transform="rotate(281.510)" />
</g>
<g transform="translate(1312.968 1775.354) " >
<use href="#Tool[0004].Output.Graphic.TrendEdge.Array.Profile" transform="rotate(290.740)" />
</g>
<g transform="translate(1318.801 1778.364) " >
<use href="#Tool[0004].Output.Graphic.TrendEdge.Array.Profile" transform="rotate(299.970)" />
</g>
<g transform="translate(1323.986 1782.328) " >
<use href="#Tool[0004].Output.Graphic.TrendEdge.Array.Profile" transform="rotate(309.200)" />
</g>
<g transform="translate(1328.804 1786.703) " >
<use href="#Tool[0004].Output.Graphic.TrendEdge.Array.Profile" transform="rotate(318.430)" />
</g>
<g transform="translate(1332.714 1791.918) " >
<use href="#Tool[0004].Output.Graphic.TrendEdge.Array.Profile" transform="rotate(327.660)" />
</g>
<g transform="translate(1335.419 1797.826) " >
<use href="#Tool[0004].Output.Graphic.TrendEdge.Array.Profile" transform="rotate(336.890)" />
</g>
<g transform="translate(1337.010 1804.068) " >
<use href="#Tool[0004].Output.Graphic.TrendEdge.Array.Profile" transform="rotate(346.120)" />
</g>
<g transform="translate(1339.112 1810.282) " >
<use href="#Tool[0004].Output.Graphic.TrendEdge.Array.Profile" transform="rotate(355.350)" />
</g>
<g transform="translate(1338.997 1816.830) " >
<use href="#Tool[0004].Output.Graphic.TrendEdge.Array.Profile" transform="rotate(4.580)" />
</g>
<g class="EnableCustomAttribute" custom_stroke-width="10.000" stroke="#22c55e" stroke-width="10.000" >
<path d="M1338.989,1816.852 L1338.375,1823.411 L1336.494,1829.768 L1334.193,1836.153 L1330.044,1841.529 L1325.305,1846.415 L1320.187,1851.149 L1314.096,1854.712 L1307.380,1857.084 L1300.309,1858.543 L1293.046,1858.541 L1285.879,1857.173 L1279.277,1854.112 L1273.358,1850.020 L1267.729,1845.631 L1263.250,1840.084 L1259.741,1833.937 L1256.790,1827.519 L1254.915,1820.684 L1254.461,1813.602 L1255.418,1806.605 L1257.618,1799.959 L1260.374,1793.600 L1264.034,1787.715 L1268.845,1782.747 L1274.344,1778.630 L1280.111,1774.887 L1286.573,1772.506 L1293.304,1771.019 L1300.193,1770.786 L1306.680,1773.372 L1312.968,1775.354 L1318.801,1778.364 L1323.986,1782.328 L1328.804,1786.703 L1332.714,1791.918 L1335.419,1797.826 L1337.010,1804.068 L1339.112,1810.282 L1338.997,1816.830 L1338.989,1816.852 " fill="none" />
</g>
<defs >
<svg id="Tool[0004].Output.Graphic.TrendEdge.Primary.Profile" overflow="visible" >
<g class="EnableCustomAttribute" custom_scale="1" >
<circle cx="0.000" cy="0.000" r="8.000" fill="#22c55e" fill-opacity="1.000" stroke="#22c55e" stroke-opacity="1.000" stroke-width="3.000" />
</g>
</svg>
</defs>
<g transform="translate(1285.879 1857.173) " >
<use href="#Tool[0004].Output.Graphic.TrendEdge.Primary.Profile" transform="rotate(106.140)" />
</g>
<defs >
<svg id="Tool[0004].Output.Graphic.TrendEdge.Primary.Target.Edge" overflow="visible" >
<g class="EnableCustomAttribute" custom_stroke-width="10.000" stroke="#22c55e" stroke-width="10.000" >
<path d="M-7.208,44.800 A45.376,45.376 0 0 1 -17.832,41.726 M-17.832,41.726 Z" fill="none" />
</g>
</svg>
</defs>
<g transform="translate(1298.491 1813.586) " >
<use href="#Tool[0004].Output.Graphic.TrendEdge.Primary.Target.Edge" transform="rotate(0.000)" />
</g>
<defs >
<svg id="Tool[0004].Output.Graphic.TrendEdge.Primary.Target.ArrowedLine" overflow="visible" >
<g class="EnableCustomAttribute" custom_stroke-width="10.000" stroke="#22c55e" stroke-width="10.000" >
<line x1="6.306" y1="-21.794" x2="-6.306" y2="21.794" fill="#000000" fill-opacity="1.000" />
</g>
</svg>
</defs>
<g transform="translate(1292.185 1835.379) " >
<use href="#Tool[0004].Output.Graphic.TrendEdge.Primary.Target.ArrowedLine" transform="rotate(0.000)" />
</g>
<defs >
<svg id="Tool[0004].Output.Graphic.TrendEdge.Primary.Target.ArrowedLine.StartTip" overflow="visible" >
<g class="EnableCustomAttribute" custom_scale="1" >
<polygon points="0.000,0.000 0.000,0.000 0.000,0.000 " fill="none" stroke="none" />
</g>
</svg>
</defs>
<g transform="translate(1298.491 1813.586) " >
<use href="#Tool[0004].Output.Graphic.TrendEdge.Primary.Target.ArrowedLine.StartTip" transform="rotate(-73.861)" />
</g>
<defs >
<svg id="Tool[0004].Output.Graphic.TrendEdge.Primary.Target.ArrowedLine.EndTip" overflow="visible" >
<g class="EnableCustomAttribute" custom_scale="1" >
<polygon points="0.000,0.000 -16.000,-9.600 -16.000,9.600 " fill="#22c55e" fill-opacity="1.000" stroke="none" />
</g>
</svg>
</defs>
<g transform="translate(1285.879 1857.173) " >
<use href="#Tool[0004].Output.Graphic.TrendEdge.Primary.Target.ArrowedLine.EndTip" transform="rotate(106.139)" />
</g>

<defs >
<svg id="Tool[0004].Output.Graphic.DetectedShape" overflow="visible" >
<g class="EnableCustomAttribute" custom_stroke-width="10.000" stroke="#22c55e" stroke-width="10.000" >
<circle cx="0.000" cy="0.000" r="42.419" fill="none" />
</g>
</svg>
</defs>
<g transform="translate(1296.913 1814.729) " >
<use href="#Tool[0004].Output.Graphic.DetectedShape" transform="rotate(0.000)" />
</g>
<defs >
<svg id="Tool[0004].Output.Graphic.DetectedShape.Point" overflow="visible" >
<g class="EnableCustomAttribute" custom_scale="1" >
<polygon points="-2.000,-20.000 -2.000,-2.000 -20.000,-2.000 -20.000,2.000 -2.000,2.000 -2.000,20.000 2.000,20.000 2.000,2.000 20.000,2.000 20.000,-2.000 
    2.000,-2.000 2.000,-20.000 " fill="#22c55e" fill-opacity="1.000" stroke="none" paint-order="stroke" />
</g>
</svg>
</defs>
<g transform="translate(1296.913 1814.729) " >
<use href="#Tool[0004].Output.Graphic.DetectedShape.Point" transform="rotate(0.000)" />
</g>

</svg>
