<svg viewBox="0 0 4400 3296" width="4400" height="3296" overflow="visible" preserveAspectRatio="xMidYMid" xmlns="http://www.w3.org/2000/svg" xmlns:xlink="http://www.w3.org/1999/xlink" version="1.1">


<g class="EnableCustomAttribute" custom_stroke-width="10.000" stroke="#22c55e" stroke-width="10.000" >
<path d="M467.989,1863.674 L4177.982,1692.761 " fill="none" />
</g>
<defs >
<svg id="Tool[0007].Output.Graphic.DimensionLine.Tips" overflow="visible" >
<g class="EnableCustomAttribute" custom_scale="1" >
<polygon points="0.000,0.000 -16.000,-9.600 -16.000,9.600 " fill="#22c55e" fill-opacity="1.000" stroke="none" />
</g>
<text x="1646.962" y="1614.848" font-family="Arial, sans-serif" font-size="45" fill="#22c55e" stroke="#000000" stroke-width="3" paint-order="stroke" opacity="0.8">Radio Ciculo Izquierdo</text>
<text x="1646.962" y="1724.848" font-family="Arial, sans-serif" font-size="90" font-weight="bold" fill="#22c55e" stroke="#000000" stroke-width="5" paint-order="stroke">11.728 mm</text>
<text x="-196.46000000000004" y="1647.04" font-family="Arial, sans-serif" font-size="45" fill="#22c55e" stroke="#000000" stroke-width="3" paint-order="stroke" opacity="0.8">Radio Circulo Derecho</text>
<text x="-196.46000000000004" y="1757.04" font-family="Arial, sans-serif" font-size="90" font-weight="bold" fill="#22c55e" stroke="#000000" stroke-width="5" paint-order="stroke">12.079 mm</text>
</svg>
</defs>
<g transform="translate(467.989 1863.674) " >
<use href="#Tool[0007].Output.Graphic.DimensionLine.Tips" transform="rotate(177.362)" />
</g>
<g transform="translate(4177.982 1692.761) " >
<use href="#Tool[0007].Output.Graphic.DimensionLine.Tips" transform="rotate(357.362)" />
</g>

<defs >
<svg id="Tool[0007].Output.Graphic.PrimaryTarget.Edge2" overflow="visible" >
<g class="EnableCustomAttribute" custom_stroke-width="10.000" stroke="#22c55e" stroke-width="10.000" >
<line x1="0.000" y1="-85.500" x2="0.000" y2="85.500" fill="#000000" fill-opacity="1.000" />
</g>
</svg>
</defs>
<defs >
<svg id="Tool[0007].Output.Graphic.PrimaryTarget.Edge1" overflow="visible" >
<g class="EnableCustomAttribute" custom_stroke-width="10.000" stroke="#22c55e" stroke-width="10.000" >
<line x1="0.000" y1="-85.500" x2="0.000" y2="85.500" fill="#000000" fill-opacity="1.000" />
</g>
</svg>
</defs>
<g transform="translate(4177.982 1692.761) " >
<use href="#Tool[0007].Output.Graphic.PrimaryTarget.Edge2" transform="rotate(357.361)" />
</g>
<g transform="translate(467.989 1863.674) " >
<use href="#Tool[0007].Output.Graphic.PrimaryTarget.Edge1" transform="rotate(357.361)" />
</g>

<g class="EnableCustomAttribute" custom_stroke-width="10.000" stroke="#22c55e" stroke-width="10.000" >
<path d="M2240.572,1622.189 L2257.490,1964.817 " fill="none" />
</g>
<defs >
<svg id="Tool[0006].Output.Graphic.DimensionLine.Tips" overflow="visible" >
<g class="EnableCustomAttribute" custom_scale="1" >
<polygon points="0.000,0.000 -16.000,-9.600 -16.000,9.600 " fill="#22c55e" fill-opacity="1.000" stroke="none" />
</g>
</svg>
</defs>
<g transform="translate(2240.572 1622.189) " >
<use href="#Tool[0006].Output.Graphic.DimensionLine.Tips" transform="rotate(267.173)" />
</g>
<g transform="translate(2257.490 1964.817) " >
<use href="#Tool[0006].Output.Graphic.DimensionLine.Tips" transform="rotate(87.173)" />
</g>

<defs >
<svg id="Tool[0006].Output.Graphic.PrimaryTarget.Edge2" overflow="visible" >
<g class="EnableCustomAttribute" custom_stroke-width="10.000" stroke="#22c55e" stroke-width="10.000" >
<line x1="0.000" y1="-802.500" x2="0.000" y2="802.500" fill="#000000" fill-opacity="1.000" />
</g>
</svg>
</defs>
<defs >
<svg id="Tool[0006].Output.Graphic.PrimaryTarget.Edge1" overflow="visible" >
<g class="EnableCustomAttribute" custom_stroke-width="10.000" stroke="#22c55e" stroke-width="10.000" >
<line x1="0.000" y1="-802.500" x2="0.000" y2="802.500" fill="#000000" fill-opacity="1.000" />
</g>
</svg>
</defs>
<g transform="translate(2257.490 1964.817) " >
<use href="#Tool[0006].Output.Graphic.PrimaryTarget.Edge2" transform="rotate(87.171)" />
</g>
<g transform="translate(2240.572 1622.189) " >
<use href="#Tool[0006].Output.Graphic.PrimaryTarget.Edge1" transform="rotate(87.171)" />
</g>

<defs >
<svg id="Tool[0005].Output.Graphic.TrendEdge.Primary.Segment" overflow="visible" >
<g class="EnableCustomAttribute" custom_stroke-width="10.000" stroke="#22c55e" stroke-width="10.000" >
<path d="M1.000,0.000 L66.000,0.000 A66.000,66.000 0 0 1 64.997,11.461 L0.985,0.174 A2.000,2.000 0 0 0 1.000,0.000 Z" fill="none" />
</g>
</svg>
</defs>
<g transform="translate(650.541 1847.277) " >
<use href="#Tool[0005].Output.Graphic.TrendEdge.Primary.Segment" transform="rotate(479.741)" />
</g>
<defs >
<svg id="Tool[0005].Output.Graphic.TrendEdge.Array.Profile" overflow="visible" >
<g class="EnableCustomAttribute" custom_scale="1" >
<circle cx="0.000" cy="0.000" r="8.000" fill="#22c55e" fill-opacity="1.000" stroke="#22c55e" stroke-opacity="1.000" stroke-width="3.000" />
</g>
</svg>
</defs>
<g transform="translate(696.974 1851.136) " >
<use href="#Tool[0005].Output.Graphic.TrendEdge.Array.Profile" transform="rotate(4.750)" />
</g>
<g transform="translate(696.110 1858.618) " >
<use href="#Tool[0005].Output.Graphic.TrendEdge.Array.Profile" transform="rotate(13.980)" />
</g>
<g transform="translate(693.857 1865.848) " >
<use href="#Tool[0005].Output.Graphic.TrendEdge.Array.Profile" transform="rotate(23.210)" />
</g>
<g transform="translate(689.796 1872.226) " >
<use href="#Tool[0005].Output.Graphic.TrendEdge.Array.Profile" transform="rotate(32.440)" />
</g>
<g transform="translate(684.723 1877.700) " >
<use href="#Tool[0005].Output.Graphic.TrendEdge.Array.Profile" transform="rotate(41.670)" />
</g>
<g transform="translate(679.000 1882.297) " >
<use href="#Tool[0005].Output.Graphic.TrendEdge.Array.Profile" transform="rotate(50.900)" />
</g>
<g transform="translate(672.740 1885.932) " >
<use href="#Tool[0005].Output.Graphic.TrendEdge.Array.Profile" transform="rotate(60.130)" />
</g>
<g transform="translate(666.100 1888.592) " >
<use href="#Tool[0005].Output.Graphic.TrendEdge.Array.Profile" transform="rotate(69.360)" />
</g>
<g transform="translate(659.148 1889.943) " >
<use href="#Tool[0005].Output.Graphic.TrendEdge.Array.Profile" transform="rotate(78.590)" />
</g>
<g transform="translate(652.200 1890.874) " >
<use href="#Tool[0005].Output.Graphic.TrendEdge.Array.Profile" transform="rotate(87.820)" />
</g>
<g transform="translate(645.259 1890.003) " >
<use href="#Tool[0005].Output.Graphic.TrendEdge.Array.Profile" transform="rotate(97.050)" />
</g>
<g transform="translate(638.561 1888.306) " >
<use href="#Tool[0005].Output.Graphic.TrendEdge.Array.Profile" transform="rotate(106.280)" />
</g>
<g transform="translate(625.197 1900.388) " >
<use href="#Tool[0005].Output.Graphic.TrendEdge.Array.Profile" transform="rotate(115.510)" />
</g>
<g transform="translate(636.068 1862.278) " >
<use href="#Tool[0005].Output.Graphic.TrendEdge.Array.Profile" transform="rotate(133.970)" />
</g>
<g transform="translate(634.360 1859.381) " >
<use href="#Tool[0005].Output.Graphic.TrendEdge.Array.Profile" transform="rotate(143.200)" />
</g>
<g transform="translate(633.420 1856.215) " >
<use href="#Tool[0005].Output.Graphic.TrendEdge.Array.Profile" transform="rotate(152.430)" />
</g>
<g transform="translate(632.834 1853.146) " >
<use href="#Tool[0005].Output.Graphic.TrendEdge.Array.Profile" transform="rotate(161.660)" />
</g>
<g transform="translate(631.140 1850.387) " >
<use href="#Tool[0005].Output.Graphic.TrendEdge.Array.Profile" transform="rotate(170.890)" />
</g>
<g transform="translate(631.728 1847.238) " >
<use href="#Tool[0005].Output.Graphic.TrendEdge.Array.Profile" transform="rotate(180.120)" />
</g>
<g transform="translate(632.950 1844.381) " >
<use href="#Tool[0005].Output.Graphic.TrendEdge.Array.Profile" transform="rotate(189.350)" />
</g>
<g transform="translate(634.781 1841.979) " >
<use href="#Tool[0005].Output.Graphic.TrendEdge.Array.Profile" transform="rotate(198.580)" />
</g>
<g transform="translate(636.671 1839.961) " >
<use href="#Tool[0005].Output.Graphic.TrendEdge.Array.Profile" transform="rotate(207.810)" />
</g>
<g transform="translate(637.601 1837.512) " >
<use href="#Tool[0005].Output.Graphic.TrendEdge.Array.Profile" transform="rotate(217.040)" />
</g>
<g transform="translate(607.712 1802.504) " >
<use href="#Tool[0005].Output.Graphic.TrendEdge.Array.Profile" transform="rotate(226.270)" />
</g>
<g transform="translate(618.282 1800.342) " >
<use href="#Tool[0005].Output.Graphic.TrendEdge.Array.Profile" transform="rotate(235.500)" />
</g>
<g transform="translate(628.079 1799.695) " >
<use href="#Tool[0005].Output.Graphic.TrendEdge.Array.Profile" transform="rotate(244.730)" />
</g>
<g transform="translate(638.854 1806.629) " >
<use href="#Tool[0005].Output.Graphic.TrendEdge.Array.Profile" transform="rotate(253.960)" />
</g>
<g transform="translate(645.346 1803.765) " >
<use href="#Tool[0005].Output.Graphic.TrendEdge.Array.Profile" transform="rotate(263.190)" />
</g>
<g transform="translate(652.425 1802.641) " >
<use href="#Tool[0005].Output.Graphic.TrendEdge.Array.Profile" transform="rotate(272.420)" />
</g>
<g transform="translate(659.535 1803.650) " >
<use href="#Tool[0005].Output.Graphic.TrendEdge.Array.Profile" transform="rotate(281.650)" />
</g>
<g transform="translate(666.696 1804.922) " >
<use href="#Tool[0005].Output.Graphic.TrendEdge.Array.Profile" transform="rotate(290.880)" />
</g>
<g transform="translate(672.939 1808.653) " >
<use href="#Tool[0005].Output.Graphic.TrendEdge.Array.Profile" transform="rotate(300.110)" />
</g>
<g transform="translate(678.793 1812.808) " >
<use href="#Tool[0005].Output.Graphic.TrendEdge.Array.Profile" transform="rotate(309.340)" />
</g>
<g transform="translate(685.044 1816.824) " >
<use href="#Tool[0005].Output.Graphic.TrendEdge.Array.Profile" transform="rotate(318.570)" />
</g>
<g transform="translate(690.028 1822.412) " >
<use href="#Tool[0005].Output.Graphic.TrendEdge.Array.Profile" transform="rotate(327.800)" />
</g>
<g transform="translate(693.416 1829.103) " >
<use href="#Tool[0005].Output.Graphic.TrendEdge.Array.Profile" transform="rotate(337.030)" />
</g>
<g transform="translate(695.487 1836.288) " >
<use href="#Tool[0005].Output.Graphic.TrendEdge.Array.Profile" transform="rotate(346.260)" />
</g>
<g transform="translate(696.932 1843.618) " >
<use href="#Tool[0005].Output.Graphic.TrendEdge.Array.Profile" transform="rotate(355.490)" />
</g>
<g transform="translate(696.968 1851.110) " >
<use href="#Tool[0005].Output.Graphic.TrendEdge.Array.Profile" transform="rotate(4.720)" />
</g>
<g class="EnableCustomAttribute" custom_stroke-width="10.000" stroke="#22c55e" stroke-width="10.000" >
<path d="M696.974,1851.136 L696.110,1858.618 L693.857,1865.848 L689.796,1872.226 L684.723,1877.700 L679.000,1882.297 L672.740,1885.932 L666.100,1888.592 L659.148,1889.943 L652.200,1890.874 L645.259,1890.003 L638.561,1888.306 L625.197,1900.388 L615.112,1898.367 L636.068,1862.278 L634.360,1859.381 L633.420,1856.215 L632.834,1853.146 L631.140,1850.387 L631.728,1847.238 L632.950,1844.381 L634.781,1841.979 L636.671,1839.961 L637.601,1837.512 L607.712,1802.504 L618.282,1800.342 L628.079,1799.695 L638.854,1806.629 L645.346,1803.765 L652.425,1802.641 L659.535,1803.650 L666.696,1804.922 L672.939,1808.653 L678.793,1812.808 L685.044,1816.824 L690.028,1822.412 L693.416,1829.103 L695.487,1836.288 L696.932,1843.618 L696.968,1851.110 L696.974,1851.136 " fill="none" />
</g>
<defs >
<svg id="Tool[0005].Output.Graphic.TrendEdge.Primary.Profile" overflow="visible" >
<g class="EnableCustomAttribute" custom_scale="1" >
<circle cx="0.000" cy="0.000" r="8.000" fill="#22c55e" fill-opacity="1.000" stroke="#22c55e" stroke-opacity="1.000" stroke-width="3.000" />
</g>
</svg>
</defs>
<g transform="translate(615.112 1898.367) " >
<use href="#Tool[0005].Output.Graphic.TrendEdge.Primary.Profile" transform="rotate(124.740)" />
</g>
<defs >
<svg id="Tool[0005].Output.Graphic.TrendEdge.Primary.Target.Edge" overflow="visible" >
<g class="EnableCustomAttribute" custom_stroke-width="10.000" stroke="#22c55e" stroke-width="10.000" >
<path d="M-28.940,55.029 A62.175,62.175 0 0 1 -41.393,46.393 M-41.393,46.393 Z" fill="none" />
</g>
</svg>
</defs>
<g transform="translate(650.541 1847.277) " >
<use href="#Tool[0005].Output.Graphic.TrendEdge.Primary.Target.Edge" transform="rotate(0.000)" />
</g>
<defs >
<svg id="Tool[0005].Output.Graphic.TrendEdge.Primary.Target.ArrowedLine" overflow="visible" >
<g class="EnableCustomAttribute" custom_stroke-width="10.000" stroke="#22c55e" stroke-width="10.000" >
<line x1="17.714" y1="-25.545" x2="-17.714" y2="25.545" fill="#000000" fill-opacity="1.000" />
</g>
</svg>
</defs>
<g transform="translate(632.826 1872.822) " >
<use href="#Tool[0005].Output.Graphic.TrendEdge.Primary.Target.ArrowedLine" transform="rotate(0.000)" />
</g>
<defs >
<svg id="Tool[0005].Output.Graphic.TrendEdge.Primary.Target.ArrowedLine.StartTip" overflow="visible" >
<g class="EnableCustomAttribute" custom_scale="1" >
<polygon points="0.000,0.000 0.000,0.000 0.000,0.000 " fill="none" stroke="none" />
</g>
</svg>
</defs>
<g transform="translate(650.541 1847.277) " >
<use href="#Tool[0005].Output.Graphic.TrendEdge.Primary.Target.ArrowedLine.StartTip" transform="rotate(-55.260)" />
</g>
<defs >
<svg id="Tool[0005].Output.Graphic.TrendEdge.Primary.Target.ArrowedLine.EndTip" overflow="visible" >
<g class="EnableCustomAttribute" custom_scale="1" >
<polygon points="0.000,0.000 -16.000,-9.600 -16.000,9.600 " fill="#22c55e" fill-opacity="1.000" stroke="none" />
</g>
</svg>
</defs>
<g transform="translate(615.112 1898.367) " >
<use href="#Tool[0005].Output.Graphic.TrendEdge.Primary.Target.ArrowedLine.EndTip" transform="rotate(124.740)" />
</g>

<defs >
<svg id="Tool[0005].Output.Graphic.DetectedShape" overflow="visible" >
<g class="EnableCustomAttribute" custom_stroke-width="10.000" stroke="#22c55e" stroke-width="10.000" >
<circle cx="0.000" cy="0.000" r="43.698" fill="none" />
</g>
</svg>
</defs>
<g transform="translate(653.540 1847.040) " >
<use href="#Tool[0005].Output.Graphic.DetectedShape" transform="rotate(0.000)" />
</g>
<defs >
<svg id="Tool[0005].Output.Graphic.DetectedShape.Point" overflow="visible" >
<g class="EnableCustomAttribute" custom_scale="1" >
<polygon points="-2.000,-20.000 -2.000,-2.000 -20.000,-2.000 -20.000,2.000 -2.000,2.000 -2.000,20.000 2.000,20.000 2.000,2.000 20.000,2.000 20.000,-2.000 
    2.000,-2.000 2.000,-20.000 " fill="#22c55e" fill-opacity="1.000" stroke="none" paint-order="stroke" />
</g>
</svg>
</defs>
<g transform="translate(653.540 1847.040) " >
<use href="#Tool[0005].Output.Graphic.DetectedShape.Point" transform="rotate(0.000)" />
</g>

<defs >
<svg id="Tool[0004].Output.Graphic.TrendEdge.Primary.Segment" overflow="visible" >
<g class="EnableCustomAttribute" custom_stroke-width="10.000" stroke="#22c55e" stroke-width="10.000" >
<path d="M1.000,0.000 L66.000,0.000 A66.000,66.000 0 0 1 64.997,11.461 L0.985,0.174 A2.000,2.000 0 0 0 1.000,0.000 Z" fill="none" />
</g>
</svg>
</defs>
<g transform="translate(1296.715 1813.111) " >
<use href="#Tool[0004].Output.Graphic.TrendEdge.Primary.Segment" transform="rotate(442.821)" />
</g>
<defs >
<svg id="Tool[0004].Output.Graphic.TrendEdge.Array.Profile" overflow="visible" >
<g class="EnableCustomAttribute" custom_scale="1" >
<circle cx="0.000" cy="0.000" r="8.000" fill="#22c55e" fill-opacity="1.000" stroke="#22c55e" stroke-opacity="1.000" stroke-width="3.000" />
</g>
</svg>
</defs>
<g transform="translate(1338.624 1816.594) " >
<use href="#Tool[0004].Output.Graphic.TrendEdge.Array.Profile" transform="rotate(4.750)" />
</g>
<g transform="translate(1338.343 1823.472) " >
<use href="#Tool[0004].Output.Graphic.TrendEdge.Array.Profile" transform="rotate(13.980)" />
</g>
<g transform="translate(1336.417 1830.133) " >
<use href="#Tool[0004].Output.Graphic.TrendEdge.Array.Profile" transform="rotate(23.210)" />
</g>
<g transform="translate(1333.803 1836.683) " >
<use href="#Tool[0004].Output.Graphic.TrendEdge.Array.Profile" transform="rotate(32.440)" />
</g>
<g transform="translate(1329.369 1842.174) " >
<use href="#Tool[0004].Output.Graphic.TrendEdge.Array.Profile" transform="rotate(41.670)" />
</g>
<g transform="translate(1324.556 1847.370) " >
<use href="#Tool[0004].Output.Graphic.TrendEdge.Array.Profile" transform="rotate(50.900)" />
</g>
<g transform="translate(1319.008 1851.929) " >
<use href="#Tool[0004].Output.Graphic.TrendEdge.Array.Profile" transform="rotate(60.130)" />
</g>
<g transform="translate(1312.631 1855.373) " >
<use href="#Tool[0004].Output.Graphic.TrendEdge.Array.Profile" transform="rotate(69.360)" />
</g>
<g transform="translate(1305.675 1857.523) " >
<use href="#Tool[0004].Output.Graphic.TrendEdge.Array.Profile" transform="rotate(78.590)" />
</g>
<g transform="translate(1291.136 1858.244) " >
<use href="#Tool[0004].Output.Graphic.TrendEdge.Array.Profile" transform="rotate(97.050)" />
</g>
<g transform="translate(1283.984 1856.714) " >
<use href="#Tool[0004].Output.Graphic.TrendEdge.Array.Profile" transform="rotate(106.280)" />
</g>
<g transform="translate(1277.717 1852.925) " >
<use href="#Tool[0004].Output.Graphic.TrendEdge.Array.Profile" transform="rotate(115.510)" />
</g>
<g transform="translate(1271.873 1848.935) " >
<use href="#Tool[0004].Output.Graphic.TrendEdge.Array.Profile" transform="rotate(124.740)" />
</g>
<g transform="translate(1266.504 1844.427) " >
<use href="#Tool[0004].Output.Graphic.TrendEdge.Array.Profile" transform="rotate(133.970)" />
</g>
<g transform="translate(1262.464 1838.734) " >
<use href="#Tool[0004].Output.Graphic.TrendEdge.Array.Profile" transform="rotate(143.200)" />
</g>
<g transform="translate(1259.096 1832.751) " >
<use href="#Tool[0004].Output.Graphic.TrendEdge.Array.Profile" transform="rotate(152.430)" />
</g>
<g transform="translate(1256.470 1826.452) " >
<use href="#Tool[0004].Output.Graphic.TrendEdge.Array.Profile" transform="rotate(161.660)" />
</g>
<g transform="translate(1254.867 1819.822) " >
<use href="#Tool[0004].Output.Graphic.TrendEdge.Array.Profile" transform="rotate(170.890)" />
</g>
<g transform="translate(1254.548 1813.024) " >
<use href="#Tool[0004].Output.Graphic.TrendEdge.Array.Profile" transform="rotate(180.120)" />
</g>
<g transform="translate(1255.681 1806.357) " >
<use href="#Tool[0004].Output.Graphic.TrendEdge.Array.Profile" transform="rotate(189.350)" />
</g>
<g transform="translate(1257.722 1800.005) " >
<use href="#Tool[0004].Output.Graphic.TrendEdge.Array.Profile" transform="rotate(198.580)" />
</g>
<g transform="translate(1260.295 1793.902) " >
<use href="#Tool[0004].Output.Graphic.TrendEdge.Array.Profile" transform="rotate(207.810)" />
</g>
<g transform="translate(1263.688 1788.186) " >
<use href="#Tool[0004].Output.Graphic.TrendEdge.Array.Profile" transform="rotate(217.040)" />
</g>
<g transform="translate(1268.224 1783.327) " >
<use href="#Tool[0004].Output.Graphic.TrendEdge.Array.Profile" transform="rotate(226.270)" />
</g>
<g transform="translate(1273.481 1779.307) " >
<use href="#Tool[0004].Output.Graphic.TrendEdge.Array.Profile" transform="rotate(235.500)" />
</g>
<g transform="translate(1279.006 1775.597) " >
<use href="#Tool[0004].Output.Graphic.TrendEdge.Array.Profile" transform="rotate(244.730)" />
</g>
<g transform="translate(1285.164 1772.934) " >
<use href="#Tool[0004].Output.Graphic.TrendEdge.Array.Profile" transform="rotate(253.960)" />
</g>
<g transform="translate(1291.738 1771.419) " >
<use href="#Tool[0004].Output.Graphic.TrendEdge.Array.Profile" transform="rotate(263.190)" />
</g>
<g transform="translate(1298.488 1771.125) " >
<use href="#Tool[0004].Output.Graphic.TrendEdge.Array.Profile" transform="rotate(272.420)" />
</g>
<g transform="translate(1305.069 1772.587) " >
<use href="#Tool[0004].Output.Graphic.TrendEdge.Array.Profile" transform="rotate(281.650)" />
</g>
<g transform="translate(1311.264 1774.968) " >
<use href="#Tool[0004].Output.Graphic.TrendEdge.Array.Profile" transform="rotate(290.880)" />
</g>
<g transform="translate(1317.372 1777.491) " >
<use href="#Tool[0004].Output.Graphic.TrendEdge.Array.Profile" transform="rotate(300.110)" />
</g>
<g transform="translate(1322.784 1781.307) " >
<use href="#Tool[0004].Output.Graphic.TrendEdge.Array.Profile" transform="rotate(309.340)" />
</g>
<g transform="translate(1327.739 1785.729) " >
<use href="#Tool[0004].Output.Graphic.TrendEdge.Array.Profile" transform="rotate(318.570)" />
</g>
<g transform="translate(1332.075 1790.846) " >
<use href="#Tool[0004].Output.Graphic.TrendEdge.Array.Profile" transform="rotate(327.800)" />
</g>
<g transform="translate(1335.079 1796.850) " >
<use href="#Tool[0004].Output.Graphic.TrendEdge.Array.Profile" transform="rotate(337.030)" />
</g>
<g transform="translate(1336.835 1803.303) " >
<use href="#Tool[0004].Output.Graphic.TrendEdge.Array.Profile" transform="rotate(346.260)" />
</g>
<g transform="translate(1338.515 1809.815) " >
<use href="#Tool[0004].Output.Graphic.TrendEdge.Array.Profile" transform="rotate(355.490)" />
</g>
<g transform="translate(1338.653 1816.574) " >
<use href="#Tool[0004].Output.Graphic.TrendEdge.Array.Profile" transform="rotate(4.720)" />
</g>
<g class="EnableCustomAttribute" custom_stroke-width="10.000" stroke="#22c55e" stroke-width="10.000" >
<path d="M1338.624,1816.594 L1338.343,1823.472 L1336.417,1830.133 L1333.803,1836.683 L1329.369,1842.174 L1324.556,1847.370 L1319.008,1851.929 L1312.631,1855.373 L1305.675,1857.523 L1298.452,1858.759 L1291.136,1858.244 L1283.984,1856.714 L1277.717,1852.925 L1271.873,1848.935 L1266.504,1844.427 L1262.464,1838.734 L1259.096,1832.751 L1256.470,1826.452 L1254.867,1819.822 L1254.548,1813.024 L1255.681,1806.357 L1257.722,1800.005 L1260.295,1793.902 L1263.688,1788.186 L1268.224,1783.327 L1273.481,1779.307 L1279.006,1775.597 L1285.164,1772.934 L1291.738,1771.419 L1298.488,1771.125 L1305.069,1772.587 L1311.264,1774.968 L1317.372,1777.491 L1322.784,1781.307 L1327.739,1785.729 L1332.075,1790.846 L1335.079,1796.850 L1336.835,1803.303 L1338.515,1809.815 L1338.653,1816.574 L1338.624,1816.594 " fill="none" />
</g>
<defs >
<svg id="Tool[0004].Output.Graphic.TrendEdge.Primary.Profile" overflow="visible" >
<g class="EnableCustomAttribute" custom_scale="1" >
<circle cx="0.000" cy="0.000" r="8.000" fill="#22c55e" fill-opacity="1.000" stroke="#22c55e" stroke-opacity="1.000" stroke-width="3.000" />
</g>
</svg>
</defs>
<g transform="translate(1298.452 1858.759) " >
<use href="#Tool[0004].Output.Graphic.TrendEdge.Primary.Profile" transform="rotate(87.820)" />
</g>
<defs >
<svg id="Tool[0004].Output.Graphic.TrendEdge.Primary.Target.Edge" overflow="visible" >
<g class="EnableCustomAttribute" custom_stroke-width="10.000" stroke="#22c55e" stroke-width="10.000" >
<path d="M7.288,45.096 A45.681,45.681 0 0 1 -3.838,45.520 M-3.838,45.520 Z" fill="none" />
</g>
</svg>
</defs>
<g transform="translate(1296.715 1813.111) " >
<use href="#Tool[0004].Output.Graphic.TrendEdge.Primary.Target.Edge" transform="rotate(0.000)" />
</g>
<defs >
<svg id="Tool[0004].Output.Graphic.TrendEdge.Primary.Target.ArrowedLine" overflow="visible" >
<g class="EnableCustomAttribute" custom_stroke-width="10.000" stroke="#22c55e" stroke-width="10.000" >
<line x1="-0.869" y1="-22.824" x2="0.869" y2="22.824" fill="#000000" fill-opacity="1.000" />
</g>
</svg>
</defs>
<g transform="translate(1297.584 1835.935) " >
<use href="#Tool[0004].Output.Graphic.TrendEdge.Primary.Target.ArrowedLine" transform="rotate(0.000)" />
</g>
<defs >
<svg id="Tool[0004].Output.Graphic.TrendEdge.Primary.Target.ArrowedLine.StartTip" overflow="visible" >
<g class="EnableCustomAttribute" custom_scale="1" >
<polygon points="0.000,0.000 0.000,0.000 0.000,0.000 " fill="none" stroke="none" />
</g>
</svg>
</defs>
<g transform="translate(1296.715 1813.111) " >
<use href="#Tool[0004].Output.Graphic.TrendEdge.Primary.Target.ArrowedLine.StartTip" transform="rotate(-92.179)" />
</g>
<defs >
<svg id="Tool[0004].Output.Graphic.TrendEdge.Primary.Target.ArrowedLine.EndTip" overflow="visible" >
<g class="EnableCustomAttribute" custom_scale="1" >
<polygon points="0.000,0.000 -16.000,-9.600 -16.000,9.600 " fill="#22c55e" fill-opacity="1.000" stroke="none" />
</g>
</svg>
</defs>
<g transform="translate(1298.452 1858.759) " >
<use href="#Tool[0004].Output.Graphic.TrendEdge.Primary.Target.ArrowedLine.EndTip" transform="rotate(87.821)" />
</g>

<defs >
<svg id="Tool[0004].Output.Graphic.DetectedShape" overflow="visible" >
<g class="EnableCustomAttribute" custom_stroke-width="10.000" stroke="#22c55e" stroke-width="10.000" >
<circle cx="0.000" cy="0.000" r="42.428" fill="none" />
</g>
</svg>
</defs>
<g transform="translate(1296.962 1814.848) " >
<use href="#Tool[0004].Output.Graphic.DetectedShape" transform="rotate(0.000)" />
</g>
<defs >
<svg id="Tool[0004].Output.Graphic.DetectedShape.Point" overflow="visible" >
<g class="EnableCustomAttribute" custom_scale="1" >
<polygon points="-2.000,-20.000 -2.000,-2.000 -20.000,-2.000 -20.000,2.000 -2.000,2.000 -2.000,20.000 2.000,20.000 2.000,2.000 20.000,2.000 20.000,-2.000 
    2.000,-2.000 2.000,-20.000 " fill="#22c55e" fill-opacity="1.000" stroke="none" paint-order="stroke" />
</g>
</svg>
</defs>
<g transform="translate(1296.962 1814.848) " >
<use href="#Tool[0004].Output.Graphic.DetectedShape.Point" transform="rotate(0.000)" />
</g>

</svg>
