<svg graphicVer="2" x="-999999" y="-999999" width="4400" height="3296" overflow="visible" preserveAspectRatio="xMidYMid" xml:space="default" xmlns="http://www.w3.org/2000/svg" xmlns:xlink="http://www.w3.org/1999/xlink" xmlns:xml="http://www.w3.org/XML/1998/namespace" version="1.1" >
<image x="0" y="0" width="4400" height="3296" xlink:href="20260423_090902115_0000000026_T0000_01_CAM.bmp" />
<!--Tool[0007].Output.Graphic.Region-->
<g class="EnableCustomAttribute" custom_stroke-width="2.000" stroke="#2a56af" stroke-width="2.000" >
<rect x="424.782" y="1689.352" width="3916.000" height="167.000" fill="none" transform="rotate(717.224 2382.782 1772.852)" />
<polygon points="2378.739,1689.450 2370.739,1684.650 2370.739,1694.250 " fill="#2a56af" fill-opacity="1.000" stroke="none" transform="rotate(717.224 2378.739 1689.450)" />
</g>
<!--Tool[0007].Output.Graphic.DimensionLine-->
<g class="EnableCustomAttribute" custom_stroke-width="2.000" stroke="#87bb0c" stroke-width="2.000" >
<path d="M468.481,1865.613 L4198.069,1684.888 " fill="none" />
</g>
<defs >
<svg id="Tool[0007].Output.Graphic.DimensionLine.Tips" overflow="visible" >
<g class="EnableCustomAttribute" custom_scale="1" >
<polygon points="0.000,0.000 -8.000,-4.800 -8.000,4.800 " fill="#87bb0c" fill-opacity="1.000" stroke="none" />
</g>
</svg>
</defs>
<g transform="translate(468.481 1865.613) " >
<use href="#Tool[0007].Output.Graphic.DimensionLine.Tips" transform="rotate(177.226)" />
</g>
<g transform="translate(4198.069 1684.888) " >
<use href="#Tool[0007].Output.Graphic.DimensionLine.Tips" transform="rotate(357.226)" />
</g>
<!--Tool[0007].Output.Graphic.PrimaryTarget-->
<defs >
<svg id="Tool[0007].Output.Graphic.PrimaryTarget.Edge2" overflow="visible" >
<g class="EnableCustomAttribute" custom_stroke-width="2.000" stroke="#87bb0c" stroke-width="2.000" >
<line x1="0.000" y1="-85.500" x2="0.000" y2="85.500" fill="#000000" fill-opacity="1.000" />
</g>
</svg>
</defs>
<defs >
<svg id="Tool[0007].Output.Graphic.PrimaryTarget.Edge1" overflow="visible" >
<g class="EnableCustomAttribute" custom_stroke-width="2.000" stroke="#87bb0c" stroke-width="2.000" >
<line x1="0.000" y1="-85.500" x2="0.000" y2="85.500" fill="#000000" fill-opacity="1.000" />
</g>
</svg>
</defs>
<g transform="translate(4198.069 1684.888) " >
<use href="#Tool[0007].Output.Graphic.PrimaryTarget.Edge2" transform="rotate(357.224)" />
</g>
<g transform="translate(468.481 1865.613) " >
<use href="#Tool[0007].Output.Graphic.PrimaryTarget.Edge1" transform="rotate(357.224)" />
</g>
<!--Tool[0006].Output.Graphic.Region-->
<g class="EnableCustomAttribute" custom_stroke-width="2.000" stroke="#2a56af" stroke-width="2.000" >
<rect x="1943.621" y="922.961" width="603.000" height="1601.000" fill="none" transform="rotate(447.034 2245.121 1723.461)" />
<polygon points="3044.549,1682.047 3036.549,1677.247 3036.549,1686.847 " fill="#2a56af" fill-opacity="1.000" stroke="none" transform="rotate(447.034 3044.549 1682.047)" />
</g>
<!--Tool[0006].Output.Graphic.DimensionLine-->
<g class="EnableCustomAttribute" custom_stroke-width="2.000" stroke="#87bb0c" stroke-width="2.000" >
<path d="M2239.861,1621.859 L2257.599,1964.503 " fill="none" />
</g>
<defs >
<svg id="Tool[0006].Output.Graphic.DimensionLine.Tips" overflow="visible" >
<g class="EnableCustomAttribute" custom_scale="1" >
<polygon points="0.000,0.000 -8.000,-4.800 -8.000,4.800 " fill="#87bb0c" fill-opacity="1.000" stroke="none" />
</g>
</svg>
</defs>
<g transform="translate(2239.861 1621.859) " >
<use href="#Tool[0006].Output.Graphic.DimensionLine.Tips" transform="rotate(267.037)" />
</g>
<g transform="translate(2257.599 1964.503) " >
<use href="#Tool[0006].Output.Graphic.DimensionLine.Tips" transform="rotate(87.037)" />
</g>
<!--Tool[0006].Output.Graphic.PrimaryTarget-->
<defs >
<svg id="Tool[0006].Output.Graphic.PrimaryTarget.Edge2" overflow="visible" >
<g class="EnableCustomAttribute" custom_stroke-width="2.000" stroke="#87bb0c" stroke-width="2.000" >
<line x1="0.000" y1="-802.500" x2="0.000" y2="802.500" fill="#000000" fill-opacity="1.000" />
</g>
</svg>
</defs>
<defs >
<svg id="Tool[0006].Output.Graphic.PrimaryTarget.Edge1" overflow="visible" >
<g class="EnableCustomAttribute" custom_stroke-width="2.000" stroke="#87bb0c" stroke-width="2.000" >
<line x1="0.000" y1="-802.500" x2="0.000" y2="802.500" fill="#000000" fill-opacity="1.000" />
</g>
</svg>
</defs>
<g transform="translate(2257.599 1964.503) " >
<use href="#Tool[0006].Output.Graphic.PrimaryTarget.Edge2" transform="rotate(87.034)" />
</g>
<g transform="translate(2239.861 1621.859) " >
<use href="#Tool[0006].Output.Graphic.PrimaryTarget.Edge1" transform="rotate(87.034)" />
</g>
<!--Tool[0005].Output.Graphic.Region-->
<g class="EnableCustomAttribute" custom_stroke-width="2.000" stroke="#2a56af" stroke-width="2.000" >
<path d="M650.271,1782.815 A66.000,66.000 0 0 0 650.271,1914.815 A66.000,66.000 0 0 0 650.271,1782.815 Z M650.271,1847.815 A1.000,1.000 0 0 1 650.271,1849.815 A1.000,1.000 0 0 1 650.271,1847.815 Z" fill="none" />
</g>
<!--Tool[0005].Output.Graphic.TrendEdge-->
<defs >
<svg id="Tool[0005].Output.Graphic.TrendEdge.Primary.Segment" overflow="visible" >
<g class="EnableCustomAttribute" custom_stroke-width="2.000" stroke="#87bb0c" stroke-width="2.000" >
<path d="M1.000,0.000 L66.000,0.000 A66.000,66.000 0 0 1 64.997,11.461 L0.985,0.174 A1.000,1.000 0 0 0 1.000,0.000 Z" fill="none" />
</g>
</svg>
</defs>
<g transform="translate(650.271 1848.815) " >
<use href="#Tool[0005].Output.Graphic.TrendEdge.Primary.Segment" transform="rotate(479.604)" />
</g>
<defs >
<svg id="Tool[0005].Output.Graphic.TrendEdge.Array.Profile" overflow="visible" >
<g class="EnableCustomAttribute" custom_scale="1" >
<circle cx="0.000" cy="0.000" r="2.000" fill="#ddb60e" fill-opacity="1.000" stroke="#ddb60e" stroke-opacity="1.000" stroke-width="0.600" />
</g>
</svg>
</defs>
<g transform="translate(697.397 1852.615) " >
<use href="#Tool[0005].Output.Graphic.TrendEdge.Array.Profile" transform="rotate(4.610)" />
</g>
<g transform="translate(696.245 1860.141) " >
<use href="#Tool[0005].Output.Graphic.TrendEdge.Array.Profile" transform="rotate(13.840)" />
</g>
<g transform="translate(693.713 1867.313) " >
<use href="#Tool[0005].Output.Graphic.TrendEdge.Array.Profile" transform="rotate(23.070)" />
</g>
<g transform="translate(689.372 1873.530) " >
<use href="#Tool[0005].Output.Graphic.TrendEdge.Array.Profile" transform="rotate(32.300)" />
</g>
<g transform="translate(684.121 1878.792) " >
<use href="#Tool[0005].Output.Graphic.TrendEdge.Array.Profile" transform="rotate(41.530)" />
</g>
<g transform="translate(678.342 1883.183) " >
<use href="#Tool[0005].Output.Graphic.TrendEdge.Array.Profile" transform="rotate(50.760)" />
</g>
<g transform="translate(672.017 1886.466) " >
<use href="#Tool[0005].Output.Graphic.TrendEdge.Array.Profile" transform="rotate(59.990)" />
</g>
<g transform="translate(665.525 1889.017) " >
<use href="#Tool[0005].Output.Graphic.TrendEdge.Array.Profile" transform="rotate(69.220)" />
</g>
<g transform="translate(658.754 1890.327) " >
<use href="#Tool[0005].Output.Graphic.TrendEdge.Array.Profile" transform="rotate(78.450)" />
</g>
<g transform="translate(651.952 1890.379) " >
<use href="#Tool[0005].Output.Graphic.TrendEdge.Array.Profile" transform="rotate(87.680)" />
</g>
<g transform="translate(645.278 1890.041) " >
<use href="#Tool[0005].Output.Graphic.TrendEdge.Array.Profile" transform="rotate(96.910)" />
</g>
<g transform="translate(638.839 1888.323) " >
<use href="#Tool[0005].Output.Graphic.TrendEdge.Array.Profile" transform="rotate(106.140)" />
</g>
<g transform="translate(626.355 1899.256) " >
<use href="#Tool[0005].Output.Graphic.TrendEdge.Array.Profile" transform="rotate(115.370)" />
</g>
<g transform="translate(636.353 1863.313) " >
<use href="#Tool[0005].Output.Graphic.TrendEdge.Array.Profile" transform="rotate(133.830)" />
</g>
<g transform="translate(635.148 1860.186) " >
<use href="#Tool[0005].Output.Graphic.TrendEdge.Array.Profile" transform="rotate(143.060)" />
</g>
<g transform="translate(634.112 1857.301) " >
<use href="#Tool[0005].Output.Graphic.TrendEdge.Array.Profile" transform="rotate(152.290)" />
</g>
<g transform="translate(633.319 1854.479) " >
<use href="#Tool[0005].Output.Graphic.TrendEdge.Array.Profile" transform="rotate(161.520)" />
</g>
<g transform="translate(632.234 1851.753) " >
<use href="#Tool[0005].Output.Graphic.TrendEdge.Array.Profile" transform="rotate(170.750)" />
</g>
<g transform="translate(632.320 1848.821) " >
<use href="#Tool[0005].Output.Graphic.TrendEdge.Array.Profile" transform="rotate(179.980)" />
</g>
<g transform="translate(632.668 1845.962) " >
<use href="#Tool[0005].Output.Graphic.TrendEdge.Array.Profile" transform="rotate(189.210)" />
</g>
<g transform="translate(634.169 1843.446) " >
<use href="#Tool[0005].Output.Graphic.TrendEdge.Array.Profile" transform="rotate(198.440)" />
</g>
<g transform="translate(635.898 1841.278) " >
<use href="#Tool[0005].Output.Graphic.TrendEdge.Array.Profile" transform="rotate(207.670)" />
</g>
<g transform="translate(637.828 1839.472) " >
<use href="#Tool[0005].Output.Graphic.TrendEdge.Array.Profile" transform="rotate(216.900)" />
</g>
<g transform="translate(632.552 1830.382) " >
<use href="#Tool[0005].Output.Graphic.TrendEdge.Array.Profile" transform="rotate(226.130)" />
</g>
<g transform="translate(616.238 1799.549) " >
<use href="#Tool[0005].Output.Graphic.TrendEdge.Array.Profile" transform="rotate(235.360)" />
</g>
<g transform="translate(626.938 1799.687) " >
<use href="#Tool[0005].Output.Graphic.TrendEdge.Array.Profile" transform="rotate(244.590)" />
</g>
<g transform="translate(638.299 1807.547) " >
<use href="#Tool[0005].Output.Graphic.TrendEdge.Array.Profile" transform="rotate(253.820)" />
</g>
<g transform="translate(644.880 1804.578) " >
<use href="#Tool[0005].Output.Graphic.TrendEdge.Array.Profile" transform="rotate(263.050)" />
</g>
<g transform="translate(652.108 1802.613) " >
<use href="#Tool[0005].Output.Graphic.TrendEdge.Array.Profile" transform="rotate(272.280)" />
</g>
<g transform="translate(659.448 1803.746) " >
<use href="#Tool[0005].Output.Graphic.TrendEdge.Array.Profile" transform="rotate(281.510)" />
</g>
<g transform="translate(666.865 1804.994) " >
<use href="#Tool[0005].Output.Graphic.TrendEdge.Array.Profile" transform="rotate(290.740)" />
</g>
<g transform="translate(673.350 1808.791) " >
<use href="#Tool[0005].Output.Graphic.TrendEdge.Array.Profile" transform="rotate(299.970)" />
</g>
<g transform="translate(679.360 1813.150) " >
<use href="#Tool[0005].Output.Graphic.TrendEdge.Array.Profile" transform="rotate(309.200)" />
</g>
<g transform="translate(685.816 1817.292) " >
<use href="#Tool[0005].Output.Graphic.TrendEdge.Array.Profile" transform="rotate(318.430)" />
</g>
<g transform="translate(690.881 1823.103) " >
<use href="#Tool[0005].Output.Graphic.TrendEdge.Array.Profile" transform="rotate(327.660)" />
</g>
<g transform="translate(694.076 1830.120) " >
<use href="#Tool[0005].Output.Graphic.TrendEdge.Array.Profile" transform="rotate(336.890)" />
</g>
<g transform="translate(696.247 1837.454) " >
<use href="#Tool[0005].Output.Graphic.TrendEdge.Array.Profile" transform="rotate(346.120)" />
</g>
<g transform="translate(697.315 1844.989) " >
<use href="#Tool[0005].Output.Graphic.TrendEdge.Array.Profile" transform="rotate(355.350)" />
</g>
<g transform="translate(697.374 1852.587) " >
<use href="#Tool[0005].Output.Graphic.TrendEdge.Array.Profile" transform="rotate(4.580)" />
</g>
<g class="EnableCustomAttribute" custom_stroke-width="2.000" stroke="#ddb60e" stroke-width="2.000" >
<path d="M697.397,1852.615 L696.245,1860.141 L693.713,1867.313 L689.372,1873.530 L684.121,1878.792 L678.342,1883.183 L672.017,1886.466 L665.525,1889.017 L658.754,1890.327 L651.952,1890.379 L645.278,1890.041 L638.839,1888.323 L626.355,1899.256 L615.150,1899.728 L636.353,1863.313 L635.148,1860.186 L634.112,1857.301 L633.319,1854.479 L632.234,1851.753 L632.320,1848.821 L632.668,1845.962 L634.169,1843.446 L635.898,1841.278 L637.828,1839.472 L632.552,1830.382 L616.238,1799.549 L626.938,1799.687 L638.299,1807.547 L644.880,1804.578 L652.108,1802.613 L659.448,1803.746 L666.865,1804.994 L673.350,1808.791 L679.360,1813.150 L685.816,1817.292 L690.881,1823.103 L694.076,1830.120 L696.247,1837.454 L697.315,1844.989 L697.374,1852.587 L697.397,1852.615 " fill="none" />
</g>
<defs >
<svg id="Tool[0005].Output.Graphic.TrendEdge.Primary.Profile" overflow="visible" >
<g class="EnableCustomAttribute" custom_scale="1" >
<circle cx="0.000" cy="0.000" r="2.000" fill="#87bb0c" fill-opacity="1.000" stroke="#87bb0c" stroke-opacity="1.000" stroke-width="0.600" />
</g>
</svg>
</defs>
<g transform="translate(615.150 1899.728) " >
<use href="#Tool[0005].Output.Graphic.TrendEdge.Primary.Profile" transform="rotate(124.600)" />
</g>
<defs >
<svg id="Tool[0005].Output.Graphic.TrendEdge.Primary.Target.Edge" overflow="visible" >
<g class="EnableCustomAttribute" custom_stroke-width="2.000" stroke="#87bb0c" stroke-width="2.000" >
<path d="M-28.657,54.815 A61.854,61.854 0 0 1 -41.066,46.254 M-41.066,46.254 Z" fill="none" />
</g>
</svg>
</defs>
<g transform="translate(650.271 1848.815) " >
<use href="#Tool[0005].Output.Graphic.TrendEdge.Primary.Target.Edge" transform="rotate(0.000)" />
</g>
<defs >
<svg id="Tool[0005].Output.Graphic.TrendEdge.Primary.Target.ArrowedLine" overflow="visible" >
<g class="EnableCustomAttribute" custom_stroke-width="2.000" stroke="#87bb0c" stroke-width="2.000" >
<line x1="17.561" y1="-25.456" x2="-17.561" y2="25.456" fill="#000000" fill-opacity="1.000" />
</g>
</svg>
</defs>
<g transform="translate(632.711 1874.271) " >
<use href="#Tool[0005].Output.Graphic.TrendEdge.Primary.Target.ArrowedLine" transform="rotate(0.000)" />
</g>
<defs >
<svg id="Tool[0005].Output.Graphic.TrendEdge.Primary.Target.ArrowedLine.StartTip" overflow="visible" >
<g class="EnableCustomAttribute" custom_scale="1" >
<polygon points="0.000,0.000 0.000,0.000 0.000,0.000 " fill="none" stroke="none" />
</g>
</svg>
</defs>
<g transform="translate(650.271 1848.815) " >
<use href="#Tool[0005].Output.Graphic.TrendEdge.Primary.Target.ArrowedLine.StartTip" transform="rotate(-55.401)" />
</g>
<defs >
<svg id="Tool[0005].Output.Graphic.TrendEdge.Primary.Target.ArrowedLine.EndTip" overflow="visible" >
<g class="EnableCustomAttribute" custom_scale="1" >
<polygon points="0.000,0.000 -8.000,-4.800 -8.000,4.800 " fill="#87bb0c" fill-opacity="1.000" stroke="none" />
</g>
</svg>
</defs>
<g transform="translate(615.150 1899.728) " >
<use href="#Tool[0005].Output.Graphic.TrendEdge.Primary.Target.ArrowedLine.EndTip" transform="rotate(124.599)" />
</g>
<!--Tool[0005].Output.Graphic.DetectedShape-->
<defs >
<svg id="Tool[0005].Output.Graphic.DetectedShape" overflow="visible" >
<g class="EnableCustomAttribute" custom_stroke-width="2.000" stroke="#87bb0c" stroke-width="2.000" >
<circle cx="0.000" cy="0.000" r="43.544" fill="none" />
</g>
</svg>
</defs>
<g transform="translate(654.167 1847.211) " >
<use href="#Tool[0005].Output.Graphic.DetectedShape" transform="rotate(0.000)" />
</g>
<defs >
<svg id="Tool[0005].Output.Graphic.DetectedShape.Point" overflow="visible" >
<g class="EnableCustomAttribute" custom_scale="1" >
<polygon points="-1.000,-10.000 -1.000,-1.000 -10.000,-1.000 -10.000,1.000 -1.000,1.000 -1.000,10.000 1.000,10.000 1.000,1.000 10.000,1.000 10.000,-1.000 
    1.000,-1.000 1.000,-10.000 " fill="#87bb0c" fill-opacity="1.000" stroke="none" paint-order="stroke" />
</g>
</svg>
</defs>
<g transform="translate(654.167 1847.211) " >
<use href="#Tool[0005].Output.Graphic.DetectedShape.Point" transform="rotate(0.000)" />
</g>
<!--Tool[0004].Output.Graphic.Region-->
<g class="EnableCustomAttribute" custom_stroke-width="2.000" stroke="#2a56af" stroke-width="2.000" >
<path d="M1296.363,1747.110 A66.000,66.000 0 0 0 1296.363,1879.110 A66.000,66.000 0 0 0 1296.363,1747.110 Z M1296.363,1812.110 A1.000,1.000 0 0 1 1296.363,1814.110 A1.000,1.000 0 0 1 1296.363,1812.110 Z" fill="none" />
</g>
<!--Tool[0004].Output.Graphic.TrendEdge-->
<defs >
<svg id="Tool[0004].Output.Graphic.TrendEdge.Primary.Segment" overflow="visible" >
<g class="EnableCustomAttribute" custom_stroke-width="2.000" stroke="#87bb0c" stroke-width="2.000" >
<path d="M1.000,0.000 L66.000,0.000 A66.000,66.000 0 0 1 64.997,11.461 L0.985,0.174 A1.000,1.000 0 0 0 1.000,0.000 Z" fill="none" />
</g>
</svg>
</defs>
<g transform="translate(1296.363 1813.110) " >
<use href="#Tool[0004].Output.Graphic.TrendEdge.Primary.Segment" transform="rotate(442.684)" />
</g>
<defs >
<svg id="Tool[0004].Output.Graphic.TrendEdge.Array.Profile" overflow="visible" >
<g class="EnableCustomAttribute" custom_scale="1" >
<circle cx="0.000" cy="0.000" r="2.000" fill="#ddb60e" fill-opacity="1.000" stroke="#ddb60e" stroke-opacity="1.000" stroke-width="0.600" />
</g>
</svg>
</defs>
<g transform="translate(1339.201 1816.565) " >
<use href="#Tool[0004].Output.Graphic.TrendEdge.Array.Profile" transform="rotate(4.610)" />
</g>
<g transform="translate(1338.835 1823.573) " >
<use href="#Tool[0004].Output.Graphic.TrendEdge.Array.Profile" transform="rotate(13.840)" />
</g>
<g transform="translate(1336.781 1830.321) " >
<use href="#Tool[0004].Output.Graphic.TrendEdge.Array.Profile" transform="rotate(23.070)" />
</g>
<g transform="translate(1334.193 1837.023) " >
<use href="#Tool[0004].Output.Graphic.TrendEdge.Array.Profile" transform="rotate(32.300)" />
</g>
<g transform="translate(1329.618 1842.562) " >
<use href="#Tool[0004].Output.Graphic.TrendEdge.Array.Profile" transform="rotate(41.530)" />
</g>
<g transform="translate(1324.612 1847.696) " >
<use href="#Tool[0004].Output.Graphic.TrendEdge.Array.Profile" transform="rotate(50.760)" />
</g>
<g transform="translate(1319.024 1852.345) " >
<use href="#Tool[0004].Output.Graphic.TrendEdge.Array.Profile" transform="rotate(59.990)" />
</g>
<g transform="translate(1312.482 1855.593) " >
<use href="#Tool[0004].Output.Graphic.TrendEdge.Array.Profile" transform="rotate(69.220)" />
</g>
<g transform="translate(1305.504 1857.848) " >
<use href="#Tool[0004].Output.Graphic.TrendEdge.Array.Profile" transform="rotate(78.450)" />
</g>
<g transform="translate(1290.904 1858.178) " >
<use href="#Tool[0004].Output.Graphic.TrendEdge.Array.Profile" transform="rotate(96.910)" />
</g>
<g transform="translate(1283.742 1856.726) " >
<use href="#Tool[0004].Output.Graphic.TrendEdge.Array.Profile" transform="rotate(106.140)" />
</g>
<g transform="translate(1277.636 1852.606) " >
<use href="#Tool[0004].Output.Graphic.TrendEdge.Array.Profile" transform="rotate(115.370)" />
</g>
<g transform="translate(1271.823 1848.683) " >
<use href="#Tool[0004].Output.Graphic.TrendEdge.Array.Profile" transform="rotate(124.600)" />
</g>
<g transform="translate(1266.509 1844.208) " >
<use href="#Tool[0004].Output.Graphic.TrendEdge.Array.Profile" transform="rotate(133.830)" />
</g>
<g transform="translate(1262.663 1838.448) " >
<use href="#Tool[0004].Output.Graphic.TrendEdge.Array.Profile" transform="rotate(143.060)" />
</g>
<g transform="translate(1259.325 1832.562) " >
<use href="#Tool[0004].Output.Graphic.TrendEdge.Array.Profile" transform="rotate(152.290)" />
</g>
<g transform="translate(1256.653 1826.378) " >
<use href="#Tool[0004].Output.Graphic.TrendEdge.Array.Profile" transform="rotate(161.520)" />
</g>
<g transform="translate(1254.899 1819.864) " >
<use href="#Tool[0004].Output.Graphic.TrendEdge.Array.Profile" transform="rotate(170.750)" />
</g>
<g transform="translate(1255.276 1813.125) " >
<use href="#Tool[0004].Output.Graphic.TrendEdge.Array.Profile" transform="rotate(179.980)" />
</g>
<g transform="translate(1255.725 1806.524) " >
<use href="#Tool[0004].Output.Graphic.TrendEdge.Array.Profile" transform="rotate(189.210)" />
</g>
<g transform="translate(1257.857 1800.272) " >
<use href="#Tool[0004].Output.Graphic.TrendEdge.Array.Profile" transform="rotate(198.440)" />
</g>
<g transform="translate(1260.612 1794.365) " >
<use href="#Tool[0004].Output.Graphic.TrendEdge.Array.Profile" transform="rotate(207.670)" />
</g>
<g transform="translate(1263.793 1788.657) " >
<use href="#Tool[0004].Output.Graphic.TrendEdge.Array.Profile" transform="rotate(216.900)" />
</g>
<g transform="translate(1268.200 1783.814) " >
<use href="#Tool[0004].Output.Graphic.TrendEdge.Array.Profile" transform="rotate(226.130)" />
</g>
<g transform="translate(1273.394 1779.860) " >
<use href="#Tool[0004].Output.Graphic.TrendEdge.Array.Profile" transform="rotate(235.360)" />
</g>
<g transform="translate(1278.793 1776.118) " >
<use href="#Tool[0004].Output.Graphic.TrendEdge.Array.Profile" transform="rotate(244.590)" />
</g>
<g transform="translate(1284.800 1773.256) " >
<use href="#Tool[0004].Output.Graphic.TrendEdge.Array.Profile" transform="rotate(253.820)" />
</g>
<g transform="translate(1291.313 1771.676) " >
<use href="#Tool[0004].Output.Graphic.TrendEdge.Array.Profile" transform="rotate(263.050)" />
</g>
<g transform="translate(1298.026 1771.283) " >
<use href="#Tool[0004].Output.Graphic.TrendEdge.Array.Profile" transform="rotate(272.280)" />
</g>
<g transform="translate(1304.651 1772.407) " >
<use href="#Tool[0004].Output.Graphic.TrendEdge.Array.Profile" transform="rotate(281.510)" />
</g>
<g transform="translate(1310.818 1774.937) " >
<use href="#Tool[0004].Output.Graphic.TrendEdge.Array.Profile" transform="rotate(290.740)" />
</g>
<g transform="translate(1317.035 1777.258) " >
<use href="#Tool[0004].Output.Graphic.TrendEdge.Array.Profile" transform="rotate(299.970)" />
</g>
<g transform="translate(1322.671 1780.853) " >
<use href="#Tool[0004].Output.Graphic.TrendEdge.Array.Profile" transform="rotate(309.200)" />
</g>
<g transform="translate(1327.678 1785.338) " >
<use href="#Tool[0004].Output.Graphic.TrendEdge.Array.Profile" transform="rotate(318.430)" />
</g>
<g transform="translate(1332.198 1790.421) " >
<use href="#Tool[0004].Output.Graphic.TrendEdge.Array.Profile" transform="rotate(327.660)" />
</g>
<g transform="translate(1335.220 1796.527) " >
<use href="#Tool[0004].Output.Graphic.TrendEdge.Array.Profile" transform="rotate(336.890)" />
</g>
<g transform="translate(1337.045 1803.058) " >
<use href="#Tool[0004].Output.Graphic.TrendEdge.Array.Profile" transform="rotate(346.120)" />
</g>
<g transform="translate(1339.252 1809.622) " >
<use href="#Tool[0004].Output.Graphic.TrendEdge.Array.Profile" transform="rotate(355.350)" />
</g>
<g transform="translate(1339.206 1816.541) " >
<use href="#Tool[0004].Output.Graphic.TrendEdge.Array.Profile" transform="rotate(4.580)" />
</g>
<g class="EnableCustomAttribute" custom_stroke-width="2.000" stroke="#ddb60e" stroke-width="2.000" >
<path d="M1339.201,1816.565 L1338.835,1823.573 L1336.781,1830.321 L1334.193,1837.023 L1329.618,1842.562 L1324.612,1847.696 L1319.024,1852.345 L1312.482,1855.593 L1305.504,1857.848 L1298.218,1858.998 L1290.904,1858.178 L1283.742,1856.726 L1277.636,1852.606 L1271.823,1848.683 L1266.509,1844.208 L1262.663,1838.448 L1259.325,1832.562 L1256.653,1826.378 L1254.899,1819.864 L1255.276,1813.125 L1255.725,1806.524 L1257.857,1800.272 L1260.612,1794.365 L1263.793,1788.657 L1268.200,1783.814 L1273.394,1779.860 L1278.793,1776.118 L1284.800,1773.256 L1291.313,1771.676 L1298.026,1771.283 L1304.651,1772.407 L1310.818,1774.937 L1317.035,1777.258 L1322.671,1780.853 L1327.678,1785.338 L1332.198,1790.421 L1335.220,1796.527 L1337.045,1803.058 L1339.252,1809.622 L1339.206,1816.541 L1339.201,1816.565 " fill="none" />
</g>
<defs >
<svg id="Tool[0004].Output.Graphic.TrendEdge.Primary.Profile" overflow="visible" >
<g class="EnableCustomAttribute" custom_scale="1" >
<circle cx="0.000" cy="0.000" r="2.000" fill="#87bb0c" fill-opacity="1.000" stroke="#87bb0c" stroke-opacity="1.000" stroke-width="0.600" />
</g>
</svg>
</defs>
<g transform="translate(1298.218 1858.998) " >
<use href="#Tool[0004].Output.Graphic.TrendEdge.Primary.Profile" transform="rotate(87.680)" />
</g>
<defs >
<svg id="Tool[0004].Output.Graphic.TrendEdge.Primary.Target.Edge" overflow="visible" >
<g class="EnableCustomAttribute" custom_stroke-width="2.000" stroke="#87bb0c" stroke-width="2.000" >
<path d="M7.437,45.319 A45.925,45.925 0 0 1 -3.747,45.772 M-3.747,45.772 Z" fill="none" />
</g>
</svg>
</defs>
<g transform="translate(1296.363 1813.110) " >
<use href="#Tool[0004].Output.Graphic.TrendEdge.Primary.Target.Edge" transform="rotate(0.000)" />
</g>
<defs >
<svg id="Tool[0004].Output.Graphic.TrendEdge.Primary.Target.ArrowedLine" overflow="visible" >
<g class="EnableCustomAttribute" custom_stroke-width="2.000" stroke="#87bb0c" stroke-width="2.000" >
<line x1="-0.928" y1="-22.944" x2="0.928" y2="22.944" fill="#000000" fill-opacity="1.000" />
</g>
</svg>
</defs>
<g transform="translate(1297.290 1836.054) " >
<use href="#Tool[0004].Output.Graphic.TrendEdge.Primary.Target.ArrowedLine" transform="rotate(0.000)" />
</g>
<defs >
<svg id="Tool[0004].Output.Graphic.TrendEdge.Primary.Target.ArrowedLine.StartTip" overflow="visible" >
<g class="EnableCustomAttribute" custom_scale="1" >
<polygon points="0.000,0.000 0.000,0.000 0.000,0.000 " fill="none" stroke="none" />
</g>
</svg>
</defs>
<g transform="translate(1296.363 1813.110) " >
<use href="#Tool[0004].Output.Graphic.TrendEdge.Primary.Target.ArrowedLine.StartTip" transform="rotate(-92.316)" />
</g>
<defs >
<svg id="Tool[0004].Output.Graphic.TrendEdge.Primary.Target.ArrowedLine.EndTip" overflow="visible" >
<g class="EnableCustomAttribute" custom_scale="1" >
<polygon points="0.000,0.000 -8.000,-4.800 -8.000,4.800 " fill="#87bb0c" fill-opacity="1.000" stroke="none" />
</g>
</svg>
</defs>
<g transform="translate(1298.218 1858.998) " >
<use href="#Tool[0004].Output.Graphic.TrendEdge.Primary.Target.ArrowedLine.EndTip" transform="rotate(87.684)" />
</g>
<!--Tool[0004].Output.Graphic.DetectedShape-->
<defs >
<svg id="Tool[0004].Output.Graphic.DetectedShape" overflow="visible" >
<g class="EnableCustomAttribute" custom_stroke-width="2.000" stroke="#87bb0c" stroke-width="2.000" >
<circle cx="0.000" cy="0.000" r="42.436" fill="none" />
</g>
</svg>
</defs>
<g transform="translate(1297.312 1814.951) " >
<use href="#Tool[0004].Output.Graphic.DetectedShape" transform="rotate(0.000)" />
</g>
<defs >
<svg id="Tool[0004].Output.Graphic.DetectedShape.Point" overflow="visible" >
<g class="EnableCustomAttribute" custom_scale="1" >
<polygon points="-1.000,-10.000 -1.000,-1.000 -10.000,-1.000 -10.000,1.000 -1.000,1.000 -1.000,10.000 1.000,10.000 1.000,1.000 10.000,1.000 10.000,-1.000 
    1.000,-1.000 1.000,-10.000 " fill="#87bb0c" fill-opacity="1.000" stroke="none" paint-order="stroke" />
</g>
</svg>
</defs>
<g transform="translate(1297.312 1814.951) " >
<use href="#Tool[0004].Output.Graphic.DetectedShape.Point" transform="rotate(0.000)" />
</g>
<!--Tool[0002].Output.Graphic.Region-->
<g class="EnableCustomAttribute" custom_stroke-width="2.000" stroke="#2a56af" stroke-width="2.000" >
<rect x="47.000" y="415.000" width="4301.000" height="2249.000" fill="none" />
<polygon points="2197.500,415.000 2189.500,410.200 2189.500,419.800 " fill="#2a56af" fill-opacity="1.000" stroke="none" />
</g>
<!--Tool[0002].Output.Graphic.ArrayTarget-->
<defs >
<svg id="Tool[0002].Output.Graphic.ArrayTarget.OtherGraphics" overflow="visible" >
<g class="EnableCustomAttribute" custom_stroke-width="1.000" stroke="#ddb60e" stroke-width="1.000" >
<g class="EnableCustomAttribute" custom_stroke-width="2.000" stroke="#ddb60e" stroke-width="2.000" >
<path stroke-linecap="square" d="M-649.635,-145.865 L911.365,-214.865 M-395.635,172.135 L-1334.635,216.135 M1703.365,66.135 L764.365,108.135 M-1747.635,218.135 L-1068.635,185.135 M-1062.635,185.135 L-399.635,155.135 M758.365,107.135 L164.365,136.135 M-1079.635,-124.865 L-655.635,-144.865 M1443.365,-238.865 L1866.365,-254.865 M-1339.635,216.135 L-1736.635,235.135 M-1464.635,-106.865 L-1164.635,-119.865 M1086.365,-221.865 L1363.365,-235.865 M-129.635,158.135 L-389.635,174.135 M-242.635,-147.865 L-479.635,-137.865 M-938.635,61.135 L-712.635,52.135 M-638.635,49.135 L-412.635,39.135 M-259.635,30.135 L-83.635,25.135 M916.365,-216.865 L1081.365,-223.865 M113.365,137.135 L-50.635,143.135 M255.365,8.135 L402.365,7.135 M-1645.635,-98.865 L-1504.635,-103.865 M-1775.635,63.135 L-1782.635,-67.865 M-27.635,21.135 L102.365,17.135 M-1770.635,187.135 L-1777.635,68.135 M-112.635,-153.865 L-225.635,-147.865 M11.365,-161.865 L-95.635,-153.865 M-497.635,-136.865 L-598.635,-130.865 M-1761.635,7.135 L-1759.635,91.135 M1875.365,-231.865 L1881.365,-157.865 M-1158.635,-122.865 L-1085.635,-124.865 M1369.365,-232.865 L1437.365,-238.865 M-73.635,157.135 L-123.635,160.135 M-690.099,52.910 A118.000,118.000 0 0 1 -645.404,47.422 M1114.967,-39.578 A40.000,40.000 0 0 1 1071.422,-41.099 M-78.635,22.135 L-33.635,21.135 M-1764.635,-88.865 L-1719.635,-87.865 M-1009.503,36.912 A64.000,64.000 0 0 1 -1008.384,-5.801 M-1755.635,96.135 L-1755.635,136.135 M159.365,137.135 L119.365,135.135 M176.923,13.562 A73.000,73.000 0 0 1 142.945,16.236 M-331.765,32.731 A110.000,110.000 0 0 1 -366.133,34.532 M181.365,13.135 L215.365,11.135 M-406.635,38.135 L-372.635,34.135 M-33.635,151.135 L-67.635,154.135 M-939.634,-9.102 A49.000,49.000 0 0 1 -933.112,22.954 M-1747.902,246.361 A46.000,46.000 0 0 1 -1778.611,246.629 M-952.635,54.135 L-934.635,29.135 M-1713.635,-87.865 L-1685.635,-92.865 M221.365,14.135 L249.365,9.135 M1068.996,-43.918 A39.000,39.000 0 0 1 1053.217,-67.756 M-1679.635,-95.865 L-1651.635,-99.865 M-1498.635,-101.865 L-1470.635,-104.865 M-293.635,33.135 L-265.635,30.135 M107.365,15.135 L136.365,16.135 M-327.635,33.135 L-299.635,34.135 M-1770.635,221.135 L-1770.635,193.135 M-983.635,59.135 L-955.635,56.135 M1906.700,84.478 A40.000,40.000 0 0 1 1879.342,84.956 M-1781.416,-76.940 A10.000,10.000 0 0 1 -1790.621,-92.883 M-989.135,56.302 A51.000,51.000 0 0 1 -1005.916,40.654 M-984.282,-26.509 A35.000,35.000 0 0 1 -962.092,-25.540 M-990.635,-24.865 L-1005.635,-10.865 M-1741.764,233.660 A16.000,16.000 0 0 1 -1759.054,226.849 M1117.365,-41.865 L1130.365,-56.865 M1883.688,-134.127 A72.000,72.000 0 0 1 1882.464,-151.633 M-942.635,-11.865 L-954.635,-23.865 M-1786.635,-95.865 L-1770.635,-94.865 M1889.474,69.957 A18.000,18.000 0 0 1 1905.256,69.957 M1873.365,-257.865 L1888.365,-257.865 M1131.365,-61.865 L1132.365,-72.865 M-1779.635,233.135 L-1770.635,230.135 M1890.365,-254.865 L1893.365,-248.865 M1907.365,74.135 L1907.365,80.135 M1879.365,-239.865 L1875.365,-235.865 M-706.635,52.135 L-700.635,53.135 M1890.365,-242.865 L1885.365,-240.865 M-1762.635,-3.865 L-1762.635,1.135 M-1780.635,243.135 L-1780.635,238.135 " fill="none" />
</g>
<g class="EnableCustomAttribute" custom_stroke-width="1.000" stroke="#ddb60e" stroke-width="1.000" >
<rect x="-2034.500" y="-314.500" width="4069.000" height="629.000" fill="none" transform="rotate(358.300 0.000 0.000)" />
<polygon points="-9.330,-314.362 -13.330,-316.762 -13.330,-311.962 " fill="#ddb60e" fill-opacity="1.000" stroke="none" transform="rotate(358.300 -9.330 -314.362)" />
</g>
</g>
</svg>
</defs>
<defs >
<svg id="Tool[0002].Output.Graphic.ArrayTarget" overflow="visible" >
<g class="EnableCustomAttribute" custom_scale="1" >
<polygon points="-0.500,-0.500 -0.500,4.000 -2.400,4.000 0.000,8.000 2.400,4.000 0.500,4.000 0.500,0.500 4.000,0.500 4.000,2.400 8.000,0.000 
    4.000,-2.400 4.000,-0.500 " fill="#ddb60e" fill-opacity="1.000" stroke="#000000" stroke-opacity="1.000" stroke-width="2.000" paint-order="stroke" />
</g>
</svg>
</defs>
<defs >
<path id="Tool[0002].Output.Graphic.ArrayTarget0" class="EnableCustomAttribute" custom_scale="1" custom_offset_x="2.500" custom_offset_y="-2.500" d="M 2.500 -2.500 h 1000" />
</defs>
<g class="EnableCustomAttribute" custom_fontsize="12" font-size="12" font-weight="bold" custom_stroke-width="2" stroke-width="2" fill="#ddb60e" stroke="#000000" paint-order="stroke" >
</g>
<!--Tool[0002].Output.Graphic.PrimaryTarget-->
<defs >
<svg id="Tool[0002].Output.Graphic.PrimaryTarget.OtherGraphics" overflow="visible" >
<g class="EnableCustomAttribute" custom_stroke-width="2.000" stroke="#87bb0c" stroke-width="2.000" >
<g class="EnableCustomAttribute" custom_stroke-width="2.000" stroke="#87bb0c" stroke-width="2.000" >
<path stroke-linecap="square" d="M-649.635,-145.865 L911.365,-214.865 M-395.635,172.135 L-1334.635,216.135 M1703.365,66.135 L764.365,108.135 M-1747.635,218.135 L-1068.635,185.135 M-1062.635,185.135 L-399.635,155.135 M758.365,107.135 L164.365,136.135 M-1079.635,-124.865 L-655.635,-144.865 M1443.365,-238.865 L1866.365,-254.865 M-1339.635,216.135 L-1736.635,235.135 M-1464.635,-106.865 L-1164.635,-119.865 M1086.365,-221.865 L1363.365,-235.865 M-129.635,158.135 L-389.635,174.135 M-242.635,-147.865 L-479.635,-137.865 M-938.635,61.135 L-712.635,52.135 M-638.635,49.135 L-412.635,39.135 M-259.635,30.135 L-83.635,25.135 M916.365,-216.865 L1081.365,-223.865 M113.365,137.135 L-50.635,143.135 M255.365,8.135 L402.365,7.135 M-1645.635,-98.865 L-1504.635,-103.865 M-1775.635,63.135 L-1782.635,-67.865 M-27.635,21.135 L102.365,17.135 M-1770.635,187.135 L-1777.635,68.135 M-112.635,-153.865 L-225.635,-147.865 M11.365,-161.865 L-95.635,-153.865 M-497.635,-136.865 L-598.635,-130.865 M-1761.635,7.135 L-1759.635,91.135 M1875.365,-231.865 L1881.365,-157.865 M-1158.635,-122.865 L-1085.635,-124.865 M1369.365,-232.865 L1437.365,-238.865 M-73.635,157.135 L-123.635,160.135 M-690.099,52.910 A118.000,118.000 0 0 1 -645.404,47.422 M1114.967,-39.578 A40.000,40.000 0 0 1 1071.422,-41.099 M-78.635,22.135 L-33.635,21.135 M-1764.635,-88.865 L-1719.635,-87.865 M-1009.503,36.912 A64.000,64.000 0 0 1 -1008.384,-5.801 M-1755.635,96.135 L-1755.635,136.135 M159.365,137.135 L119.365,135.135 M176.923,13.562 A73.000,73.000 0 0 1 142.945,16.236 M-331.765,32.731 A110.000,110.000 0 0 1 -366.133,34.532 M181.365,13.135 L215.365,11.135 M-406.635,38.135 L-372.635,34.135 M-33.635,151.135 L-67.635,154.135 M-939.634,-9.102 A49.000,49.000 0 0 1 -933.112,22.954 M-1747.902,246.361 A46.000,46.000 0 0 1 -1778.611,246.629 M-952.635,54.135 L-934.635,29.135 M-1713.635,-87.865 L-1685.635,-92.865 M221.365,14.135 L249.365,9.135 M1068.996,-43.918 A39.000,39.000 0 0 1 1053.217,-67.756 M-1679.635,-95.865 L-1651.635,-99.865 M-1498.635,-101.865 L-1470.635,-104.865 M-293.635,33.135 L-265.635,30.135 M107.365,15.135 L136.365,16.135 M-327.635,33.135 L-299.635,34.135 M-1770.635,221.135 L-1770.635,193.135 M-983.635,59.135 L-955.635,56.135 M1906.700,84.478 A40.000,40.000 0 0 1 1879.342,84.956 M-1781.416,-76.940 A10.000,10.000 0 0 1 -1790.621,-92.883 M-989.135,56.302 A51.000,51.000 0 0 1 -1005.916,40.654 M-984.282,-26.509 A35.000,35.000 0 0 1 -962.092,-25.540 M-990.635,-24.865 L-1005.635,-10.865 M-1741.764,233.660 A16.000,16.000 0 0 1 -1759.054,226.849 M1117.365,-41.865 L1130.365,-56.865 M1883.688,-134.127 A72.000,72.000 0 0 1 1882.464,-151.633 M-942.635,-11.865 L-954.635,-23.865 M-1786.635,-95.865 L-1770.635,-94.865 M1889.474,69.957 A18.000,18.000 0 0 1 1905.256,69.957 M1873.365,-257.865 L1888.365,-257.865 M1131.365,-61.865 L1132.365,-72.865 M-1779.635,233.135 L-1770.635,230.135 M1890.365,-254.865 L1893.365,-248.865 M1907.365,74.135 L1907.365,80.135 M1879.365,-239.865 L1875.365,-235.865 M-706.635,52.135 L-700.635,53.135 M1890.365,-242.865 L1885.365,-240.865 M-1762.635,-3.865 L-1762.635,1.135 M-1780.635,243.135 L-1780.635,238.135 " fill="none" />
</g>
<g class="EnableCustomAttribute" custom_stroke-width="2.000" stroke="#87bb0c" stroke-width="2.000" >
<rect x="-2034.500" y="-314.500" width="4069.000" height="629.000" fill="none" transform="rotate(358.300 0.000 0.000)" />
<polygon points="-9.330,-314.362 -17.330,-319.162 -17.330,-309.562 " fill="#87bb0c" fill-opacity="1.000" stroke="none" transform="rotate(358.300 -9.330 -314.362)" />
</g>
</g>
</svg>
</defs>
<defs >
<svg id="Tool[0002].Output.Graphic.PrimaryTarget" overflow="visible" >
<g class="EnableCustomAttribute" custom_scale="1" >
<polygon points="-1.000,-1.000 -1.000,4.000 -2.400,4.000 0.000,8.000 2.400,4.000 1.000,4.000 1.000,1.000 4.000,1.000 4.000,2.400 8.000,0.000 
    4.000,-2.400 4.000,-1.000 " fill="#87bb0c" fill-opacity="1.000" stroke="#000000" stroke-opacity="1.000" stroke-width="2.000" paint-order="stroke" />
</g>
</svg>
</defs>
<defs >
<path id="Tool[0002].Output.Graphic.PrimaryTarget0" class="EnableCustomAttribute" custom_scale="1" custom_offset_x="3.000" custom_offset_y="-3.000" d="M 3.000 -3.000 h 1000" />
</defs>
<g transform="translate(2248.213 1794.314) " >
<use href="#Tool[0002].Output.Graphic.PrimaryTarget.OtherGraphics" transform="rotate(-0.386)" />
</g>
<g transform="translate(2248.213 1794.314) " >
<use href="#Tool[0002].Output.Graphic.PrimaryTarget" transform="rotate(-0.386)" />
</g>
<g class="EnableCustomAttribute" custom_fontsize="12" font-size="12" font-weight="bold" custom_stroke-width="2" stroke-width="2" fill="#87bb0c" stroke="#000000" paint-order="stroke" >
<g transform="translate(2248.213 1794.314) " >
<text style="white-space:pre" >
<textPath href="#Tool[0002].Output.Graphic.PrimaryTarget0" >81.9</textPath>
</text>
</g>
</g>
<!--Tool[0001].Output.Graphic.Region-->
<g class="EnableCustomAttribute" custom_stroke-width="2.000" stroke="#2a56af" stroke-width="2.000" >
<rect x="92.000" y="19.000" width="4251.000" height="2660.000" fill="none" />
<polygon points="2217.500,19.000 2209.500,14.200 2209.500,23.800 " fill="#2a56af" fill-opacity="1.000" stroke="none" />
</g>
<!--Tool[0001].Output.Graphic.Result-->
<defs >
<path id="Tool[0001].Output.Graphic.ResultSymbol00" class="EnableCustomAttribute" custom_scale="1" custom_offset_x="3.000" custom_offset_y="-3.000" d="M 3.000 -3.000 h 1000" />
</defs>
<g class="EnableCustomAttribute" custom_fontsize="40" font-size="40" font-weight="bold" custom_stroke-width="2" stroke-width="2" fill="#1da57b" stroke="#000000" paint-order="stroke" >
<g transform="translate(92.000 2679.000) " >
<text style="white-space:pre" >
<textPath href="#Tool[0001].Output.Graphic.ResultSymbol00" >■</textPath>
</text>
</g>
</g>
<defs >
<path id="Tool[0001].Output.Graphic.ResultSymbol00" class="EnableCustomAttribute" custom_scale="1" custom_offset_x="3.000" custom_offset_y="-3.000" d="M 3.000 -3.000 h 1000" />
</defs>
<g class="EnableCustomAttribute" custom_fontsize="40" font-size="40" font-weight="bold" custom_stroke-width="2" stroke-width="2" fill="#ffffff" stroke="#000000" paint-order="stroke" >
<g transform="translate(92.000 2679.000) " >
<text style="white-space:pre" >
<textPath href="#Tool[0001].Output.Graphic.ResultSymbol00" >　Front  91%</textPath>
</text>
</g>
</g>
</svg>
